<svg xmlns="http://www.w3.org/2000/svg" xmlns:xlink="http://www.w3.org/1999/xlink" version="1.1" viewBox="0 0 3616 1416" style="background: #ffffff"><g id="v-3"  transform="matrix(1,0,0,1,0,0)"><g id="j_373"    transform="translate(20,1371)"><g id="v-6617"><text  id="v-6618" font-size="22px" y="0.8em" xml:space="preserve" font-weight="normal" text-anchor="start" fill="#aaaaaa" pointer-events="none" font-family="Open Sans" transform="matrix(1,0,0,1,0,0)"><tspan id="v-6619"  dy="0em" x="0">úterý 8. listopadu 2022 15:05 Středoevropský standardní čas</tspan></text></g></g><g id="j_372"    transform="translate(20,1325)"><g id="v-6613"><text  id="v-6614" font-size="36px" y="0.8em" xml:space="preserve" font-weight="normal" text-anchor="start" fill="#000000" pointer-events="none" font-family="Open Sans" transform="matrix(1,0,0,1,0,0)"><tspan id="v-6615"  dy="0em" x="0">[System Context] Patient Monitor Control System</tspan></text></g></g><g id="j_361"    transform="translate(1583,908)" style="" ><g  id="v-6403" style="opacity: 1;"><rect  id="v-6404" rx="1" ry="1" stroke="#3b82dd" stroke-width="2" pointer-events="visiblePainted" fill="#4290f5" width="450" height="300"></rect><text  id="v-6405" font-size="34" y="0.8em" xml:space="preserve" font-weight="bold" text-anchor="middle" pointer-events="visible" font-family="Open Sans" fill="#000000" transform="matrix(1,0,0,1,225,53.8)"><tspan id="v-6410"  dy="0em" x="0">Patient Monitor Control</tspan><tspan id="v-6411"  dy="1.2em" x="0">System</tspan></text><text  id="v-6406" font-size="19" y="0.8em" xml:space="preserve" text-anchor="middle" font-family="Open Sans" fill="#000000" transform="matrix(1,0,0,1,225,138.8)"><tspan id="v-6412"  dy="0em" x="0">[Software System]</tspan></text><text  id="v-6407" font-size="24" y="0.8em" xml:space="preserve" text-anchor="middle" font-family="Open Sans" fill="#000000" transform="matrix(1,0,0,1,225,186.3)"><tspan id="v-6413"  dy="0em" x="0">System for monitoring patients in</tspan><tspan id="v-6414"  dy="1.2em" x="0">hospital</tspan></text><text  id="v-6408" font-weight="bold" text-anchor="middle" font-family="Open Sans" fill="#000000" font-size="24" transform="matrix(1,0,0,1,225,270)" y="0.8em" xml:space="preserve" display="none"><tspan id="v-6415"  dy="0em" x="0">+</tspan></text><image  id="v-6409"></image></g></g><g id="j_362"    transform="translate(208,208)" style=""><g  id="v-6419" style="opacity: 1;"><rect  x="0" y="160" width="400" height="240" rx="70" id="v-6421" stroke="#002ee6" stroke-width="2" pointer-events="visiblePainted" fill="#0033ff"></rect><circle  cx="200" cy="88.88888888888889" r="88.88888888888889" id="v-6420" stroke="#002ee6" stroke-width="2" pointer-events="visiblePainted" fill="#0033ff"></circle><line  x1="80" y1="266.6666666666667" x2="80" y2="400" id="v-6427" stroke="#002ee6" stroke-width="2"></line><line  x1="320" y1="266.6666666666667" x2="320" y2="400" id="v-6428" stroke="#002ee6" stroke-width="2"></line><text  id="v-6422" font-size="34px" y="0.8em" xml:space="preserve" font-weight="bold" text-anchor="middle" pointer-events="visible" font-family="Open Sans" fill="#ffffff" transform="matrix(1,0,0,1,200,220)"><tspan id="v-6429"  dy="0em" x="0">Patient</tspan></text><text  id="v-6423" font-size="19px" y="0.8em" xml:space="preserve" text-anchor="middle" font-family="Open Sans" fill="#ffffff" transform="matrix(1,0,0,1,200,262.5)"><tspan id="v-6430"  dy="0em" x="0">[Person]</tspan></text><text  id="v-6424" font-size="24px" y="0.8em" xml:space="preserve" text-anchor="middle" font-family="Open Sans" fill="#ffffff" transform="matrix(1,0,0,1,200,310)"><tspan id="v-6431"  dy="0em" x="0">Patient lying in hospital bed</tspan></text><text  id="v-6425" font-weight="bold" text-anchor="middle" font-family="Open Sans" fill="#ffffff" font-size="24" transform="matrix(1,0,0,1,200,371.2)" display="none"></text><image  id="v-6426"></image></g></g><g id="j_363"    transform="translate(908,208)" style=""><g  id="v-6435" style="opacity: 1;"><rect  x="0" y="160" width="400" height="240" rx="70" id="v-6437" stroke="#002ee6" stroke-width="2" pointer-events="visiblePainted" fill="#0033ff"></rect><circle  cx="200" cy="88.88888888888889" r="88.88888888888889" id="v-6436" stroke="#002ee6" stroke-width="2" pointer-events="visiblePainted" fill="#0033ff"></circle><line  x1="80" y1="266.6666666666667" x2="80" y2="400" id="v-6443" stroke="#002ee6" stroke-width="2"></line><line  x1="320" y1="266.6666666666667" x2="320" y2="400" id="v-6444" stroke="#002ee6" stroke-width="2"></line><text  id="v-6438" font-size="34px" y="0.8em" xml:space="preserve" font-weight="bold" text-anchor="middle" pointer-events="visible" font-family="Open Sans" fill="#ffffff" transform="matrix(1,0,0,1,200,205)"><tspan id="v-6445"  dy="0em" x="0">IT staff</tspan></text><text  id="v-6439" font-size="19px" y="0.8em" xml:space="preserve" text-anchor="middle" font-family="Open Sans" fill="#ffffff" transform="matrix(1,0,0,1,200,247.5)"><tspan id="v-6446"  dy="0em" x="0">[Person]</tspan></text><text  id="v-6440" font-size="24px" y="0.8em" xml:space="preserve" text-anchor="middle" font-family="Open Sans" fill="#ffffff" transform="matrix(1,0,0,1,200,295)"><tspan id="v-6447"  dy="0em" x="0">People responsible for IT</tspan><tspan id="v-6448"  dy="1.2em" x="0">infrastructure</tspan></text><text  id="v-6441" font-weight="bold" text-anchor="middle" font-family="Open Sans" fill="#ffffff" font-size="24" transform="matrix(1,0,0,1,200,371.2)" display="none"></text><image  id="v-6442"></image></g></g><g id="j_364"    transform="translate(1608,208)" style=""><g  id="v-6452" style="opacity: 1;"><rect  x="0" y="160" width="400" height="240" rx="70" id="v-6454" stroke="#002ee6" stroke-width="2" pointer-events="visiblePainted" fill="#0033ff"></rect><circle  cx="200" cy="88.88888888888889" r="88.88888888888889" id="v-6453" stroke="#002ee6" stroke-width="2" pointer-events="visiblePainted" fill="#0033ff"></circle><line  x1="80" y1="266.6666666666667" x2="80" y2="400" id="v-6460" stroke="#002ee6" stroke-width="2"></line><line  x1="320" y1="266.6666666666667" x2="320" y2="400" id="v-6461" stroke="#002ee6" stroke-width="2"></line><text  id="v-6455" font-size="34px" y="0.8em" xml:space="preserve" font-weight="bold" text-anchor="middle" pointer-events="visible" font-family="Open Sans" fill="#ffffff" transform="matrix(1,0,0,1,200,205)"><tspan id="v-6462"  dy="0em" x="0">Technician</tspan></text><text  id="v-6456" font-size="19px" y="0.8em" xml:space="preserve" text-anchor="middle" font-family="Open Sans" fill="#ffffff" transform="matrix(1,0,0,1,200,247.5)"><tspan id="v-6463"  dy="0em" x="0">[Person]</tspan></text><text  id="v-6457" font-size="24px" y="0.8em" xml:space="preserve" text-anchor="middle" font-family="Open Sans" fill="#ffffff" transform="matrix(1,0,0,1,200,295)"><tspan id="v-6464"  dy="0em" x="0">Technicians responsible for</tspan><tspan id="v-6465"  dy="1.2em" x="0">devices maintenance</tspan></text><text  id="v-6458" font-weight="bold" text-anchor="middle" font-family="Open Sans" fill="#ffffff" font-size="24" transform="matrix(1,0,0,1,200,371.2)" display="none"></text><image  id="v-6459"></image></g></g><g id="j_365"    transform="translate(2308,208)" style=""><g  id="v-6469" style="opacity: 1;"><rect  x="0" y="160" width="400" height="240" rx="70" id="v-6471" stroke="#002ee6" stroke-width="2" pointer-events="visiblePainted" fill="#0033ff"></rect><circle  cx="200" cy="88.88888888888889" r="88.88888888888889" id="v-6470" stroke="#002ee6" stroke-width="2" pointer-events="visiblePainted" fill="#0033ff"></circle><line  x1="80" y1="266.6666666666667" x2="80" y2="400" id="v-6477" stroke="#002ee6" stroke-width="2"></line><line  x1="320" y1="266.6666666666667" x2="320" y2="400" id="v-6478" stroke="#002ee6" stroke-width="2"></line><text  id="v-6472" font-size="34px" y="0.8em" xml:space="preserve" font-weight="bold" text-anchor="middle" pointer-events="visible" font-family="Open Sans" fill="#ffffff" transform="matrix(1,0,0,1,200,205)"><tspan id="v-6479"  dy="0em" x="0">Doctor</tspan></text><text  id="v-6473" font-size="19px" y="0.8em" xml:space="preserve" text-anchor="middle" font-family="Open Sans" fill="#ffffff" transform="matrix(1,0,0,1,200,247.5)"><tspan id="v-6480"  dy="0em" x="0">[Person]</tspan></text><text  id="v-6474" font-size="24px" y="0.8em" xml:space="preserve" text-anchor="middle" font-family="Open Sans" fill="#ffffff" transform="matrix(1,0,0,1,200,295)"><tspan id="v-6481"  dy="0em" x="0">Hospital doctor responsible i.e.</tspan><tspan id="v-6482"  dy="1.2em" x="0">for drug prescription</tspan></text><text  id="v-6475" font-weight="bold" text-anchor="middle" font-family="Open Sans" fill="#ffffff" font-size="24" transform="matrix(1,0,0,1,200,371.2)" display="none"></text><image  id="v-6476"></image></g></g><g id="j_366"    transform="translate(3008,208)" style=""><g  id="v-6486" style="opacity: 1;"><rect  x="0" y="160" width="400" height="240" rx="70" id="v-6488" stroke="#002ee6" stroke-width="2" pointer-events="visiblePainted" fill="#0033ff"></rect><circle  cx="200" cy="88.88888888888889" r="88.88888888888889" id="v-6487" stroke="#002ee6" stroke-width="2" pointer-events="visiblePainted" fill="#0033ff"></circle><line  x1="80" y1="266.6666666666667" x2="80" y2="400" id="v-6494" stroke="#002ee6" stroke-width="2"></line><line  x1="320" y1="266.6666666666667" x2="320" y2="400" id="v-6495" stroke="#002ee6" stroke-width="2"></line><text  id="v-6489" font-size="34px" y="0.8em" xml:space="preserve" font-weight="bold" text-anchor="middle" pointer-events="visible" font-family="Open Sans" fill="#ffffff" transform="matrix(1,0,0,1,200,205)"><tspan id="v-6496"  dy="0em" x="0">Nurse</tspan></text><text  id="v-6490" font-size="19px" y="0.8em" xml:space="preserve" text-anchor="middle" font-family="Open Sans" fill="#ffffff" transform="matrix(1,0,0,1,200,247.5)"><tspan id="v-6497"  dy="0em" x="0">[Person]</tspan></text><text  id="v-6491" font-size="24px" y="0.8em" xml:space="preserve" text-anchor="middle" font-family="Open Sans" fill="#ffffff" transform="matrix(1,0,0,1,200,295)"><tspan id="v-6498"  dy="0em" x="0">Nurse responsible for patient</tspan><tspan id="v-6499"  dy="1.2em" x="0">wellbeing</tspan></text><text  id="v-6492" font-weight="bold" text-anchor="middle" font-family="Open Sans" fill="#ffffff" font-size="24" transform="matrix(1,0,0,1,200,371.2)" display="none"></text><image  id="v-6493"></image></g></g><g id="j_367"   ><path  stroke="#707070" id="v-6517" stroke-width="2" stroke-dasharray="30 30" fill="none" d="M 1808 608 1808 888" style="opacity: 1;"></path><path  fill="black" stroke="black" transform="translate(1808,608) scale(1,1) rotate(-270)"></path><path  fill="#707070" stroke="#707070" id="v-6519" d="M 20 0 L 0 10 L 20 20 z" transform="translate(1798,908) scale(1,1) rotate(-90)" style="opacity: 1;"></path><path  id="v-6518" fill="none" d="M 1808 608 1808 888" style=""></path><title ></title><g ><g  id="v-6505" label-idx="0" cursor="move" transform="translate(1808, 748)" style="opacity: 1;"><rect id="v-6507" fill="#ffffff" rx="3" ry="3" stroke="#ffffff" stroke-width="20px" pointer-events="none" width="102.96993255615234" height="31.564173698425293" transform="matrix(1,0,0,1,-50.4,-15.8)"></rect><text id="v-6506" font-size="24px" y="0.8em" xml:space="preserve" text-anchor="middle" pointer-events="none" fill="#707070" font-family="Open Sans" font-weight="normal" transform="matrix(1,0,0,1,0,-10.2)"><tspan id="v-6508"  dy="0em" x="0">Manages</tspan></text></g><g  id="v-6509" label-idx="1" cursor="move" transform="translate(1808, 779.2)" style="opacity: 1;"><rect id="v-6511" fill="#ffffff" rx="3" ry="3" pointer-events="none" width="0" height="0" transform="matrix(1,0,0,1,0,0)"></rect><text id="v-6510" font-size="19px" y="0.8em" display="none" xml:space="preserve" text-anchor="middle" pointer-events="none" fill="#707070" font-family="Open Sans" font-weight="normal" transform="matrix(1,0,0,1,0,0)"><tspan id="v-6512"  dy="0em" x="0" style="fill-opacity: 0; stroke-opacity: 0;">-</tspan></text></g><g  id="v-6513" label-idx="2" cursor="move" transform="translate(1808, 803.2)" style="opacity: 1;"><rect id="v-6515" fill="#ffffff" rx="3" ry="3" pointer-events="none"  display="none" width="0" height="0" transform="matrix(1,0,0,1,0,0)"></rect><text id="v-6514" font-size="19px" y="0.8em" display="none" xml:space="preserve" text-anchor="middle" pointer-events="none" fill="#707070" font-family="Open Sans" font-weight="normal"  transform="matrix(1,0,0,1,0,0)"><tspan id="v-6516"  dy="0em" x="0" style="fill-opacity: 0; stroke-opacity: 0;">-</tspan></text></g></g><g  display="none"></g><g  id="v-6521" display="none"><g  id="v-6502"><path  end="source" d="M 26 0 L 0 13 L 26 26 z"></path></g><g  id="v-6503"><path  end="target" d="M 26 0 L 0 13 L 26 26 z"></path></g></g><g  id="v-6520" display="none"><g  id="v-6501" transform="translate(1808, 648) "><g  event="remove"><circle r="11"></circle><path transform="scale(.8) translate(-16, -16)" d="M24.778,21.419 19.276,15.917 24.777,10.415 21.949,7.585 16.447,13.087 10.945,7.585 8.117,10.415 13.618,15.917 8.116,21.419 10.946,24.248 16.447,18.746 21.948,24.248z"></path><title>Remove link.</title></g><g  event="link:options"><circle r="11" transform="translate(25)"></circle><path fill="white" transform="scale(.55) translate(29, -16)" d="M31.229,17.736c0.064-0.571,0.104-1.148,0.104-1.736s-0.04-1.166-0.104-1.737l-4.377-1.557c-0.218-0.716-0.504-1.401-0.851-2.05l1.993-4.192c-0.725-0.91-1.549-1.734-2.458-2.459l-4.193,1.994c-0.647-0.347-1.334-0.632-2.049-0.849l-1.558-4.378C17.165,0.708,16.588,0.667,16,0.667s-1.166,0.041-1.737,0.105L12.707,5.15c-0.716,0.217-1.401,0.502-2.05,0.849L6.464,4.005C5.554,4.73,4.73,5.554,4.005,6.464l1.994,4.192c-0.347,0.648-0.632,1.334-0.849,2.05l-4.378,1.557C0.708,14.834,0.667,15.412,0.667,16s0.041,1.165,0.105,1.736l4.378,1.558c0.217,0.715,0.502,1.401,0.849,2.049l-1.994,4.193c0.725,0.909,1.549,1.733,2.459,2.458l4.192-1.993c0.648,0.347,1.334,0.633,2.05,0.851l1.557,4.377c0.571,0.064,1.148,0.104,1.737,0.104c0.588,0,1.165-0.04,1.736-0.104l1.558-4.377c0.715-0.218,1.399-0.504,2.049-0.851l4.193,1.993c0.909-0.725,1.733-1.549,2.458-2.458l-1.993-4.193c0.347-0.647,0.633-1.334,0.851-2.049L31.229,17.736zM16,20.871c-2.69,0-4.872-2.182-4.872-4.871c0-2.69,2.182-4.872,4.872-4.872c2.689,0,4.871,2.182,4.871,4.872C20.871,18.689,18.689,20.871,16,20.871z"></path><title>Link options.</title></g></g></g></g><g id="j_368"   ><path  stroke="#707070" id="v-6539" stroke-width="2" stroke-dasharray="30 30" fill="none" d="M 2308 594 1985 894" style="opacity: 1;"></path><path  fill="black" stroke="black" transform="translate(2308,594) scale(1,1) rotate(-222.89190673828125)"></path><path  fill="#707070" stroke="#707070" id="v-6541" d="M 20 0 L 0 10 L 20 20 z" transform="translate(1963.193851714513,900.6736301296995) scale(1,1) rotate(-42.89190292358398)" style="opacity: 1;"></path><path  id="v-6540" fill="none" d="M 2308 594 1985 894" style=""></path><title ></title><g ><g  id="v-6527" label-idx="0" cursor="move" transform="translate(2146.5, 744)" style="opacity: 1;"><rect id="v-6529" fill="#ffffff" rx="3" ry="3" stroke="#ffffff" stroke-width="20px" pointer-events="none" width="55.91777801513672" height="31.564173698425293" transform="matrix(1,0,0,1,-26.9,-15.8)"></rect><text id="v-6528" font-size="24px" y="0.8em" xml:space="preserve" text-anchor="middle" pointer-events="none" fill="#707070" font-family="Open Sans" font-weight="normal" transform="matrix(1,0,0,1,0,-10.2)"><tspan id="v-6530"  dy="0em" x="0">Uses</tspan></text></g><g  id="v-6531" label-idx="1" cursor="move" transform="translate(2146.5, 775.2)" style="opacity: 1;"><rect id="v-6533" fill="#ffffff" rx="3" ry="3" pointer-events="none" width="0" height="0" transform="matrix(1,0,0,1,0,0)"></rect><text id="v-6532" font-size="19px" y="0.8em" display="none" xml:space="preserve" text-anchor="middle" pointer-events="none" fill="#707070" font-family="Open Sans" font-weight="normal" transform="matrix(1,0,0,1,0,0)"><tspan id="v-6534"  dy="0em" x="0" style="fill-opacity: 0; stroke-opacity: 0;">-</tspan></text></g><g  id="v-6535" label-idx="2" cursor="move" transform="translate(2146.5, 799.2)" style="opacity: 1;"><rect id="v-6537" fill="#ffffff" rx="3" ry="3" pointer-events="none"  display="none" width="0" height="0" transform="matrix(1,0,0,1,0,0)"></rect><text id="v-6536" font-size="19px" y="0.8em" display="none" xml:space="preserve" text-anchor="middle" pointer-events="none" fill="#707070" font-family="Open Sans" font-weight="normal"  transform="matrix(1,0,0,1,0,0)"><tspan id="v-6538"  dy="0em" x="0" style="fill-opacity: 0; stroke-opacity: 0;">-</tspan></text></g></g><g  display="none"></g><g  id="v-6543" display="none"><g  id="v-6524"><path  end="source" d="M 26 0 L 0 13 L 26 26 z"></path></g><g  id="v-6525"><path  end="target" d="M 26 0 L 0 13 L 26 26 z"></path></g></g><g  id="v-6542" display="none"><g  id="v-6523" transform="translate(2278.69140625, 621.2215576171875) "><g  event="remove"><circle r="11"></circle><path transform="scale(.8) translate(-16, -16)" d="M24.778,21.419 19.276,15.917 24.777,10.415 21.949,7.585 16.447,13.087 10.945,7.585 8.117,10.415 13.618,15.917 8.116,21.419 10.946,24.248 16.447,18.746 21.948,24.248z"></path><title>Remove link.</title></g><g  event="link:options"><circle r="11" transform="translate(25)"></circle><path fill="white" transform="scale(.55) translate(29, -16)" d="M31.229,17.736c0.064-0.571,0.104-1.148,0.104-1.736s-0.04-1.166-0.104-1.737l-4.377-1.557c-0.218-0.716-0.504-1.401-0.851-2.05l1.993-4.192c-0.725-0.91-1.549-1.734-2.458-2.459l-4.193,1.994c-0.647-0.347-1.334-0.632-2.049-0.849l-1.558-4.378C17.165,0.708,16.588,0.667,16,0.667s-1.166,0.041-1.737,0.105L12.707,5.15c-0.716,0.217-1.401,0.502-2.05,0.849L6.464,4.005C5.554,4.73,4.73,5.554,4.005,6.464l1.994,4.192c-0.347,0.648-0.632,1.334-0.849,2.05l-4.378,1.557C0.708,14.834,0.667,15.412,0.667,16s0.041,1.165,0.105,1.736l4.378,1.558c0.217,0.715,0.502,1.401,0.849,2.049l-1.994,4.193c0.725,0.909,1.549,1.733,2.459,2.458l4.192-1.993c0.648,0.347,1.334,0.633,2.05,0.851l1.557,4.377c0.571,0.064,1.148,0.104,1.737,0.104c0.588,0,1.165-0.04,1.736-0.104l1.558-4.377c0.715-0.218,1.399-0.504,2.049-0.851l4.193,1.993c0.909-0.725,1.733-1.549,2.458-2.458l-1.993-4.193c0.347-0.647,0.633-1.334,0.851-2.049L31.229,17.736zM16,20.871c-2.69,0-4.872-2.182-4.872-4.871c0-2.69,2.182-4.872,4.872-4.872c2.689,0,4.871,2.182,4.871,4.872C20.871,18.689,18.689,20.871,16,20.871z"></path><title>Link options.</title></g></g></g></g><g id="j_369"   ><path  stroke="#707070" id="v-6562" stroke-width="2" stroke-dasharray="30 30" fill="none" d="M 3008 522 2867 603 S 2858 608 2849 612 L 2051 954" style="opacity: 1;"></path><path  fill="black" stroke="black" transform="translate(3008,522) scale(1,1) rotate(-209.82708740234375)"></path><path  fill="#707070" stroke="#707070" id="v-6564" d="M 20 0 L 0 10 L 20 20 z" transform="translate(2029.0567505448303,952.8102676339626) scale(1,1) rotate(-23.223731994628906)" style="opacity: 1;"></path><path  id="v-6563" fill="none" d="M 3008 522 2867 603 S 2858 608 2849 612 L 2051 954" style=""></path><title ></title><g ><g  id="v-6550" label-idx="0" cursor="move" transform="translate(2533.982177734375, 747.007568359375)" style="opacity: 1;"><rect id="v-6552" fill="#ffffff" rx="3" ry="3" stroke="#ffffff" stroke-width="20px" pointer-events="none" width="55.91777801513672" height="31.564173698425293" transform="matrix(1,0,0,1,-26.9,-15.8)"></rect><text id="v-6551" font-size="24px" y="0.8em" xml:space="preserve" text-anchor="middle" pointer-events="none" fill="#707070" font-family="Open Sans" font-weight="normal" transform="matrix(1,0,0,1,0,-10.2)"><tspan id="v-6553"  dy="0em" x="0">Uses</tspan></text></g><g  id="v-6554" label-idx="1" cursor="move" transform="translate(2533.982177734375, 778.207568359375)" style="opacity: 1;"><rect id="v-6556" fill="#ffffff" rx="3" ry="3" pointer-events="none" width="0" height="0" transform="matrix(1,0,0,1,0,0)"></rect><text id="v-6555" font-size="19px" y="0.8em" display="none" xml:space="preserve" text-anchor="middle" pointer-events="none" fill="#707070" font-family="Open Sans" font-weight="normal" transform="matrix(1,0,0,1,0,0)"><tspan id="v-6557"  dy="0em" x="0" style="fill-opacity: 0; stroke-opacity: 0;">-</tspan></text></g><g  id="v-6558" label-idx="2" cursor="move" transform="translate(2533.982177734375, 802.207568359375)" style="opacity: 1;"><rect id="v-6560" fill="#ffffff" rx="3" ry="3" pointer-events="none"  display="none" width="0" height="0" transform="matrix(1,0,0,1,0,0)"></rect><text id="v-6559" font-size="19px" y="0.8em" display="none" xml:space="preserve" text-anchor="middle" pointer-events="none" fill="#707070" font-family="Open Sans" font-weight="normal"  transform="matrix(1,0,0,1,0,0)"><tspan id="v-6561"  dy="0em" x="0" style="fill-opacity: 0; stroke-opacity: 0;">-</tspan></text></g></g><g  display="none"><g  transform="translate(2858, 608)" id="v-6546"><circle  idx="0" r="10"></circle><path  idx="0" d="M16,5.333c-7.732,0-14,4.701-14,10.5c0,1.982,0.741,3.833,2.016,5.414L2,25.667l5.613-1.441c2.339,1.317,5.237,2.107,8.387,2.107c7.732,0,14-4.701,14-10.5C30,10.034,23.732,5.333,16,5.333z" transform="translate(5, -33)"></path><path  idx="0" transform="scale(.8) translate(9.5, -37)" d="M24.778,21.419 19.276,15.917 24.777,10.415 21.949,7.585 16.447,13.087 10.945,7.585 8.117,10.415 13.618,15.917 8.116,21.419 10.946,24.248 16.447,18.746 21.948,24.248z"><title>Remove vertex.</title></path></g></g><g  id="v-6566" display="none"><g  id="v-6547"><path  end="source" d="M 26 0 L 0 13 L 26 26 z"></path></g><g  id="v-6548"><path  end="target" d="M 26 0 L 0 13 L 26 26 z"></path></g></g><g  id="v-6565" display="none"><g  id="v-6545" transform="translate(2973.315673828125, 541.9249877929688) "><g  event="remove"><circle r="11"></circle><path transform="scale(.8) translate(-16, -16)" d="M24.778,21.419 19.276,15.917 24.777,10.415 21.949,7.585 16.447,13.087 10.945,7.585 8.117,10.415 13.618,15.917 8.116,21.419 10.946,24.248 16.447,18.746 21.948,24.248z"></path><title>Remove link.</title></g><g  event="link:options"><circle r="11" transform="translate(25)"></circle><path fill="white" transform="scale(.55) translate(29, -16)" d="M31.229,17.736c0.064-0.571,0.104-1.148,0.104-1.736s-0.04-1.166-0.104-1.737l-4.377-1.557c-0.218-0.716-0.504-1.401-0.851-2.05l1.993-4.192c-0.725-0.91-1.549-1.734-2.458-2.459l-4.193,1.994c-0.647-0.347-1.334-0.632-2.049-0.849l-1.558-4.378C17.165,0.708,16.588,0.667,16,0.667s-1.166,0.041-1.737,0.105L12.707,5.15c-0.716,0.217-1.401,0.502-2.05,0.849L6.464,4.005C5.554,4.73,4.73,5.554,4.005,6.464l1.994,4.192c-0.347,0.648-0.632,1.334-0.849,2.05l-4.378,1.557C0.708,14.834,0.667,15.412,0.667,16s0.041,1.165,0.105,1.736l4.378,1.558c0.217,0.715,0.502,1.401,0.849,2.049l-1.994,4.193c0.725,0.909,1.549,1.733,2.459,2.458l4.192-1.993c0.648,0.347,1.334,0.633,2.05,0.851l1.557,4.377c0.571,0.064,1.148,0.104,1.737,0.104c0.588,0,1.165-0.04,1.736-0.104l1.558-4.377c0.715-0.218,1.399-0.504,2.049-0.851l4.193,1.993c0.909-0.725,1.733-1.549,2.458-2.458l-1.993-4.193c0.347-0.647,0.633-1.334,0.851-2.049L31.229,17.736zM16,20.871c-2.69,0-4.872-2.182-4.872-4.871c0-2.69,2.182-4.872,4.872-4.872c2.689,0,4.871,2.182,4.871,4.872C20.871,18.689,18.689,20.871,16,20.871z"></path><title>Link options.</title></g></g></g></g><g id="j_370"   ><path  stroke="#707070" id="v-6585" stroke-width="2" stroke-dasharray="30 30" fill="none" d="M 608 522 749 603 S 758 608 767 612 L 1565 954" style="opacity: 1;"></path><path  fill="black" stroke="black" transform="translate(608,522) scale(1,1) rotate(29.827087402343793)"></path><path  fill="#707070" stroke="#707070" id="v-6587" d="M 20 0 L 0 10 L 20 20 z" transform="translate(1579.0567995444826,971.1897087174939) scale(1,1) rotate(-156.77627563476562)" style="opacity: 1;"></path><path  id="v-6586" fill="none" d="M 608 522 749 603 S 758 608 767 612 L 1565 954" style=""></path><title ></title><g ><g  id="v-6573" label-idx="0" cursor="move" transform="translate(1082.0177001953125, 747.007568359375)" style="opacity: 1;"><rect id="v-6575" fill="#ffffff" rx="3" ry="3" stroke="#ffffff" stroke-width="20px" pointer-events="none" width="55.91777801513672" height="31.564173698425293" transform="matrix(1,0,0,1,-26.9,-15.8)"></rect><text id="v-6574" font-size="24px" y="0.8em" xml:space="preserve" text-anchor="middle" pointer-events="none" fill="#707070" font-family="Open Sans" font-weight="normal" transform="matrix(1,0,0,1,0,-10.2)"><tspan id="v-6576"  dy="0em" x="0">Uses</tspan></text></g><g  id="v-6577" label-idx="1" cursor="move" transform="translate(1082.0177001953125, 778.207568359375)" style="opacity: 1;"><rect id="v-6579" fill="#ffffff" rx="3" ry="3" pointer-events="none" width="0" height="0" transform="matrix(1,0,0,1,0,0)"></rect><text id="v-6578" font-size="19px" y="0.8em" display="none" xml:space="preserve" text-anchor="middle" pointer-events="none" fill="#707070" font-family="Open Sans" font-weight="normal" transform="matrix(1,0,0,1,0,0)"><tspan id="v-6580"  dy="0em" x="0" style="fill-opacity: 0; stroke-opacity: 0;">-</tspan></text></g><g  id="v-6581" label-idx="2" cursor="move" transform="translate(1082.0177001953125, 802.207568359375)" style="opacity: 1;"><rect id="v-6583" fill="#ffffff" rx="3" ry="3" pointer-events="none"  display="none" width="0" height="0" transform="matrix(1,0,0,1,0,0)"></rect><text id="v-6582" font-size="19px" y="0.8em" display="none" xml:space="preserve" text-anchor="middle" pointer-events="none" fill="#707070" font-family="Open Sans" font-weight="normal"  transform="matrix(1,0,0,1,0,0)"><tspan id="v-6584"  dy="0em" x="0" style="fill-opacity: 0; stroke-opacity: 0;">-</tspan></text></g></g><g  display="none"><g  transform="translate(758, 608)" id="v-6569"><circle  idx="0" r="10"></circle><path  idx="0" d="M16,5.333c-7.732,0-14,4.701-14,10.5c0,1.982,0.741,3.833,2.016,5.414L2,25.667l5.613-1.441c2.339,1.317,5.237,2.107,8.387,2.107c7.732,0,14-4.701,14-10.5C30,10.034,23.732,5.333,16,5.333z" transform="translate(5, -33)"></path><path  idx="0" transform="scale(.8) translate(9.5, -37)" d="M24.778,21.419 19.276,15.917 24.777,10.415 21.949,7.585 16.447,13.087 10.945,7.585 8.117,10.415 13.618,15.917 8.116,21.419 10.946,24.248 16.447,18.746 21.948,24.248z"><title>Remove vertex.</title></path></g></g><g  id="v-6589" display="none"><g  id="v-6570"><path  end="source" d="M 26 0 L 0 13 L 26 26 z"></path></g><g  id="v-6571"><path  end="target" d="M 26 0 L 0 13 L 26 26 z"></path></g></g><g  id="v-6588" display="none"><g  id="v-6568" transform="translate(642.6842041015625, 541.9249877929688) "><g  event="remove"><circle r="11"></circle><path transform="scale(.8) translate(-16, -16)" d="M24.778,21.419 19.276,15.917 24.777,10.415 21.949,7.585 16.447,13.087 10.945,7.585 8.117,10.415 13.618,15.917 8.116,21.419 10.946,24.248 16.447,18.746 21.948,24.248z"></path><title>Remove link.</title></g><g  event="link:options"><circle r="11" transform="translate(25)"></circle><path fill="white" transform="scale(.55) translate(29, -16)" d="M31.229,17.736c0.064-0.571,0.104-1.148,0.104-1.736s-0.04-1.166-0.104-1.737l-4.377-1.557c-0.218-0.716-0.504-1.401-0.851-2.05l1.993-4.192c-0.725-0.91-1.549-1.734-2.458-2.459l-4.193,1.994c-0.647-0.347-1.334-0.632-2.049-0.849l-1.558-4.378C17.165,0.708,16.588,0.667,16,0.667s-1.166,0.041-1.737,0.105L12.707,5.15c-0.716,0.217-1.401,0.502-2.05,0.849L6.464,4.005C5.554,4.73,4.73,5.554,4.005,6.464l1.994,4.192c-0.347,0.648-0.632,1.334-0.849,2.05l-4.378,1.557C0.708,14.834,0.667,15.412,0.667,16s0.041,1.165,0.105,1.736l4.378,1.558c0.217,0.715,0.502,1.401,0.849,2.049l-1.994,4.193c0.725,0.909,1.549,1.733,2.459,2.458l4.192-1.993c0.648,0.347,1.334,0.633,2.05,0.851l1.557,4.377c0.571,0.064,1.148,0.104,1.737,0.104c0.588,0,1.165-0.04,1.736-0.104l1.558-4.377c0.715-0.218,1.399-0.504,2.049-0.851l4.193,1.993c0.909-0.725,1.733-1.549,2.458-2.458l-1.993-4.193c0.347-0.647,0.633-1.334,0.851-2.049L31.229,17.736zM16,20.871c-2.69,0-4.872-2.182-4.872-4.871c0-2.69,2.182-4.872,4.872-4.872c2.689,0,4.871,2.182,4.871,4.872C20.871,18.689,18.689,20.871,16,20.871z"></path><title>Link options.</title></g></g></g></g><g id="j_371"   ><path  stroke="#707070" id="v-6607" stroke-width="2" stroke-dasharray="30 30" fill="none" d="M 1308 594 1631 894" style="opacity: 1;"></path><path  fill="black" stroke="black" transform="translate(1308,594) scale(1,1) rotate(42.89190673828125)"></path><path  fill="#707070" stroke="#707070" id="v-6609" d="M 20 0 L 0 10 L 20 20 z" transform="translate(1639.193800569993,915.3264119919977) scale(1,1) rotate(-137.10809326171875)" style="opacity: 1;"></path><path  id="v-6608" fill="none" d="M 1308 594 1631 894" style=""></path><title ></title><g ><g  id="v-6595" label-idx="0" cursor="move" transform="translate(1469.5, 744)" style="opacity: 1;"><rect id="v-6597" fill="#ffffff" rx="3" ry="3" stroke="#ffffff" stroke-width="20px" pointer-events="none" width="102.96993255615234" height="31.564173698425293" transform="matrix(1,0,0,1,-50.4,-15.8)"></rect><text id="v-6596" font-size="24px" y="0.8em" xml:space="preserve" text-anchor="middle" pointer-events="none" fill="#707070" font-family="Open Sans" font-weight="normal" transform="matrix(1,0,0,1,0,-10.2)"><tspan id="v-6598"  dy="0em" x="0">Manages</tspan></text></g><g  id="v-6599" label-idx="1" cursor="move" transform="translate(1469.5, 775.2)" style="opacity: 1;"><rect id="v-6601" fill="#ffffff" rx="3" ry="3" pointer-events="none" width="0" height="0" transform="matrix(1,0,0,1,0,0)"></rect><text id="v-6600" font-size="19px" y="0.8em" display="none" xml:space="preserve" text-anchor="middle" pointer-events="none" fill="#707070" font-family="Open Sans" font-weight="normal" transform="matrix(1,0,0,1,0,0)"><tspan id="v-6602"  dy="0em" x="0" style="fill-opacity: 0; stroke-opacity: 0;">-</tspan></text></g><g  id="v-6603" label-idx="2" cursor="move" transform="translate(1469.5, 799.2)" style="opacity: 1;"><rect id="v-6605" fill="#ffffff" rx="3" ry="3" pointer-events="none"  display="none" width="0" height="0" transform="matrix(1,0,0,1,0,0)"></rect><text id="v-6604" font-size="19px" y="0.8em" display="none" xml:space="preserve" text-anchor="middle" pointer-events="none" fill="#707070" font-family="Open Sans" font-weight="normal"  transform="matrix(1,0,0,1,0,0)"><tspan id="v-6606"  dy="0em" x="0" style="fill-opacity: 0; stroke-opacity: 0;">-</tspan></text></g></g><g  display="none"></g><g  id="v-6611" display="none"><g  id="v-6592"><path  end="source" d="M 26 0 L 0 13 L 26 26 z"></path></g><g  id="v-6593"><path  end="target" d="M 26 0 L 0 13 L 26 26 z"></path></g></g><g  id="v-6610" display="none"><g  id="v-6591" transform="translate(1337.3084716796875, 621.2215576171875) "><g  event="remove"><circle r="11"></circle><path transform="scale(.8) translate(-16, -16)" d="M24.778,21.419 19.276,15.917 24.777,10.415 21.949,7.585 16.447,13.087 10.945,7.585 8.117,10.415 13.618,15.917 8.116,21.419 10.946,24.248 16.447,18.746 21.948,24.248z"></path><title>Remove link.</title></g><g  event="link:options"><circle r="11" transform="translate(25)"></circle><path fill="white" transform="scale(.55) translate(29, -16)" d="M31.229,17.736c0.064-0.571,0.104-1.148,0.104-1.736s-0.04-1.166-0.104-1.737l-4.377-1.557c-0.218-0.716-0.504-1.401-0.851-2.05l1.993-4.192c-0.725-0.91-1.549-1.734-2.458-2.459l-4.193,1.994c-0.647-0.347-1.334-0.632-2.049-0.849l-1.558-4.378C17.165,0.708,16.588,0.667,16,0.667s-1.166,0.041-1.737,0.105L12.707,5.15c-0.716,0.217-1.401,0.502-2.05,0.849L6.464,4.005C5.554,4.73,4.73,5.554,4.005,6.464l1.994,4.192c-0.347,0.648-0.632,1.334-0.849,2.05l-4.378,1.557C0.708,14.834,0.667,15.412,0.667,16s0.041,1.165,0.105,1.736l4.378,1.558c0.217,0.715,0.502,1.401,0.849,2.049l-1.994,4.193c0.725,0.909,1.549,1.733,2.459,2.458l4.192-1.993c0.648,0.347,1.334,0.633,2.05,0.851l1.557,4.377c0.571,0.064,1.148,0.104,1.737,0.104c0.588,0,1.165-0.04,1.736-0.104l1.558-4.377c0.715-0.218,1.399-0.504,2.049-0.851l4.193,1.993c0.909-0.725,1.733-1.549,2.458-2.458l-1.993-4.193c0.347-0.647,0.633-1.334,0.851-2.049L31.229,17.736zM16,20.871c-2.69,0-4.872-2.182-4.872-4.871c0-2.69,2.182-4.872,4.872-4.872c2.689,0,4.871,2.182,4.871,4.872C20.871,18.689,18.689,20.871,16,20.871z"></path><title>Link options.</title></g></g></g></g></g><defs id="v-4"></defs></svg>