<svg xmlns="http://www.w3.org/2000/svg" xmlns:xlink="http://www.w3.org/1999/xlink" version="1.1" viewBox="0 0 3616 1416" style="background: #ffffff"><g id="v-3"  transform="matrix(1,0,0,1,0,0)"><g id="j_231"    transform="translate(20,1371)"><g id="v-4219"><text  id="v-4220" font-size="22px" y="0.8em" xml:space="preserve" font-weight="normal" text-anchor="start" fill="#aaaaaa" pointer-events="none" font-family="Open Sans" transform="matrix(1,0,0,1,0,0)"><tspan id="v-4221"  dy="0em" x="0">pátek 28. října 2022 15:10 Středoevropský letní čas</tspan></text></g></g><g id="j_230"    transform="translate(20,1325)"><g id="v-4215"><text  id="v-4216" font-size="36px" y="0.8em" xml:space="preserve" font-weight="normal" text-anchor="start" fill="#000000" pointer-events="none" font-family="Open Sans" transform="matrix(1,0,0,1,0,0)"><tspan id="v-4217"  dy="0em" x="0">[System Context] Patient Monitor Control System</tspan></text></g></g><g id="j_219"    transform="translate(208,208)" style=""><g  id="v-4003" style="opacity: 1;"><rect  x="0" y="160" width="400" height="240" rx="70" id="v-4005" stroke="#002ee6" stroke-width="2" pointer-events="visiblePainted" fill="#0033ff"></rect><circle  cx="200" cy="88.88888888888889" r="88.88888888888889" id="v-4004" stroke="#002ee6" stroke-width="2" pointer-events="visiblePainted" fill="#0033ff"></circle><line  x1="80" y1="266.6666666666667" x2="80" y2="400" id="v-4011" stroke="#002ee6" stroke-width="2"></line><line  x1="320" y1="266.6666666666667" x2="320" y2="400" id="v-4012" stroke="#002ee6" stroke-width="2"></line><text  id="v-4006" font-size="34px" y="0.8em" xml:space="preserve" font-weight="bold" text-anchor="middle" pointer-events="visible" font-family="Open Sans" fill="#ffffff" transform="matrix(1,0,0,1,200,205)"><tspan id="v-4013"  dy="0em" x="0">Technician</tspan></text><text  id="v-4007" font-size="19px" y="0.8em" xml:space="preserve" text-anchor="middle" font-family="Open Sans" fill="#ffffff" transform="matrix(1,0,0,1,200,247.5)"><tspan id="v-4014"  dy="0em" x="0">[Person]</tspan></text><text  id="v-4008" font-size="24px" y="0.8em" xml:space="preserve" text-anchor="middle" font-family="Open Sans" fill="#ffffff" transform="matrix(1,0,0,1,200,295)"><tspan id="v-4015"  dy="0em" x="0">Technicians responsible for</tspan><tspan id="v-4016"  dy="1.2em" x="0">devices maintenance</tspan></text><text  id="v-4009" font-weight="bold" text-anchor="middle" font-family="Open Sans" fill="#ffffff" font-size="24" transform="matrix(1,0,0,1,200,371.2)" display="none"></text><image  id="v-4010"></image></g></g><g id="j_220"    transform="translate(1583,908)" style="" ><g  id="v-4022" style="opacity: 1;"><rect  id="v-4023" rx="1" ry="1" stroke="#3b82dd" stroke-width="2" pointer-events="visiblePainted" fill="#4290f5" width="450" height="300"></rect><text  id="v-4024" font-size="34" y="0.8em" xml:space="preserve" font-weight="bold" text-anchor="middle" pointer-events="visible" font-family="Open Sans" fill="#000000" transform="matrix(1,0,0,1,225,53.8)"><tspan id="v-4029"  dy="0em" x="0">Patient Monitor Control</tspan><tspan id="v-4030"  dy="1.2em" x="0">System</tspan></text><text  id="v-4025" font-size="19" y="0.8em" xml:space="preserve" text-anchor="middle" font-family="Open Sans" fill="#000000" transform="matrix(1,0,0,1,225,138.8)"><tspan id="v-4031"  dy="0em" x="0">[Software System]</tspan></text><text  id="v-4026" font-size="24" y="0.8em" xml:space="preserve" text-anchor="middle" font-family="Open Sans" fill="#000000" transform="matrix(1,0,0,1,225,186.3)"><tspan id="v-4032"  dy="0em" x="0">System for monitoring patients in</tspan><tspan id="v-4033"  dy="1.2em" x="0">hospital</tspan></text><text  id="v-4027" font-weight="bold" text-anchor="middle" font-family="Open Sans" fill="#000000" font-size="24" transform="matrix(1,0,0,1,225,270)" y="0.8em" xml:space="preserve" display="none"><tspan id="v-4034"  dy="0em" x="0">+</tspan></text><image  id="v-4028"></image></g></g><g id="j_221"    transform="translate(908,208)" style=""><g  id="v-4038" style="opacity: 1;"><rect  x="0" y="160" width="400" height="240" rx="70" id="v-4040" stroke="#002ee6" stroke-width="2" pointer-events="visiblePainted" fill="#0033ff"></rect><circle  cx="200" cy="88.88888888888889" r="88.88888888888889" id="v-4039" stroke="#002ee6" stroke-width="2" pointer-events="visiblePainted" fill="#0033ff"></circle><line  x1="80" y1="266.6666666666667" x2="80" y2="400" id="v-4046" stroke="#002ee6" stroke-width="2"></line><line  x1="320" y1="266.6666666666667" x2="320" y2="400" id="v-4047" stroke="#002ee6" stroke-width="2"></line><text  id="v-4041" font-size="34px" y="0.8em" xml:space="preserve" font-weight="bold" text-anchor="middle" pointer-events="visible" font-family="Open Sans" fill="#ffffff" transform="matrix(1,0,0,1,200,205)"><tspan id="v-4048"  dy="0em" x="0">Doctor</tspan></text><text  id="v-4042" font-size="19px" y="0.8em" xml:space="preserve" text-anchor="middle" font-family="Open Sans" fill="#ffffff" transform="matrix(1,0,0,1,200,247.5)"><tspan id="v-4049"  dy="0em" x="0">[Person]</tspan></text><text  id="v-4043" font-size="24px" y="0.8em" xml:space="preserve" text-anchor="middle" font-family="Open Sans" fill="#ffffff" transform="matrix(1,0,0,1,200,295)"><tspan id="v-4050"  dy="0em" x="0">Hospital doctor responsible i.e.</tspan><tspan id="v-4051"  dy="1.2em" x="0">for drug prescription</tspan></text><text  id="v-4044" font-weight="bold" text-anchor="middle" font-family="Open Sans" fill="#ffffff" font-size="24" transform="matrix(1,0,0,1,200,371.2)" display="none"></text><image  id="v-4045"></image></g></g><g id="j_222"    transform="translate(1608,208)" style=""><g  id="v-4055" style="opacity: 1;"><rect  x="0" y="160" width="400" height="240" rx="70" id="v-4057" stroke="#002ee6" stroke-width="2" pointer-events="visiblePainted" fill="#0033ff"></rect><circle  cx="200" cy="88.88888888888889" r="88.88888888888889" id="v-4056" stroke="#002ee6" stroke-width="2" pointer-events="visiblePainted" fill="#0033ff"></circle><line  x1="80" y1="266.6666666666667" x2="80" y2="400" id="v-4063" stroke="#002ee6" stroke-width="2"></line><line  x1="320" y1="266.6666666666667" x2="320" y2="400" id="v-4064" stroke="#002ee6" stroke-width="2"></line><text  id="v-4058" font-size="34px" y="0.8em" xml:space="preserve" font-weight="bold" text-anchor="middle" pointer-events="visible" font-family="Open Sans" fill="#ffffff" transform="matrix(1,0,0,1,200,205)"><tspan id="v-4065"  dy="0em" x="0">Nurse</tspan></text><text  id="v-4059" font-size="19px" y="0.8em" xml:space="preserve" text-anchor="middle" font-family="Open Sans" fill="#ffffff" transform="matrix(1,0,0,1,200,247.5)"><tspan id="v-4066"  dy="0em" x="0">[Person]</tspan></text><text  id="v-4060" font-size="24px" y="0.8em" xml:space="preserve" text-anchor="middle" font-family="Open Sans" fill="#ffffff" transform="matrix(1,0,0,1,200,295)"><tspan id="v-4067"  dy="0em" x="0">Nurse responsible for patient</tspan><tspan id="v-4068"  dy="1.2em" x="0">wellbeing</tspan></text><text  id="v-4061" font-weight="bold" text-anchor="middle" font-family="Open Sans" fill="#ffffff" font-size="24" transform="matrix(1,0,0,1,200,371.2)" display="none"></text><image  id="v-4062"></image></g></g><g id="j_223"    transform="translate(2308,208)" style=""><g  id="v-4072" style="opacity: 1;"><rect  x="0" y="160" width="400" height="240" rx="70" id="v-4074" stroke="#002ee6" stroke-width="2" pointer-events="visiblePainted" fill="#0033ff"></rect><circle  cx="200" cy="88.88888888888889" r="88.88888888888889" id="v-4073" stroke="#002ee6" stroke-width="2" pointer-events="visiblePainted" fill="#0033ff"></circle><line  x1="80" y1="266.6666666666667" x2="80" y2="400" id="v-4080" stroke="#002ee6" stroke-width="2"></line><line  x1="320" y1="266.6666666666667" x2="320" y2="400" id="v-4081" stroke="#002ee6" stroke-width="2"></line><text  id="v-4075" font-size="34px" y="0.8em" xml:space="preserve" font-weight="bold" text-anchor="middle" pointer-events="visible" font-family="Open Sans" fill="#ffffff" transform="matrix(1,0,0,1,200,220)"><tspan id="v-4082"  dy="0em" x="0">Patient</tspan></text><text  id="v-4076" font-size="19px" y="0.8em" xml:space="preserve" text-anchor="middle" font-family="Open Sans" fill="#ffffff" transform="matrix(1,0,0,1,200,262.5)"><tspan id="v-4083"  dy="0em" x="0">[Person]</tspan></text><text  id="v-4077" font-size="24px" y="0.8em" xml:space="preserve" text-anchor="middle" font-family="Open Sans" fill="#ffffff" transform="matrix(1,0,0,1,200,310)"><tspan id="v-4084"  dy="0em" x="0">Patient lying in hospital bed</tspan></text><text  id="v-4078" font-weight="bold" text-anchor="middle" font-family="Open Sans" fill="#ffffff" font-size="24" transform="matrix(1,0,0,1,200,371.2)" display="none"></text><image  id="v-4079"></image></g></g><g id="j_224"    transform="translate(3008,208)" style=""><g  id="v-4088" style="opacity: 1;"><rect  x="0" y="160" width="400" height="240" rx="70" id="v-4090" stroke="#002ee6" stroke-width="2" pointer-events="visiblePainted" fill="#0033ff"></rect><circle  cx="200" cy="88.88888888888889" r="88.88888888888889" id="v-4089" stroke="#002ee6" stroke-width="2" pointer-events="visiblePainted" fill="#0033ff"></circle><line  x1="80" y1="266.6666666666667" x2="80" y2="400" id="v-4096" stroke="#002ee6" stroke-width="2"></line><line  x1="320" y1="266.6666666666667" x2="320" y2="400" id="v-4097" stroke="#002ee6" stroke-width="2"></line><text  id="v-4091" font-size="34px" y="0.8em" xml:space="preserve" font-weight="bold" text-anchor="middle" pointer-events="visible" font-family="Open Sans" fill="#ffffff" transform="matrix(1,0,0,1,200,205)"><tspan id="v-4098"  dy="0em" x="0">IT staff</tspan></text><text  id="v-4092" font-size="19px" y="0.8em" xml:space="preserve" text-anchor="middle" font-family="Open Sans" fill="#ffffff" transform="matrix(1,0,0,1,200,247.5)"><tspan id="v-4099"  dy="0em" x="0">[Person]</tspan></text><text  id="v-4093" font-size="24px" y="0.8em" xml:space="preserve" text-anchor="middle" font-family="Open Sans" fill="#ffffff" transform="matrix(1,0,0,1,200,295)"><tspan id="v-4100"  dy="0em" x="0">People responsible for IT</tspan><tspan id="v-4101"  dy="1.2em" x="0">infrastructure</tspan></text><text  id="v-4094" font-weight="bold" text-anchor="middle" font-family="Open Sans" fill="#ffffff" font-size="24" transform="matrix(1,0,0,1,200,371.2)" display="none"></text><image  id="v-4095"></image></g></g><g id="j_225"   ><path  stroke="#707070" id="v-4119" stroke-width="2" stroke-dasharray="30 30" fill="none" d="M 1808 608 1808 888" style="opacity: 1;"></path><path  fill="black" stroke="black" transform="translate(1808,608) scale(1,1) rotate(-270)"></path><path  fill="#707070" stroke="#707070" id="v-4121" d="M 20 0 L 0 10 L 20 20 z" transform="translate(1798,908) scale(1,1) rotate(-90)" style="opacity: 1;"></path><path  id="v-4120" fill="none" d="M 1808 608 1808 888" style=""></path><title ></title><g ><g  id="v-4107" label-idx="0" cursor="move" transform="translate(1808, 748)" style="opacity: 1;"><rect id="v-4109" fill="#ffffff" rx="3" ry="3" stroke="#ffffff" stroke-width="20px" pointer-events="none" width="55.91777801513672" height="31.564173698425293" transform="matrix(1,0,0,1,-26.9,-15.8)"></rect><text id="v-4108" font-size="24px" y="0.8em" xml:space="preserve" text-anchor="middle" pointer-events="none" fill="#707070" font-family="Open Sans" font-weight="normal" transform="matrix(1,0,0,1,0,-10.2)"><tspan id="v-4110"  dy="0em" x="0">Uses</tspan></text></g><g  id="v-4111" label-idx="1" cursor="move" transform="translate(1808, 779.2)" style="opacity: 1;"><rect id="v-4113" fill="#ffffff" rx="3" ry="3" pointer-events="none" width="0" height="0" transform="matrix(1,0,0,1,0,0)"></rect><text id="v-4112" font-size="19px" y="0.8em" display="none" xml:space="preserve" text-anchor="middle" pointer-events="none" fill="#707070" font-family="Open Sans" font-weight="normal" transform="matrix(1,0,0,1,0,0)"><tspan id="v-4114"  dy="0em" x="0" style="fill-opacity: 0; stroke-opacity: 0;">-</tspan></text></g><g  id="v-4115" label-idx="2" cursor="move" transform="translate(1808, 803.2)" style="opacity: 1;"><rect id="v-4117" fill="#ffffff" rx="3" ry="3" pointer-events="none"  display="none" width="0" height="0" transform="matrix(1,0,0,1,0,0)"></rect><text id="v-4116" font-size="19px" y="0.8em" display="none" xml:space="preserve" text-anchor="middle" pointer-events="none" fill="#707070" font-family="Open Sans" font-weight="normal"  transform="matrix(1,0,0,1,0,0)"><tspan id="v-4118"  dy="0em" x="0" style="fill-opacity: 0; stroke-opacity: 0;">-</tspan></text></g></g><g  display="none"></g><g  id="v-4123" display="none"><g  id="v-4104"><path  end="source" d="M 26 0 L 0 13 L 26 26 z"></path></g><g  id="v-4105"><path  end="target" d="M 26 0 L 0 13 L 26 26 z"></path></g></g><g  id="v-4122" display="none"><g  id="v-4103" transform="translate(1808, 648) "><g  event="remove"><circle r="11"></circle><path transform="scale(.8) translate(-16, -16)" d="M24.778,21.419 19.276,15.917 24.777,10.415 21.949,7.585 16.447,13.087 10.945,7.585 8.117,10.415 13.618,15.917 8.116,21.419 10.946,24.248 16.447,18.746 21.948,24.248z"></path><title>Remove link.</title></g><g  event="link:options"><circle r="11" transform="translate(25)"></circle><path fill="white" transform="scale(.55) translate(29, -16)" d="M31.229,17.736c0.064-0.571,0.104-1.148,0.104-1.736s-0.04-1.166-0.104-1.737l-4.377-1.557c-0.218-0.716-0.504-1.401-0.851-2.05l1.993-4.192c-0.725-0.91-1.549-1.734-2.458-2.459l-4.193,1.994c-0.647-0.347-1.334-0.632-2.049-0.849l-1.558-4.378C17.165,0.708,16.588,0.667,16,0.667s-1.166,0.041-1.737,0.105L12.707,5.15c-0.716,0.217-1.401,0.502-2.05,0.849L6.464,4.005C5.554,4.73,4.73,5.554,4.005,6.464l1.994,4.192c-0.347,0.648-0.632,1.334-0.849,2.05l-4.378,1.557C0.708,14.834,0.667,15.412,0.667,16s0.041,1.165,0.105,1.736l4.378,1.558c0.217,0.715,0.502,1.401,0.849,2.049l-1.994,4.193c0.725,0.909,1.549,1.733,2.459,2.458l4.192-1.993c0.648,0.347,1.334,0.633,2.05,0.851l1.557,4.377c0.571,0.064,1.148,0.104,1.737,0.104c0.588,0,1.165-0.04,1.736-0.104l1.558-4.377c0.715-0.218,1.399-0.504,2.049-0.851l4.193,1.993c0.909-0.725,1.733-1.549,2.458-2.458l-1.993-4.193c0.347-0.647,0.633-1.334,0.851-2.049L31.229,17.736zM16,20.871c-2.69,0-4.872-2.182-4.872-4.871c0-2.69,2.182-4.872,4.872-4.872c2.689,0,4.871,2.182,4.871,4.872C20.871,18.689,18.689,20.871,16,20.871z"></path><title>Link options.</title></g></g></g></g><g id="j_226"   ><path  stroke="#707070" id="v-4141" stroke-width="2" stroke-dasharray="30 30" fill="none" d="M 2308 594 1985 894" style="opacity: 1;"></path><path  fill="black" stroke="black" transform="translate(2308,594) scale(1,1) rotate(-222.89190673828125)"></path><path  fill="#707070" stroke="#707070" id="v-4143" d="M 20 0 L 0 10 L 20 20 z" transform="translate(1963.193851714513,900.6736301296995) scale(1,1) rotate(-42.89190292358398)" style="opacity: 1;"></path><path  id="v-4142" fill="none" d="M 2308 594 1985 894" style=""></path><title ></title><g ><g  id="v-4129" label-idx="0" cursor="move" transform="translate(2146.5, 744)" style="opacity: 1;"><rect id="v-4131" fill="#ffffff" rx="3" ry="3" stroke="#ffffff" stroke-width="20px" pointer-events="none" width="55.91777801513672" height="31.564173698425293" transform="matrix(1,0,0,1,-26.9,-15.8)"></rect><text id="v-4130" font-size="24px" y="0.8em" xml:space="preserve" text-anchor="middle" pointer-events="none" fill="#707070" font-family="Open Sans" font-weight="normal" transform="matrix(1,0,0,1,0,-10.2)"><tspan id="v-4132"  dy="0em" x="0">Uses</tspan></text></g><g  id="v-4133" label-idx="1" cursor="move" transform="translate(2146.5, 775.2)" style="opacity: 1;"><rect id="v-4135" fill="#ffffff" rx="3" ry="3" pointer-events="none" width="0" height="0" transform="matrix(1,0,0,1,0,0)"></rect><text id="v-4134" font-size="19px" y="0.8em" display="none" xml:space="preserve" text-anchor="middle" pointer-events="none" fill="#707070" font-family="Open Sans" font-weight="normal" transform="matrix(1,0,0,1,0,0)"><tspan id="v-4136"  dy="0em" x="0" style="fill-opacity: 0; stroke-opacity: 0;">-</tspan></text></g><g  id="v-4137" label-idx="2" cursor="move" transform="translate(2146.5, 799.2)" style="opacity: 1;"><rect id="v-4139" fill="#ffffff" rx="3" ry="3" pointer-events="none"  display="none" width="0" height="0" transform="matrix(1,0,0,1,0,0)"></rect><text id="v-4138" font-size="19px" y="0.8em" display="none" xml:space="preserve" text-anchor="middle" pointer-events="none" fill="#707070" font-family="Open Sans" font-weight="normal"  transform="matrix(1,0,0,1,0,0)"><tspan id="v-4140"  dy="0em" x="0" style="fill-opacity: 0; stroke-opacity: 0;">-</tspan></text></g></g><g  display="none"></g><g  id="v-4145" display="none"><g  id="v-4126"><path  end="source" d="M 26 0 L 0 13 L 26 26 z"></path></g><g  id="v-4127"><path  end="target" d="M 26 0 L 0 13 L 26 26 z"></path></g></g><g  id="v-4144" display="none"><g  id="v-4125" transform="translate(2278.69140625, 621.2215576171875) "><g  event="remove"><circle r="11"></circle><path transform="scale(.8) translate(-16, -16)" d="M24.778,21.419 19.276,15.917 24.777,10.415 21.949,7.585 16.447,13.087 10.945,7.585 8.117,10.415 13.618,15.917 8.116,21.419 10.946,24.248 16.447,18.746 21.948,24.248z"></path><title>Remove link.</title></g><g  event="link:options"><circle r="11" transform="translate(25)"></circle><path fill="white" transform="scale(.55) translate(29, -16)" d="M31.229,17.736c0.064-0.571,0.104-1.148,0.104-1.736s-0.04-1.166-0.104-1.737l-4.377-1.557c-0.218-0.716-0.504-1.401-0.851-2.05l1.993-4.192c-0.725-0.91-1.549-1.734-2.458-2.459l-4.193,1.994c-0.647-0.347-1.334-0.632-2.049-0.849l-1.558-4.378C17.165,0.708,16.588,0.667,16,0.667s-1.166,0.041-1.737,0.105L12.707,5.15c-0.716,0.217-1.401,0.502-2.05,0.849L6.464,4.005C5.554,4.73,4.73,5.554,4.005,6.464l1.994,4.192c-0.347,0.648-0.632,1.334-0.849,2.05l-4.378,1.557C0.708,14.834,0.667,15.412,0.667,16s0.041,1.165,0.105,1.736l4.378,1.558c0.217,0.715,0.502,1.401,0.849,2.049l-1.994,4.193c0.725,0.909,1.549,1.733,2.459,2.458l4.192-1.993c0.648,0.347,1.334,0.633,2.05,0.851l1.557,4.377c0.571,0.064,1.148,0.104,1.737,0.104c0.588,0,1.165-0.04,1.736-0.104l1.558-4.377c0.715-0.218,1.399-0.504,2.049-0.851l4.193,1.993c0.909-0.725,1.733-1.549,2.458-2.458l-1.993-4.193c0.347-0.647,0.633-1.334,0.851-2.049L31.229,17.736zM16,20.871c-2.69,0-4.872-2.182-4.872-4.871c0-2.69,2.182-4.872,4.872-4.872c2.689,0,4.871,2.182,4.871,4.872C20.871,18.689,18.689,20.871,16,20.871z"></path><title>Link options.</title></g></g></g></g><g id="j_227"   ><path  stroke="#707070" id="v-4164" stroke-width="2" stroke-dasharray="30 30" fill="none" d="M 3008 522 2867 603 S 2858 608 2849 612 L 2051 954" style="opacity: 1;"></path><path  fill="black" stroke="black" transform="translate(3008,522) scale(1,1) rotate(-209.82708740234375)"></path><path  fill="#707070" stroke="#707070" id="v-4166" d="M 20 0 L 0 10 L 20 20 z" transform="translate(2029.0567505448303,952.8102676339626) scale(1,1) rotate(-23.223731994628906)" style="opacity: 1;"></path><path  id="v-4165" fill="none" d="M 3008 522 2867 603 S 2858 608 2849 612 L 2051 954" style=""></path><title ></title><g ><g  id="v-4152" label-idx="0" cursor="move" transform="translate(2533.982177734375, 747.007568359375)" style="opacity: 1;"><rect id="v-4154" fill="#ffffff" rx="3" ry="3" stroke="#ffffff" stroke-width="20px" pointer-events="none" width="102.96993255615234" height="31.564173698425293" transform="matrix(1,0,0,1,-50.4,-15.8)"></rect><text id="v-4153" font-size="24px" y="0.8em" xml:space="preserve" text-anchor="middle" pointer-events="none" fill="#707070" font-family="Open Sans" font-weight="normal" transform="matrix(1,0,0,1,0,-10.2)"><tspan id="v-4155"  dy="0em" x="0">Manages</tspan></text></g><g  id="v-4156" label-idx="1" cursor="move" transform="translate(2533.982177734375, 778.207568359375)" style="opacity: 1;"><rect id="v-4158" fill="#ffffff" rx="3" ry="3" pointer-events="none" width="0" height="0" transform="matrix(1,0,0,1,0,0)"></rect><text id="v-4157" font-size="19px" y="0.8em" display="none" xml:space="preserve" text-anchor="middle" pointer-events="none" fill="#707070" font-family="Open Sans" font-weight="normal" transform="matrix(1,0,0,1,0,0)"><tspan id="v-4159"  dy="0em" x="0" style="fill-opacity: 0; stroke-opacity: 0;">-</tspan></text></g><g  id="v-4160" label-idx="2" cursor="move" transform="translate(2533.982177734375, 802.207568359375)" style="opacity: 1;"><rect id="v-4162" fill="#ffffff" rx="3" ry="3" pointer-events="none"  display="none" width="0" height="0" transform="matrix(1,0,0,1,0,0)"></rect><text id="v-4161" font-size="19px" y="0.8em" display="none" xml:space="preserve" text-anchor="middle" pointer-events="none" fill="#707070" font-family="Open Sans" font-weight="normal"  transform="matrix(1,0,0,1,0,0)"><tspan id="v-4163"  dy="0em" x="0" style="fill-opacity: 0; stroke-opacity: 0;">-</tspan></text></g></g><g  display="none"><g  transform="translate(2858, 608)" id="v-4148"><circle  idx="0" r="10"></circle><path  idx="0" d="M16,5.333c-7.732,0-14,4.701-14,10.5c0,1.982,0.741,3.833,2.016,5.414L2,25.667l5.613-1.441c2.339,1.317,5.237,2.107,8.387,2.107c7.732,0,14-4.701,14-10.5C30,10.034,23.732,5.333,16,5.333z" transform="translate(5, -33)"></path><path  idx="0" transform="scale(.8) translate(9.5, -37)" d="M24.778,21.419 19.276,15.917 24.777,10.415 21.949,7.585 16.447,13.087 10.945,7.585 8.117,10.415 13.618,15.917 8.116,21.419 10.946,24.248 16.447,18.746 21.948,24.248z"><title>Remove vertex.</title></path></g></g><g  id="v-4168" display="none"><g  id="v-4149"><path  end="source" d="M 26 0 L 0 13 L 26 26 z"></path></g><g  id="v-4150"><path  end="target" d="M 26 0 L 0 13 L 26 26 z"></path></g></g><g  id="v-4167" display="none"><g  id="v-4147" transform="translate(2973.315673828125, 541.9249877929688) "><g  event="remove"><circle r="11"></circle><path transform="scale(.8) translate(-16, -16)" d="M24.778,21.419 19.276,15.917 24.777,10.415 21.949,7.585 16.447,13.087 10.945,7.585 8.117,10.415 13.618,15.917 8.116,21.419 10.946,24.248 16.447,18.746 21.948,24.248z"></path><title>Remove link.</title></g><g  event="link:options"><circle r="11" transform="translate(25)"></circle><path fill="white" transform="scale(.55) translate(29, -16)" d="M31.229,17.736c0.064-0.571,0.104-1.148,0.104-1.736s-0.04-1.166-0.104-1.737l-4.377-1.557c-0.218-0.716-0.504-1.401-0.851-2.05l1.993-4.192c-0.725-0.91-1.549-1.734-2.458-2.459l-4.193,1.994c-0.647-0.347-1.334-0.632-2.049-0.849l-1.558-4.378C17.165,0.708,16.588,0.667,16,0.667s-1.166,0.041-1.737,0.105L12.707,5.15c-0.716,0.217-1.401,0.502-2.05,0.849L6.464,4.005C5.554,4.73,4.73,5.554,4.005,6.464l1.994,4.192c-0.347,0.648-0.632,1.334-0.849,2.05l-4.378,1.557C0.708,14.834,0.667,15.412,0.667,16s0.041,1.165,0.105,1.736l4.378,1.558c0.217,0.715,0.502,1.401,0.849,2.049l-1.994,4.193c0.725,0.909,1.549,1.733,2.459,2.458l4.192-1.993c0.648,0.347,1.334,0.633,2.05,0.851l1.557,4.377c0.571,0.064,1.148,0.104,1.737,0.104c0.588,0,1.165-0.04,1.736-0.104l1.558-4.377c0.715-0.218,1.399-0.504,2.049-0.851l4.193,1.993c0.909-0.725,1.733-1.549,2.458-2.458l-1.993-4.193c0.347-0.647,0.633-1.334,0.851-2.049L31.229,17.736zM16,20.871c-2.69,0-4.872-2.182-4.872-4.871c0-2.69,2.182-4.872,4.872-4.872c2.689,0,4.871,2.182,4.871,4.872C20.871,18.689,18.689,20.871,16,20.871z"></path><title>Link options.</title></g></g></g></g><g id="j_228"   ><path  stroke="#707070" id="v-4187" stroke-width="2" stroke-dasharray="30 30" fill="none" d="M 608 522 749 603 S 758 608 767 612 L 1565 954" style="opacity: 1;"></path><path  fill="black" stroke="black" transform="translate(608,522) scale(1,1) rotate(29.827087402343793)"></path><path  fill="#707070" stroke="#707070" id="v-4189" d="M 20 0 L 0 10 L 20 20 z" transform="translate(1579.0567995444826,971.1897087174939) scale(1,1) rotate(-156.77627563476562)" style="opacity: 1;"></path><path  id="v-4188" fill="none" d="M 608 522 749 603 S 758 608 767 612 L 1565 954" style=""></path><title ></title><g ><g  id="v-4175" label-idx="0" cursor="move" transform="translate(1082.0177001953125, 747.007568359375)" style="opacity: 1;"><rect id="v-4177" fill="#ffffff" rx="3" ry="3" stroke="#ffffff" stroke-width="20px" pointer-events="none" width="102.96993255615234" height="31.564173698425293" transform="matrix(1,0,0,1,-50.4,-15.8)"></rect><text id="v-4176" font-size="24px" y="0.8em" xml:space="preserve" text-anchor="middle" pointer-events="none" fill="#707070" font-family="Open Sans" font-weight="normal" transform="matrix(1,0,0,1,0,-10.2)"><tspan id="v-4178"  dy="0em" x="0">Manages</tspan></text></g><g  id="v-4179" label-idx="1" cursor="move" transform="translate(1082.0177001953125, 778.207568359375)" style="opacity: 1;"><rect id="v-4181" fill="#ffffff" rx="3" ry="3" pointer-events="none" width="0" height="0" transform="matrix(1,0,0,1,0,0)"></rect><text id="v-4180" font-size="19px" y="0.8em" display="none" xml:space="preserve" text-anchor="middle" pointer-events="none" fill="#707070" font-family="Open Sans" font-weight="normal" transform="matrix(1,0,0,1,0,0)"><tspan id="v-4182"  dy="0em" x="0" style="fill-opacity: 0; stroke-opacity: 0;">-</tspan></text></g><g  id="v-4183" label-idx="2" cursor="move" transform="translate(1082.0177001953125, 802.207568359375)" style="opacity: 1;"><rect id="v-4185" fill="#ffffff" rx="3" ry="3" pointer-events="none"  display="none" width="0" height="0" transform="matrix(1,0,0,1,0,0)"></rect><text id="v-4184" font-size="19px" y="0.8em" display="none" xml:space="preserve" text-anchor="middle" pointer-events="none" fill="#707070" font-family="Open Sans" font-weight="normal"  transform="matrix(1,0,0,1,0,0)"><tspan id="v-4186"  dy="0em" x="0" style="fill-opacity: 0; stroke-opacity: 0;">-</tspan></text></g></g><g  display="none"><g  transform="translate(758, 608)" id="v-4171"><circle  idx="0" r="10"></circle><path  idx="0" d="M16,5.333c-7.732,0-14,4.701-14,10.5c0,1.982,0.741,3.833,2.016,5.414L2,25.667l5.613-1.441c2.339,1.317,5.237,2.107,8.387,2.107c7.732,0,14-4.701,14-10.5C30,10.034,23.732,5.333,16,5.333z" transform="translate(5, -33)"></path><path  idx="0" transform="scale(.8) translate(9.5, -37)" d="M24.778,21.419 19.276,15.917 24.777,10.415 21.949,7.585 16.447,13.087 10.945,7.585 8.117,10.415 13.618,15.917 8.116,21.419 10.946,24.248 16.447,18.746 21.948,24.248z"><title>Remove vertex.</title></path></g></g><g  id="v-4191" display="none"><g  id="v-4172"><path  end="source" d="M 26 0 L 0 13 L 26 26 z"></path></g><g  id="v-4173"><path  end="target" d="M 26 0 L 0 13 L 26 26 z"></path></g></g><g  id="v-4190" display="none"><g  id="v-4170" transform="translate(642.6842041015625, 541.9249877929688) "><g  event="remove"><circle r="11"></circle><path transform="scale(.8) translate(-16, -16)" d="M24.778,21.419 19.276,15.917 24.777,10.415 21.949,7.585 16.447,13.087 10.945,7.585 8.117,10.415 13.618,15.917 8.116,21.419 10.946,24.248 16.447,18.746 21.948,24.248z"></path><title>Remove link.</title></g><g  event="link:options"><circle r="11" transform="translate(25)"></circle><path fill="white" transform="scale(.55) translate(29, -16)" d="M31.229,17.736c0.064-0.571,0.104-1.148,0.104-1.736s-0.04-1.166-0.104-1.737l-4.377-1.557c-0.218-0.716-0.504-1.401-0.851-2.05l1.993-4.192c-0.725-0.91-1.549-1.734-2.458-2.459l-4.193,1.994c-0.647-0.347-1.334-0.632-2.049-0.849l-1.558-4.378C17.165,0.708,16.588,0.667,16,0.667s-1.166,0.041-1.737,0.105L12.707,5.15c-0.716,0.217-1.401,0.502-2.05,0.849L6.464,4.005C5.554,4.73,4.73,5.554,4.005,6.464l1.994,4.192c-0.347,0.648-0.632,1.334-0.849,2.05l-4.378,1.557C0.708,14.834,0.667,15.412,0.667,16s0.041,1.165,0.105,1.736l4.378,1.558c0.217,0.715,0.502,1.401,0.849,2.049l-1.994,4.193c0.725,0.909,1.549,1.733,2.459,2.458l4.192-1.993c0.648,0.347,1.334,0.633,2.05,0.851l1.557,4.377c0.571,0.064,1.148,0.104,1.737,0.104c0.588,0,1.165-0.04,1.736-0.104l1.558-4.377c0.715-0.218,1.399-0.504,2.049-0.851l4.193,1.993c0.909-0.725,1.733-1.549,2.458-2.458l-1.993-4.193c0.347-0.647,0.633-1.334,0.851-2.049L31.229,17.736zM16,20.871c-2.69,0-4.872-2.182-4.872-4.871c0-2.69,2.182-4.872,4.872-4.872c2.689,0,4.871,2.182,4.871,4.872C20.871,18.689,18.689,20.871,16,20.871z"></path><title>Link options.</title></g></g></g></g><g id="j_229"   ><path  stroke="#707070" id="v-4209" stroke-width="2" stroke-dasharray="30 30" fill="none" d="M 1308 594 1631 894" style="opacity: 1;"></path><path  fill="black" stroke="black" transform="translate(1308,594) scale(1,1) rotate(42.89190673828125)"></path><path  fill="#707070" stroke="#707070" id="v-4211" d="M 20 0 L 0 10 L 20 20 z" transform="translate(1639.193800569993,915.3264119919977) scale(1,1) rotate(-137.10809326171875)" style="opacity: 1;"></path><path  id="v-4210" fill="none" d="M 1308 594 1631 894" style=""></path><title ></title><g ><g  id="v-4197" label-idx="0" cursor="move" transform="translate(1469.5, 744)" style="opacity: 1;"><rect id="v-4199" fill="#ffffff" rx="3" ry="3" stroke="#ffffff" stroke-width="20px" pointer-events="none" width="55.91777801513672" height="31.564173698425293" transform="matrix(1,0,0,1,-26.9,-15.8)"></rect><text id="v-4198" font-size="24px" y="0.8em" xml:space="preserve" text-anchor="middle" pointer-events="none" fill="#707070" font-family="Open Sans" font-weight="normal" transform="matrix(1,0,0,1,0,-10.2)"><tspan id="v-4200"  dy="0em" x="0">Uses</tspan></text></g><g  id="v-4201" label-idx="1" cursor="move" transform="translate(1469.5, 775.2)" style="opacity: 1;"><rect id="v-4203" fill="#ffffff" rx="3" ry="3" pointer-events="none" width="0" height="0" transform="matrix(1,0,0,1,0,0)"></rect><text id="v-4202" font-size="19px" y="0.8em" display="none" xml:space="preserve" text-anchor="middle" pointer-events="none" fill="#707070" font-family="Open Sans" font-weight="normal" transform="matrix(1,0,0,1,0,0)"><tspan id="v-4204"  dy="0em" x="0" style="fill-opacity: 0; stroke-opacity: 0;">-</tspan></text></g><g  id="v-4205" label-idx="2" cursor="move" transform="translate(1469.5, 799.2)" style="opacity: 1;"><rect id="v-4207" fill="#ffffff" rx="3" ry="3" pointer-events="none"  display="none" width="0" height="0" transform="matrix(1,0,0,1,0,0)"></rect><text id="v-4206" font-size="19px" y="0.8em" display="none" xml:space="preserve" text-anchor="middle" pointer-events="none" fill="#707070" font-family="Open Sans" font-weight="normal"  transform="matrix(1,0,0,1,0,0)"><tspan id="v-4208"  dy="0em" x="0" style="fill-opacity: 0; stroke-opacity: 0;">-</tspan></text></g></g><g  display="none"></g><g  id="v-4213" display="none"><g  id="v-4194"><path  end="source" d="M 26 0 L 0 13 L 26 26 z"></path></g><g  id="v-4195"><path  end="target" d="M 26 0 L 0 13 L 26 26 z"></path></g></g><g  id="v-4212" display="none"><g  id="v-4193" transform="translate(1337.3084716796875, 621.2215576171875) "><g  event="remove"><circle r="11"></circle><path transform="scale(.8) translate(-16, -16)" d="M24.778,21.419 19.276,15.917 24.777,10.415 21.949,7.585 16.447,13.087 10.945,7.585 8.117,10.415 13.618,15.917 8.116,21.419 10.946,24.248 16.447,18.746 21.948,24.248z"></path><title>Remove link.</title></g><g  event="link:options"><circle r="11" transform="translate(25)"></circle><path fill="white" transform="scale(.55) translate(29, -16)" d="M31.229,17.736c0.064-0.571,0.104-1.148,0.104-1.736s-0.04-1.166-0.104-1.737l-4.377-1.557c-0.218-0.716-0.504-1.401-0.851-2.05l1.993-4.192c-0.725-0.91-1.549-1.734-2.458-2.459l-4.193,1.994c-0.647-0.347-1.334-0.632-2.049-0.849l-1.558-4.378C17.165,0.708,16.588,0.667,16,0.667s-1.166,0.041-1.737,0.105L12.707,5.15c-0.716,0.217-1.401,0.502-2.05,0.849L6.464,4.005C5.554,4.73,4.73,5.554,4.005,6.464l1.994,4.192c-0.347,0.648-0.632,1.334-0.849,2.05l-4.378,1.557C0.708,14.834,0.667,15.412,0.667,16s0.041,1.165,0.105,1.736l4.378,1.558c0.217,0.715,0.502,1.401,0.849,2.049l-1.994,4.193c0.725,0.909,1.549,1.733,2.459,2.458l4.192-1.993c0.648,0.347,1.334,0.633,2.05,0.851l1.557,4.377c0.571,0.064,1.148,0.104,1.737,0.104c0.588,0,1.165-0.04,1.736-0.104l1.558-4.377c0.715-0.218,1.399-0.504,2.049-0.851l4.193,1.993c0.909-0.725,1.733-1.549,2.458-2.458l-1.993-4.193c0.347-0.647,0.633-1.334,0.851-2.049L31.229,17.736zM16,20.871c-2.69,0-4.872-2.182-4.872-4.871c0-2.69,2.182-4.872,4.872-4.872c2.689,0,4.871,2.182,4.871,4.872C20.871,18.689,18.689,20.871,16,20.871z"></path><title>Link options.</title></g></g></g></g></g><defs id="v-4"></defs></svg>