<svg xmlns="http://www.w3.org/2000/svg" xmlns:xlink="http://www.w3.org/1999/xlink" version="1.1" viewBox="0 0 3616 2016" style="background: #ffffff"><g id="v-3"  transform="matrix(1,0,0,1,0,0)"><g id="j_525"    transform="translate(20,1971)"><g id="v-9480"><text  id="v-9481" font-size="22px" y="0.8em" xml:space="preserve" font-weight="normal" text-anchor="start" fill="#aaaaaa" pointer-events="none" font-family="Open Sans" transform="matrix(1,0,0,1,0,0)"><tspan id="v-9482"  dy="0em" x="0">úterý 15. listopadu 2022 11:16 Středoevropský standardní čas</tspan></text></g></g><g id="j_524"    transform="translate(20,1925)"><g id="v-9476"><text  id="v-9477" font-size="36px" y="0.8em" xml:space="preserve" font-weight="normal" text-anchor="start" fill="#000000" pointer-events="none" font-family="Open Sans" transform="matrix(1,0,0,1,0,0)"><tspan id="v-9478"  dy="0em" x="0">[System Context] Patient Monitor Control System</tspan></text></g></g><g id="j_509"    transform="translate(208,208)" style=""><g  id="v-9178" style="opacity: 1;"><rect  x="0" y="160" width="400" height="240" rx="70" id="v-9180" stroke="#002ee6" stroke-width="2" pointer-events="visiblePainted" fill="#0033ff"></rect><circle  cx="200" cy="88.88888888888889" r="88.88888888888889" id="v-9179" stroke="#002ee6" stroke-width="2" pointer-events="visiblePainted" fill="#0033ff"></circle><line  x1="80" y1="266.6666666666667" x2="80" y2="400" id="v-9186" stroke="#002ee6" stroke-width="2"></line><line  x1="320" y1="266.6666666666667" x2="320" y2="400" id="v-9187" stroke="#002ee6" stroke-width="2"></line><text  id="v-9181" font-size="34px" y="0.8em" xml:space="preserve" font-weight="bold" text-anchor="middle" pointer-events="visible" font-family="Open Sans" fill="#ffffff" transform="matrix(1,0,0,1,200,205)"><tspan id="v-9188"  dy="0em" x="0">Doctor</tspan></text><text  id="v-9182" font-size="19px" y="0.8em" xml:space="preserve" text-anchor="middle" font-family="Open Sans" fill="#ffffff" transform="matrix(1,0,0,1,200,247.5)"><tspan id="v-9189"  dy="0em" x="0">[Person]</tspan></text><text  id="v-9183" font-size="24px" y="0.8em" xml:space="preserve" text-anchor="middle" font-family="Open Sans" fill="#ffffff" transform="matrix(1,0,0,1,200,295)"><tspan id="v-9190"  dy="0em" x="0">Hospital doctor responsible i.e.</tspan><tspan id="v-9191"  dy="1.2em" x="0">for drug prescription</tspan></text><text  id="v-9184" font-weight="bold" text-anchor="middle" font-family="Open Sans" fill="#ffffff" font-size="24" transform="matrix(1,0,0,1,200,371.2)" display="none"></text><image  id="v-9185"></image></g></g><g id="j_510"    transform="translate(1208,1508)" style="" ><g  id="v-9197" style="opacity: 1;"><rect  id="v-9198" rx="1" ry="1" stroke="#3b82dd" stroke-width="2" pointer-events="visiblePainted" fill="#4290f5" width="450" height="300"></rect><text  id="v-9199" font-size="34" y="0.8em" xml:space="preserve" font-weight="bold" text-anchor="middle" pointer-events="visible" font-family="Open Sans" fill="#000000" transform="matrix(1,0,0,1,225,53.8)"><tspan id="v-9204"  dy="0em" x="0">Central Hospital Patient</tspan><tspan id="v-9205"  dy="1.2em" x="0">Database System</tspan></text><text  id="v-9200" font-size="19" y="0.8em" xml:space="preserve" text-anchor="middle" font-family="Open Sans" fill="#000000" transform="matrix(1,0,0,1,225,138.8)"><tspan id="v-9206"  dy="0em" x="0">[Software System]</tspan></text><text  id="v-9201" font-size="24" y="0.8em" xml:space="preserve" text-anchor="middle" font-family="Open Sans" fill="#000000" transform="matrix(1,0,0,1,225,186.3)"><tspan id="v-9207"  dy="0em" x="0">Central hospital database system</tspan><tspan id="v-9208"  dy="1.2em" x="0">containing info about patients.</tspan></text><text  id="v-9202" font-weight="bold" text-anchor="middle" font-family="Open Sans" fill="#000000" font-size="24" transform="matrix(1,0,0,1,225,270)" y="0.8em" display="none" xml:space="preserve"><tspan id="v-9209"  dy="0em" x="0" style="fill-opacity: 0; stroke-opacity: 0;">-</tspan></text><image  id="v-9203"></image></g></g><g id="j_511"    transform="translate(1958,1508)" style="" ><g  id="v-9215" style="opacity: 1;"><rect  id="v-9216" rx="1" ry="1" stroke="#3b82dd" stroke-width="2" pointer-events="visiblePainted" fill="#4290f5" width="450" height="300"></rect><text  id="v-9217" font-size="34" y="0.8em" xml:space="preserve" font-weight="bold" text-anchor="middle" pointer-events="visible" font-family="Open Sans" fill="#000000" transform="matrix(1,0,0,1,225,60)"><tspan id="v-9222"  dy="0em" x="0">Drugs Database System</tspan></text><text  id="v-9218" font-size="19" y="0.8em" xml:space="preserve" text-anchor="middle" font-family="Open Sans" fill="#000000" transform="matrix(1,0,0,1,225,102.5)"><tspan id="v-9223"  dy="0em" x="0">[Software System]</tspan></text><text  id="v-9219" font-size="24" y="0.8em" xml:space="preserve" text-anchor="middle" font-family="Open Sans" fill="#000000" transform="matrix(1,0,0,1,225,150)"><tspan id="v-9224"  dy="0em" x="0">Drugs database system containing</tspan><tspan id="v-9225"  dy="1.2em" x="0">info about drugs (possibly from drug</tspan><tspan id="v-9226"  dy="1.2em" x="0">management).</tspan></text><text  id="v-9220" font-weight="bold" text-anchor="middle" font-family="Open Sans" fill="#000000" font-size="24" transform="matrix(1,0,0,1,225,270)" y="0.8em" display="none" xml:space="preserve"><tspan id="v-9227"  dy="0em" x="0" style="fill-opacity: 0; stroke-opacity: 0;">-</tspan></text><image  id="v-9221"></image></g></g><g id="j_512"    transform="translate(1583,908)" style="" ><g  id="v-9233" style="opacity: 1;"><rect  id="v-9234" rx="1" ry="1" stroke="#3b82dd" stroke-width="2" pointer-events="visiblePainted" fill="#4290f5" width="450" height="300"></rect><text  id="v-9235" font-size="34" y="0.8em" xml:space="preserve" font-weight="bold" text-anchor="middle" pointer-events="visible" font-family="Open Sans" fill="#000000" transform="matrix(1,0,0,1,225,53.8)"><tspan id="v-9240"  dy="0em" x="0">Patient Monitor Control</tspan><tspan id="v-9241"  dy="1.2em" x="0">System</tspan></text><text  id="v-9236" font-size="19" y="0.8em" xml:space="preserve" text-anchor="middle" font-family="Open Sans" fill="#000000" transform="matrix(1,0,0,1,225,138.8)"><tspan id="v-9242"  dy="0em" x="0">[Software System]</tspan></text><text  id="v-9237" font-size="24" y="0.8em" xml:space="preserve" text-anchor="middle" font-family="Open Sans" fill="#000000" transform="matrix(1,0,0,1,225,186.3)"><tspan id="v-9243"  dy="0em" x="0">System for monitoring patients in</tspan><tspan id="v-9244"  dy="1.2em" x="0">hospital</tspan></text><text  id="v-9238" font-weight="bold" text-anchor="middle" font-family="Open Sans" fill="#000000" font-size="24" transform="matrix(1,0,0,1,225,270)" y="0.8em" xml:space="preserve" display="none"><tspan id="v-9245"  dy="0em" x="0">+</tspan></text><image  id="v-9239"></image></g></g><g id="j_513"    transform="translate(908,208)" style=""><g  id="v-9249" style="opacity: 1;"><rect  x="0" y="160" width="400" height="240" rx="70" id="v-9251" stroke="#002ee6" stroke-width="2" pointer-events="visiblePainted" fill="#0033ff"></rect><circle  cx="200" cy="88.88888888888889" r="88.88888888888889" id="v-9250" stroke="#002ee6" stroke-width="2" pointer-events="visiblePainted" fill="#0033ff"></circle><line  x1="80" y1="266.6666666666667" x2="80" y2="400" id="v-9257" stroke="#002ee6" stroke-width="2"></line><line  x1="320" y1="266.6666666666667" x2="320" y2="400" id="v-9258" stroke="#002ee6" stroke-width="2"></line><text  id="v-9252" font-size="34px" y="0.8em" xml:space="preserve" font-weight="bold" text-anchor="middle" pointer-events="visible" font-family="Open Sans" fill="#ffffff" transform="matrix(1,0,0,1,200,205)"><tspan id="v-9259"  dy="0em" x="0">Nurse</tspan></text><text  id="v-9253" font-size="19px" y="0.8em" xml:space="preserve" text-anchor="middle" font-family="Open Sans" fill="#ffffff" transform="matrix(1,0,0,1,200,247.5)"><tspan id="v-9260"  dy="0em" x="0">[Person]</tspan></text><text  id="v-9254" font-size="24px" y="0.8em" xml:space="preserve" text-anchor="middle" font-family="Open Sans" fill="#ffffff" transform="matrix(1,0,0,1,200,295)"><tspan id="v-9261"  dy="0em" x="0">Nurse responsible for patient</tspan><tspan id="v-9262"  dy="1.2em" x="0">wellbeing</tspan></text><text  id="v-9255" font-weight="bold" text-anchor="middle" font-family="Open Sans" fill="#ffffff" font-size="24" transform="matrix(1,0,0,1,200,371.2)" display="none"></text><image  id="v-9256"></image></g></g><g id="j_514"    transform="translate(1608,208)" style=""><g  id="v-9266" style="opacity: 1;"><rect  x="0" y="160" width="400" height="240" rx="70" id="v-9268" stroke="#002ee6" stroke-width="2" pointer-events="visiblePainted" fill="#0033ff"></rect><circle  cx="200" cy="88.88888888888889" r="88.88888888888889" id="v-9267" stroke="#002ee6" stroke-width="2" pointer-events="visiblePainted" fill="#0033ff"></circle><line  x1="80" y1="266.6666666666667" x2="80" y2="400" id="v-9274" stroke="#002ee6" stroke-width="2"></line><line  x1="320" y1="266.6666666666667" x2="320" y2="400" id="v-9275" stroke="#002ee6" stroke-width="2"></line><text  id="v-9269" font-size="34px" y="0.8em" xml:space="preserve" font-weight="bold" text-anchor="middle" pointer-events="visible" font-family="Open Sans" fill="#ffffff" transform="matrix(1,0,0,1,200,220)"><tspan id="v-9276"  dy="0em" x="0">Patient</tspan></text><text  id="v-9270" font-size="19px" y="0.8em" xml:space="preserve" text-anchor="middle" font-family="Open Sans" fill="#ffffff" transform="matrix(1,0,0,1,200,262.5)"><tspan id="v-9277"  dy="0em" x="0">[Person]</tspan></text><text  id="v-9271" font-size="24px" y="0.8em" xml:space="preserve" text-anchor="middle" font-family="Open Sans" fill="#ffffff" transform="matrix(1,0,0,1,200,310)"><tspan id="v-9278"  dy="0em" x="0">Patient lying in hospital bed</tspan></text><text  id="v-9272" font-weight="bold" text-anchor="middle" font-family="Open Sans" fill="#ffffff" font-size="24" transform="matrix(1,0,0,1,200,371.2)" display="none"></text><image  id="v-9273"></image></g></g><g id="j_515"    transform="translate(2308,208)" style=""><g  id="v-9282" style="opacity: 1;"><rect  x="0" y="160" width="400" height="240" rx="70" id="v-9284" stroke="#002ee6" stroke-width="2" pointer-events="visiblePainted" fill="#0033ff"></rect><circle  cx="200" cy="88.88888888888889" r="88.88888888888889" id="v-9283" stroke="#002ee6" stroke-width="2" pointer-events="visiblePainted" fill="#0033ff"></circle><line  x1="80" y1="266.6666666666667" x2="80" y2="400" id="v-9290" stroke="#002ee6" stroke-width="2"></line><line  x1="320" y1="266.6666666666667" x2="320" y2="400" id="v-9291" stroke="#002ee6" stroke-width="2"></line><text  id="v-9285" font-size="34px" y="0.8em" xml:space="preserve" font-weight="bold" text-anchor="middle" pointer-events="visible" font-family="Open Sans" fill="#ffffff" transform="matrix(1,0,0,1,200,205)"><tspan id="v-9292"  dy="0em" x="0">IT staff</tspan></text><text  id="v-9286" font-size="19px" y="0.8em" xml:space="preserve" text-anchor="middle" font-family="Open Sans" fill="#ffffff" transform="matrix(1,0,0,1,200,247.5)"><tspan id="v-9293"  dy="0em" x="0">[Person]</tspan></text><text  id="v-9287" font-size="24px" y="0.8em" xml:space="preserve" text-anchor="middle" font-family="Open Sans" fill="#ffffff" transform="matrix(1,0,0,1,200,295)"><tspan id="v-9294"  dy="0em" x="0">People responsible for IT</tspan><tspan id="v-9295"  dy="1.2em" x="0">infrastructure</tspan></text><text  id="v-9288" font-weight="bold" text-anchor="middle" font-family="Open Sans" fill="#ffffff" font-size="24" transform="matrix(1,0,0,1,200,371.2)" display="none"></text><image  id="v-9289"></image></g></g><g id="j_516"    transform="translate(3008,208)" style=""><g  id="v-9299" style="opacity: 1;"><rect  x="0" y="160" width="400" height="240" rx="70" id="v-9301" stroke="#002ee6" stroke-width="2" pointer-events="visiblePainted" fill="#0033ff"></rect><circle  cx="200" cy="88.88888888888889" r="88.88888888888889" id="v-9300" stroke="#002ee6" stroke-width="2" pointer-events="visiblePainted" fill="#0033ff"></circle><line  x1="80" y1="266.6666666666667" x2="80" y2="400" id="v-9307" stroke="#002ee6" stroke-width="2"></line><line  x1="320" y1="266.6666666666667" x2="320" y2="400" id="v-9308" stroke="#002ee6" stroke-width="2"></line><text  id="v-9302" font-size="34px" y="0.8em" xml:space="preserve" font-weight="bold" text-anchor="middle" pointer-events="visible" font-family="Open Sans" fill="#ffffff" transform="matrix(1,0,0,1,200,205)"><tspan id="v-9309"  dy="0em" x="0">Technician</tspan></text><text  id="v-9303" font-size="19px" y="0.8em" xml:space="preserve" text-anchor="middle" font-family="Open Sans" fill="#ffffff" transform="matrix(1,0,0,1,200,247.5)"><tspan id="v-9310"  dy="0em" x="0">[Person]</tspan></text><text  id="v-9304" font-size="24px" y="0.8em" xml:space="preserve" text-anchor="middle" font-family="Open Sans" fill="#ffffff" transform="matrix(1,0,0,1,200,295)"><tspan id="v-9311"  dy="0em" x="0">Technicians responsible for</tspan><tspan id="v-9312"  dy="1.2em" x="0">devices maintenance</tspan></text><text  id="v-9305" font-weight="bold" text-anchor="middle" font-family="Open Sans" fill="#ffffff" font-size="24" transform="matrix(1,0,0,1,200,371.2)" display="none"></text><image  id="v-9306"></image></g></g><g id="j_517"   ><path  stroke="#707070" id="v-9330" stroke-width="2" stroke-dasharray="30 30" fill="none" d="M 1308 594 1631 894" style="opacity: 1;"></path><path  fill="black" stroke="black" transform="translate(1308,594) scale(1,1) rotate(42.89190673828125)"></path><path  fill="#707070" stroke="#707070" id="v-9332" d="M 20 0 L 0 10 L 20 20 z" transform="translate(1639.1938005699928,915.3264119919975) scale(1,1) rotate(-137.10809326171875)" style="opacity: 1;"></path><path  id="v-9331" fill="none" d="M 1308 594 1631 894" style=""></path><title ></title><g ><g  id="v-9318" label-idx="0" cursor="move" transform="translate(1469.5, 744)" style="opacity: 1;"><rect id="v-9320" fill="#ffffff" rx="3" ry="3" stroke="#ffffff" stroke-width="20px" pointer-events="none" width="55.41748809814453" height="32.621360778808594" transform="matrix(1,0,0,1,-26.9,-16.3)"></rect><text id="v-9319" font-size="24px" y="0.8em" xml:space="preserve" text-anchor="middle" pointer-events="none" fill="#707070" font-family="Open Sans" font-weight="normal" transform="matrix(1,0,0,1,0,-9.4)"><tspan id="v-9321"  dy="0em" x="0">Uses</tspan></text></g><g  id="v-9322" label-idx="1" cursor="move" transform="translate(1469.5, 775.2)" style="opacity: 1;"><rect id="v-9324" fill="#ffffff" rx="3" ry="3" pointer-events="none" width="0" height="0" transform="matrix(1,0,0,1,0,0)"></rect><text id="v-9323" font-size="19px" y="0.8em" display="none" xml:space="preserve" text-anchor="middle" pointer-events="none" fill="#707070" font-family="Open Sans" font-weight="normal" transform="matrix(1,0,0,1,0,0)"><tspan id="v-9325"  dy="0em" x="0" style="fill-opacity: 0; stroke-opacity: 0;">-</tspan></text></g><g  id="v-9326" label-idx="2" cursor="move" transform="translate(1469.5, 799.2)" style="opacity: 1;"><rect id="v-9328" fill="#ffffff" rx="3" ry="3" pointer-events="none"  display="none" width="0" height="0" transform="matrix(1,0,0,1,0,0)"></rect><text id="v-9327" font-size="19px" y="0.8em" display="none" xml:space="preserve" text-anchor="middle" pointer-events="none" fill="#707070" font-family="Open Sans" font-weight="normal"  transform="matrix(1,0,0,1,0,0)"><tspan id="v-9329"  dy="0em" x="0" style="fill-opacity: 0; stroke-opacity: 0;">-</tspan></text></g></g><g  display="none"></g><g  id="v-9334" display="none"><g  id="v-9315"><path  end="source" d="M 26 0 L 0 13 L 26 26 z"></path></g><g  id="v-9316"><path  end="target" d="M 26 0 L 0 13 L 26 26 z"></path></g></g><g  id="v-9333" display="none"><g  id="v-9314" transform="translate(1337.3084716796875, 621.2215576171875) "><g  event="remove"><circle r="11"></circle><path transform="scale(.8) translate(-16, -16)" d="M24.778,21.419 19.276,15.917 24.777,10.415 21.949,7.585 16.447,13.087 10.945,7.585 8.117,10.415 13.618,15.917 8.116,21.419 10.946,24.248 16.447,18.746 21.948,24.248z"></path><title>Remove link.</title></g><g  event="link:options"><circle r="11" transform="translate(25)"></circle><path fill="white" transform="scale(.55) translate(29, -16)" d="M31.229,17.736c0.064-0.571,0.104-1.148,0.104-1.736s-0.04-1.166-0.104-1.737l-4.377-1.557c-0.218-0.716-0.504-1.401-0.851-2.05l1.993-4.192c-0.725-0.91-1.549-1.734-2.458-2.459l-4.193,1.994c-0.647-0.347-1.334-0.632-2.049-0.849l-1.558-4.378C17.165,0.708,16.588,0.667,16,0.667s-1.166,0.041-1.737,0.105L12.707,5.15c-0.716,0.217-1.401,0.502-2.05,0.849L6.464,4.005C5.554,4.73,4.73,5.554,4.005,6.464l1.994,4.192c-0.347,0.648-0.632,1.334-0.849,2.05l-4.378,1.557C0.708,14.834,0.667,15.412,0.667,16s0.041,1.165,0.105,1.736l4.378,1.558c0.217,0.715,0.502,1.401,0.849,2.049l-1.994,4.193c0.725,0.909,1.549,1.733,2.459,2.458l4.192-1.993c0.648,0.347,1.334,0.633,2.05,0.851l1.557,4.377c0.571,0.064,1.148,0.104,1.737,0.104c0.588,0,1.165-0.04,1.736-0.104l1.558-4.377c0.715-0.218,1.399-0.504,2.049-0.851l4.193,1.993c0.909-0.725,1.733-1.549,2.458-2.458l-1.993-4.193c0.347-0.647,0.633-1.334,0.851-2.049L31.229,17.736zM16,20.871c-2.69,0-4.872-2.182-4.872-4.871c0-2.69,2.182-4.872,4.872-4.872c2.689,0,4.871,2.182,4.871,4.872C20.871,18.689,18.689,20.871,16,20.871z"></path><title>Link options.</title></g></g></g></g><g id="j_518"   ><path  stroke="#707070" id="v-9352" stroke-width="2" stroke-dasharray="30 30" fill="none" d="M 1808 608 1808 888" style="opacity: 1;"></path><path  fill="black" stroke="black" transform="translate(1808,608) scale(1,1) rotate(-270)"></path><path  fill="#707070" stroke="#707070" id="v-9354" d="M 20 0 L 0 10 L 20 20 z" transform="translate(1798,907.9999999999998) scale(1,1) rotate(-90)" style="opacity: 1;"></path><path  id="v-9353" fill="none" d="M 1808 608 1808 888" style=""></path><title ></title><g ><g  id="v-9340" label-idx="0" cursor="move" transform="translate(1808, 748)" style="opacity: 1;"><rect id="v-9342" fill="#ffffff" rx="3" ry="3" stroke="#ffffff" stroke-width="20px" pointer-events="none" width="55.41748809814453" height="32.621360778808594" transform="matrix(1,0,0,1,-26.9,-16.3)"></rect><text id="v-9341" font-size="24px" y="0.8em" xml:space="preserve" text-anchor="middle" pointer-events="none" fill="#707070" font-family="Open Sans" font-weight="normal" transform="matrix(1,0,0,1,0,-9.4)"><tspan id="v-9343"  dy="0em" x="0">Uses</tspan></text></g><g  id="v-9344" label-idx="1" cursor="move" transform="translate(1808, 779.2)" style="opacity: 1;"><rect id="v-9346" fill="#ffffff" rx="3" ry="3" pointer-events="none" width="0" height="0" transform="matrix(1,0,0,1,0,0)"></rect><text id="v-9345" font-size="19px" y="0.8em" display="none" xml:space="preserve" text-anchor="middle" pointer-events="none" fill="#707070" font-family="Open Sans" font-weight="normal" transform="matrix(1,0,0,1,0,0)"><tspan id="v-9347"  dy="0em" x="0" style="fill-opacity: 0; stroke-opacity: 0;">-</tspan></text></g><g  id="v-9348" label-idx="2" cursor="move" transform="translate(1808, 803.2)" style="opacity: 1;"><rect id="v-9350" fill="#ffffff" rx="3" ry="3" pointer-events="none"  display="none" width="0" height="0" transform="matrix(1,0,0,1,0,0)"></rect><text id="v-9349" font-size="19px" y="0.8em" display="none" xml:space="preserve" text-anchor="middle" pointer-events="none" fill="#707070" font-family="Open Sans" font-weight="normal"  transform="matrix(1,0,0,1,0,0)"><tspan id="v-9351"  dy="0em" x="0" style="fill-opacity: 0; stroke-opacity: 0;">-</tspan></text></g></g><g  display="none"></g><g  id="v-9356" display="none"><g  id="v-9337"><path  end="source" d="M 26 0 L 0 13 L 26 26 z"></path></g><g  id="v-9338"><path  end="target" d="M 26 0 L 0 13 L 26 26 z"></path></g></g><g  id="v-9355" display="none"><g  id="v-9336" transform="translate(1808, 648) "><g  event="remove"><circle r="11"></circle><path transform="scale(.8) translate(-16, -16)" d="M24.778,21.419 19.276,15.917 24.777,10.415 21.949,7.585 16.447,13.087 10.945,7.585 8.117,10.415 13.618,15.917 8.116,21.419 10.946,24.248 16.447,18.746 21.948,24.248z"></path><title>Remove link.</title></g><g  event="link:options"><circle r="11" transform="translate(25)"></circle><path fill="white" transform="scale(.55) translate(29, -16)" d="M31.229,17.736c0.064-0.571,0.104-1.148,0.104-1.736s-0.04-1.166-0.104-1.737l-4.377-1.557c-0.218-0.716-0.504-1.401-0.851-2.05l1.993-4.192c-0.725-0.91-1.549-1.734-2.458-2.459l-4.193,1.994c-0.647-0.347-1.334-0.632-2.049-0.849l-1.558-4.378C17.165,0.708,16.588,0.667,16,0.667s-1.166,0.041-1.737,0.105L12.707,5.15c-0.716,0.217-1.401,0.502-2.05,0.849L6.464,4.005C5.554,4.73,4.73,5.554,4.005,6.464l1.994,4.192c-0.347,0.648-0.632,1.334-0.849,2.05l-4.378,1.557C0.708,14.834,0.667,15.412,0.667,16s0.041,1.165,0.105,1.736l4.378,1.558c0.217,0.715,0.502,1.401,0.849,2.049l-1.994,4.193c0.725,0.909,1.549,1.733,2.459,2.458l4.192-1.993c0.648,0.347,1.334,0.633,2.05,0.851l1.557,4.377c0.571,0.064,1.148,0.104,1.737,0.104c0.588,0,1.165-0.04,1.736-0.104l1.558-4.377c0.715-0.218,1.399-0.504,2.049-0.851l4.193,1.993c0.909-0.725,1.733-1.549,2.458-2.458l-1.993-4.193c0.347-0.647,0.633-1.334,0.851-2.049L31.229,17.736zM16,20.871c-2.69,0-4.872-2.182-4.872-4.871c0-2.69,2.182-4.872,4.872-4.872c2.689,0,4.871,2.182,4.871,4.872C20.871,18.689,18.689,20.871,16,20.871z"></path><title>Link options.</title></g></g></g></g><g id="j_519"   ><path  stroke="#707070" id="v-9374" stroke-width="2" stroke-dasharray="30 30" fill="none" d="M 2308 594 1985 894" style="opacity: 1;"></path><path  fill="black" stroke="black" transform="translate(2308,594) scale(1,1) rotate(-222.89190673828125)"></path><path  fill="#707070" stroke="#707070" id="v-9376" d="M 20 0 L 0 10 L 20 20 z" transform="translate(1963.1938517145131,900.6736301296994) scale(1,1) rotate(-42.89190292358398)" style="opacity: 1;"></path><path  id="v-9375" fill="none" d="M 2308 594 1985 894" style=""></path><title ></title><g ><g  id="v-9362" label-idx="0" cursor="move" transform="translate(2146.5, 744)" style="opacity: 1;"><rect id="v-9364" fill="#ffffff" rx="3" ry="3" stroke="#ffffff" stroke-width="20px" pointer-events="none" width="102.44593048095703" height="32.621360778808594" transform="matrix(1,0,0,1,-50.4,-16.3)"></rect><text id="v-9363" font-size="24px" y="0.8em" xml:space="preserve" text-anchor="middle" pointer-events="none" fill="#707070" font-family="Open Sans" font-weight="normal" transform="matrix(1,0,0,1,0,-9.4)"><tspan id="v-9365"  dy="0em" x="0">Manages</tspan></text></g><g  id="v-9366" label-idx="1" cursor="move" transform="translate(2146.5, 775.2)" style="opacity: 1;"><rect id="v-9368" fill="#ffffff" rx="3" ry="3" pointer-events="none" width="0" height="0" transform="matrix(1,0,0,1,0,0)"></rect><text id="v-9367" font-size="19px" y="0.8em" display="none" xml:space="preserve" text-anchor="middle" pointer-events="none" fill="#707070" font-family="Open Sans" font-weight="normal" transform="matrix(1,0,0,1,0,0)"><tspan id="v-9369"  dy="0em" x="0" style="fill-opacity: 0; stroke-opacity: 0;">-</tspan></text></g><g  id="v-9370" label-idx="2" cursor="move" transform="translate(2146.5, 799.2)" style="opacity: 1;"><rect id="v-9372" fill="#ffffff" rx="3" ry="3" pointer-events="none"  display="none" width="0" height="0" transform="matrix(1,0,0,1,0,0)"></rect><text id="v-9371" font-size="19px" y="0.8em" display="none" xml:space="preserve" text-anchor="middle" pointer-events="none" fill="#707070" font-family="Open Sans" font-weight="normal"  transform="matrix(1,0,0,1,0,0)"><tspan id="v-9373"  dy="0em" x="0" style="fill-opacity: 0; stroke-opacity: 0;">-</tspan></text></g></g><g  display="none"></g><g  id="v-9378" display="none"><g  id="v-9359"><path  end="source" d="M 26 0 L 0 13 L 26 26 z"></path></g><g  id="v-9360"><path  end="target" d="M 26 0 L 0 13 L 26 26 z"></path></g></g><g  id="v-9377" display="none"><g  id="v-9358" transform="translate(2278.69140625, 621.2215576171875) "><g  event="remove"><circle r="11"></circle><path transform="scale(.8) translate(-16, -16)" d="M24.778,21.419 19.276,15.917 24.777,10.415 21.949,7.585 16.447,13.087 10.945,7.585 8.117,10.415 13.618,15.917 8.116,21.419 10.946,24.248 16.447,18.746 21.948,24.248z"></path><title>Remove link.</title></g><g  event="link:options"><circle r="11" transform="translate(25)"></circle><path fill="white" transform="scale(.55) translate(29, -16)" d="M31.229,17.736c0.064-0.571,0.104-1.148,0.104-1.736s-0.04-1.166-0.104-1.737l-4.377-1.557c-0.218-0.716-0.504-1.401-0.851-2.05l1.993-4.192c-0.725-0.91-1.549-1.734-2.458-2.459l-4.193,1.994c-0.647-0.347-1.334-0.632-2.049-0.849l-1.558-4.378C17.165,0.708,16.588,0.667,16,0.667s-1.166,0.041-1.737,0.105L12.707,5.15c-0.716,0.217-1.401,0.502-2.05,0.849L6.464,4.005C5.554,4.73,4.73,5.554,4.005,6.464l1.994,4.192c-0.347,0.648-0.632,1.334-0.849,2.05l-4.378,1.557C0.708,14.834,0.667,15.412,0.667,16s0.041,1.165,0.105,1.736l4.378,1.558c0.217,0.715,0.502,1.401,0.849,2.049l-1.994,4.193c0.725,0.909,1.549,1.733,2.459,2.458l4.192-1.993c0.648,0.347,1.334,0.633,2.05,0.851l1.557,4.377c0.571,0.064,1.148,0.104,1.737,0.104c0.588,0,1.165-0.04,1.736-0.104l1.558-4.377c0.715-0.218,1.399-0.504,2.049-0.851l4.193,1.993c0.909-0.725,1.733-1.549,2.458-2.458l-1.993-4.193c0.347-0.647,0.633-1.334,0.851-2.049L31.229,17.736zM16,20.871c-2.69,0-4.872-2.182-4.872-4.871c0-2.69,2.182-4.872,4.872-4.872c2.689,0,4.871,2.182,4.871,4.872C20.871,18.689,18.689,20.871,16,20.871z"></path><title>Link options.</title></g></g></g></g><g id="j_520"   ><path  stroke="#707070" id="v-9397" stroke-width="2" stroke-dasharray="30 30" fill="none" d="M 3008 522 2867 603 S 2858 608 2849 612 L 2051 954" style="opacity: 1;"></path><path  fill="black" stroke="black" transform="translate(3008,522) scale(1,1) rotate(-209.82708740234375)"></path><path  fill="#707070" stroke="#707070" id="v-9399" d="M 20 0 L 0 10 L 20 20 z" transform="translate(2029.0567505448305,952.8102676339626) scale(1,1) rotate(-23.223731994628906)" style="opacity: 1;"></path><path  id="v-9398" fill="none" d="M 3008 522 2867 603 S 2858 608 2849 612 L 2051 954" style=""></path><title ></title><g ><g  id="v-9385" label-idx="0" cursor="move" transform="translate(2533.982177734375, 747.007568359375)" style="opacity: 1;"><rect id="v-9387" fill="#ffffff" rx="3" ry="3" stroke="#ffffff" stroke-width="20px" pointer-events="none" width="102.44593048095703" height="32.621360778808594" transform="matrix(1,0,0,1,-50.4,-16.3)"></rect><text id="v-9386" font-size="24px" y="0.8em" xml:space="preserve" text-anchor="middle" pointer-events="none" fill="#707070" font-family="Open Sans" font-weight="normal" transform="matrix(1,0,0,1,0,-9.4)"><tspan id="v-9388"  dy="0em" x="0">Manages</tspan></text></g><g  id="v-9389" label-idx="1" cursor="move" transform="translate(2533.982177734375, 778.207568359375)" style="opacity: 1;"><rect id="v-9391" fill="#ffffff" rx="3" ry="3" pointer-events="none" width="0" height="0" transform="matrix(1,0,0,1,0,0)"></rect><text id="v-9390" font-size="19px" y="0.8em" display="none" xml:space="preserve" text-anchor="middle" pointer-events="none" fill="#707070" font-family="Open Sans" font-weight="normal" transform="matrix(1,0,0,1,0,0)"><tspan id="v-9392"  dy="0em" x="0" style="fill-opacity: 0; stroke-opacity: 0;">-</tspan></text></g><g  id="v-9393" label-idx="2" cursor="move" transform="translate(2533.982177734375, 802.207568359375)" style="opacity: 1;"><rect id="v-9395" fill="#ffffff" rx="3" ry="3" pointer-events="none"  display="none" width="0" height="0" transform="matrix(1,0,0,1,0,0)"></rect><text id="v-9394" font-size="19px" y="0.8em" display="none" xml:space="preserve" text-anchor="middle" pointer-events="none" fill="#707070" font-family="Open Sans" font-weight="normal"  transform="matrix(1,0,0,1,0,0)"><tspan id="v-9396"  dy="0em" x="0" style="fill-opacity: 0; stroke-opacity: 0;">-</tspan></text></g></g><g  display="none"><g  transform="translate(2858, 608)" id="v-9381"><circle  idx="0" r="10"></circle><path  idx="0" d="M16,5.333c-7.732,0-14,4.701-14,10.5c0,1.982,0.741,3.833,2.016,5.414L2,25.667l5.613-1.441c2.339,1.317,5.237,2.107,8.387,2.107c7.732,0,14-4.701,14-10.5C30,10.034,23.732,5.333,16,5.333z" transform="translate(5, -33)"></path><path  idx="0" transform="scale(.8) translate(9.5, -37)" d="M24.778,21.419 19.276,15.917 24.777,10.415 21.949,7.585 16.447,13.087 10.945,7.585 8.117,10.415 13.618,15.917 8.116,21.419 10.946,24.248 16.447,18.746 21.948,24.248z"><title>Remove vertex.</title></path></g></g><g  id="v-9401" display="none"><g  id="v-9382"><path  end="source" d="M 26 0 L 0 13 L 26 26 z"></path></g><g  id="v-9383"><path  end="target" d="M 26 0 L 0 13 L 26 26 z"></path></g></g><g  id="v-9400" display="none"><g  id="v-9380" transform="translate(2973.315673828125, 541.9249877929688) "><g  event="remove"><circle r="11"></circle><path transform="scale(.8) translate(-16, -16)" d="M24.778,21.419 19.276,15.917 24.777,10.415 21.949,7.585 16.447,13.087 10.945,7.585 8.117,10.415 13.618,15.917 8.116,21.419 10.946,24.248 16.447,18.746 21.948,24.248z"></path><title>Remove link.</title></g><g  event="link:options"><circle r="11" transform="translate(25)"></circle><path fill="white" transform="scale(.55) translate(29, -16)" d="M31.229,17.736c0.064-0.571,0.104-1.148,0.104-1.736s-0.04-1.166-0.104-1.737l-4.377-1.557c-0.218-0.716-0.504-1.401-0.851-2.05l1.993-4.192c-0.725-0.91-1.549-1.734-2.458-2.459l-4.193,1.994c-0.647-0.347-1.334-0.632-2.049-0.849l-1.558-4.378C17.165,0.708,16.588,0.667,16,0.667s-1.166,0.041-1.737,0.105L12.707,5.15c-0.716,0.217-1.401,0.502-2.05,0.849L6.464,4.005C5.554,4.73,4.73,5.554,4.005,6.464l1.994,4.192c-0.347,0.648-0.632,1.334-0.849,2.05l-4.378,1.557C0.708,14.834,0.667,15.412,0.667,16s0.041,1.165,0.105,1.736l4.378,1.558c0.217,0.715,0.502,1.401,0.849,2.049l-1.994,4.193c0.725,0.909,1.549,1.733,2.459,2.458l4.192-1.993c0.648,0.347,1.334,0.633,2.05,0.851l1.557,4.377c0.571,0.064,1.148,0.104,1.737,0.104c0.588,0,1.165-0.04,1.736-0.104l1.558-4.377c0.715-0.218,1.399-0.504,2.049-0.851l4.193,1.993c0.909-0.725,1.733-1.549,2.458-2.458l-1.993-4.193c0.347-0.647,0.633-1.334,0.851-2.049L31.229,17.736zM16,20.871c-2.69,0-4.872-2.182-4.872-4.871c0-2.69,2.182-4.872,4.872-4.872c2.689,0,4.871,2.182,4.871,4.872C20.871,18.689,18.689,20.871,16,20.871z"></path><title>Link options.</title></g></g></g></g><g id="j_521"   ><path  stroke="#707070" id="v-9420" stroke-width="2" stroke-dasharray="30 30" fill="none" d="M 608 522 749 603 S 758 608 767 612 L 1565 954" style="opacity: 1;"></path><path  fill="black" stroke="black" transform="translate(608,522) scale(1,1) rotate(29.827087402343793)"></path><path  fill="#707070" stroke="#707070" id="v-9422" d="M 20 0 L 0 10 L 20 20 z" transform="translate(1579.0567995444824,971.1897087174938) scale(1,1) rotate(-156.77627563476562)" style="opacity: 1;"></path><path  id="v-9421" fill="none" d="M 608 522 749 603 S 758 608 767 612 L 1565 954" style=""></path><title ></title><g ><g  id="v-9408" label-idx="0" cursor="move" transform="translate(1082.0177001953125, 747.007568359375)" style="opacity: 1;"><rect id="v-9410" fill="#ffffff" rx="3" ry="3" stroke="#ffffff" stroke-width="20px" pointer-events="none" width="55.41748809814453" height="32.621360778808594" transform="matrix(1,0,0,1,-26.9,-16.3)"></rect><text id="v-9409" font-size="24px" y="0.8em" xml:space="preserve" text-anchor="middle" pointer-events="none" fill="#707070" font-family="Open Sans" font-weight="normal" transform="matrix(1,0,0,1,0,-9.4)"><tspan id="v-9411"  dy="0em" x="0">Uses</tspan></text></g><g  id="v-9412" label-idx="1" cursor="move" transform="translate(1082.0177001953125, 778.207568359375)" style="opacity: 1;"><rect id="v-9414" fill="#ffffff" rx="3" ry="3" pointer-events="none" width="0" height="0" transform="matrix(1,0,0,1,0,0)"></rect><text id="v-9413" font-size="19px" y="0.8em" display="none" xml:space="preserve" text-anchor="middle" pointer-events="none" fill="#707070" font-family="Open Sans" font-weight="normal" transform="matrix(1,0,0,1,0,0)"><tspan id="v-9415"  dy="0em" x="0" style="fill-opacity: 0; stroke-opacity: 0;">-</tspan></text></g><g  id="v-9416" label-idx="2" cursor="move" transform="translate(1082.0177001953125, 802.207568359375)" style="opacity: 1;"><rect id="v-9418" fill="#ffffff" rx="3" ry="3" pointer-events="none"  display="none" width="0" height="0" transform="matrix(1,0,0,1,0,0)"></rect><text id="v-9417" font-size="19px" y="0.8em" display="none" xml:space="preserve" text-anchor="middle" pointer-events="none" fill="#707070" font-family="Open Sans" font-weight="normal"  transform="matrix(1,0,0,1,0,0)"><tspan id="v-9419"  dy="0em" x="0" style="fill-opacity: 0; stroke-opacity: 0;">-</tspan></text></g></g><g  display="none"><g  transform="translate(758, 608)" id="v-9404"><circle  idx="0" r="10"></circle><path  idx="0" d="M16,5.333c-7.732,0-14,4.701-14,10.5c0,1.982,0.741,3.833,2.016,5.414L2,25.667l5.613-1.441c2.339,1.317,5.237,2.107,8.387,2.107c7.732,0,14-4.701,14-10.5C30,10.034,23.732,5.333,16,5.333z" transform="translate(5, -33)"></path><path  idx="0" transform="scale(.8) translate(9.5, -37)" d="M24.778,21.419 19.276,15.917 24.777,10.415 21.949,7.585 16.447,13.087 10.945,7.585 8.117,10.415 13.618,15.917 8.116,21.419 10.946,24.248 16.447,18.746 21.948,24.248z"><title>Remove vertex.</title></path></g></g><g  id="v-9424" display="none"><g  id="v-9405"><path  end="source" d="M 26 0 L 0 13 L 26 26 z"></path></g><g  id="v-9406"><path  end="target" d="M 26 0 L 0 13 L 26 26 z"></path></g></g><g  id="v-9423" display="none"><g  id="v-9403" transform="translate(642.6842041015625, 541.9249877929688) "><g  event="remove"><circle r="11"></circle><path transform="scale(.8) translate(-16, -16)" d="M24.778,21.419 19.276,15.917 24.777,10.415 21.949,7.585 16.447,13.087 10.945,7.585 8.117,10.415 13.618,15.917 8.116,21.419 10.946,24.248 16.447,18.746 21.948,24.248z"></path><title>Remove link.</title></g><g  event="link:options"><circle r="11" transform="translate(25)"></circle><path fill="white" transform="scale(.55) translate(29, -16)" d="M31.229,17.736c0.064-0.571,0.104-1.148,0.104-1.736s-0.04-1.166-0.104-1.737l-4.377-1.557c-0.218-0.716-0.504-1.401-0.851-2.05l1.993-4.192c-0.725-0.91-1.549-1.734-2.458-2.459l-4.193,1.994c-0.647-0.347-1.334-0.632-2.049-0.849l-1.558-4.378C17.165,0.708,16.588,0.667,16,0.667s-1.166,0.041-1.737,0.105L12.707,5.15c-0.716,0.217-1.401,0.502-2.05,0.849L6.464,4.005C5.554,4.73,4.73,5.554,4.005,6.464l1.994,4.192c-0.347,0.648-0.632,1.334-0.849,2.05l-4.378,1.557C0.708,14.834,0.667,15.412,0.667,16s0.041,1.165,0.105,1.736l4.378,1.558c0.217,0.715,0.502,1.401,0.849,2.049l-1.994,4.193c0.725,0.909,1.549,1.733,2.459,2.458l4.192-1.993c0.648,0.347,1.334,0.633,2.05,0.851l1.557,4.377c0.571,0.064,1.148,0.104,1.737,0.104c0.588,0,1.165-0.04,1.736-0.104l1.558-4.377c0.715-0.218,1.399-0.504,2.049-0.851l4.193,1.993c0.909-0.725,1.733-1.549,2.458-2.458l-1.993-4.193c0.347-0.647,0.633-1.334,0.851-2.049L31.229,17.736zM16,20.871c-2.69,0-4.872-2.182-4.872-4.871c0-2.69,2.182-4.872,4.872-4.872c2.689,0,4.871,2.182,4.871,4.872C20.871,18.689,18.689,20.871,16,20.871z"></path><title>Link options.</title></g></g></g></g><g id="j_522"   ><path  stroke="#707070" id="v-9445" stroke-width="2" stroke-dasharray="30 30" fill="none" d="M 1714 1208 1538 1491" style="opacity: 1;"></path><path  fill="black" stroke="black" transform="translate(1714,1208) scale(1,1) rotate(-238.06333923339847)"></path><path  fill="#707070" stroke="#707070" id="v-9447" d="M 20 0 L 0 10 L 20 20 z" transform="translate(1518.5136465819917,1502.71019137557) scale(1,1) rotate(-58.06333923339844)" style="opacity: 1;"></path><path  id="v-9446" fill="none" d="M 1714 1208 1538 1491" style=""></path><title ></title><g ><g  id="v-9432" label-idx="0" cursor="move" transform="translate(1626, 1349.5)" style="opacity: 1;"><rect id="v-9434" fill="#ffffff" rx="3" ry="3" stroke="#ffffff" stroke-width="20px" pointer-events="none" width="148.78369140625" height="61.421363830566406" transform="matrix(1,0,0,1,-73.6,-30.7)"></rect><text id="v-9433" font-size="24px" y="0.8em" xml:space="preserve" text-anchor="middle" pointer-events="none" fill="#707070" font-family="Open Sans" font-weight="normal" transform="matrix(1,0,0,1,0,-23.8)"><tspan id="v-9435"  dy="0em" x="0">Synchronizes</tspan><tspan id="v-9436"  dy="1.2em" x="0">with</tspan></text></g><g  id="v-9437" label-idx="1" cursor="move" transform="translate(1626, 1392.7)" style="opacity: 1;"><rect id="v-9439" fill="#ffffff" rx="3" ry="3" pointer-events="none" width="0" height="0" transform="matrix(1,0,0,1,0,0)"></rect><text id="v-9438" font-size="19px" y="0.8em" display="none" xml:space="preserve" text-anchor="middle" pointer-events="none" fill="#707070" font-family="Open Sans" font-weight="normal" transform="matrix(1,0,0,1,0,0)"><tspan id="v-9440"  dy="0em" x="0" style="fill-opacity: 0; stroke-opacity: 0;">-</tspan></text></g><g  id="v-9441" label-idx="2" cursor="move" transform="translate(1626, 1416.7)" style="opacity: 1;"><rect id="v-9443" fill="#ffffff" rx="3" ry="3" pointer-events="none"  display="none" width="0" height="0" transform="matrix(1,0,0,1,0,0)"></rect><text id="v-9442" font-size="19px" y="0.8em" display="none" xml:space="preserve" text-anchor="middle" pointer-events="none" fill="#707070" font-family="Open Sans" font-weight="normal"  transform="matrix(1,0,0,1,0,0)"><tspan id="v-9444"  dy="0em" x="0" style="fill-opacity: 0; stroke-opacity: 0;">-</tspan></text></g></g><g  display="none"></g><g  id="v-9449" display="none"><g  id="v-9429"><path  end="source" d="M 26 0 L 0 13 L 26 26 z"></path></g><g  id="v-9430"><path  end="target" d="M 26 0 L 0 13 L 26 26 z"></path></g></g><g  id="v-9448" display="none"><g  id="v-9428" transform="translate(1692.8756103515625, 1241.967041015625) "><g  event="remove"><circle r="11"></circle><path transform="scale(.8) translate(-16, -16)" d="M24.778,21.419 19.276,15.917 24.777,10.415 21.949,7.585 16.447,13.087 10.945,7.585 8.117,10.415 13.618,15.917 8.116,21.419 10.946,24.248 16.447,18.746 21.948,24.248z"></path><title>Remove link.</title></g><g  event="link:options"><circle r="11" transform="translate(25)"></circle><path fill="white" transform="scale(.55) translate(29, -16)" d="M31.229,17.736c0.064-0.571,0.104-1.148,0.104-1.736s-0.04-1.166-0.104-1.737l-4.377-1.557c-0.218-0.716-0.504-1.401-0.851-2.05l1.993-4.192c-0.725-0.91-1.549-1.734-2.458-2.459l-4.193,1.994c-0.647-0.347-1.334-0.632-2.049-0.849l-1.558-4.378C17.165,0.708,16.588,0.667,16,0.667s-1.166,0.041-1.737,0.105L12.707,5.15c-0.716,0.217-1.401,0.502-2.05,0.849L6.464,4.005C5.554,4.73,4.73,5.554,4.005,6.464l1.994,4.192c-0.347,0.648-0.632,1.334-0.849,2.05l-4.378,1.557C0.708,14.834,0.667,15.412,0.667,16s0.041,1.165,0.105,1.736l4.378,1.558c0.217,0.715,0.502,1.401,0.849,2.049l-1.994,4.193c0.725,0.909,1.549,1.733,2.459,2.458l4.192-1.993c0.648,0.347,1.334,0.633,2.05,0.851l1.557,4.377c0.571,0.064,1.148,0.104,1.737,0.104c0.588,0,1.165-0.04,1.736-0.104l1.558-4.377c0.715-0.218,1.399-0.504,2.049-0.851l4.193,1.993c0.909-0.725,1.733-1.549,2.458-2.458l-1.993-4.193c0.347-0.647,0.633-1.334,0.851-2.049L31.229,17.736zM16,20.871c-2.69,0-4.872-2.182-4.872-4.871c0-2.69,2.182-4.872,4.872-4.872c2.689,0,4.871,2.182,4.871,4.872C20.871,18.689,18.689,20.871,16,20.871z"></path><title>Link options.</title></g></g></g></g><g id="j_523"   ><path  stroke="#707070" id="v-9470" stroke-width="2" stroke-dasharray="30 30" fill="none" d="M 1902 1208 2078 1491" style="opacity: 1;"></path><path  fill="black" stroke="black" transform="translate(1902,1208) scale(1,1) rotate(58.0633239746094)"></path><path  fill="#707070" stroke="#707070" id="v-9472" d="M 20 0 L 0 10 L 20 20 z" transform="translate(2080.5136855775545,1513.2898202148833) scale(1,1) rotate(-121.93666076660156)" style="opacity: 1;"></path><path  id="v-9471" fill="none" d="M 1902 1208 2078 1491" style=""></path><title ></title><g ><g  id="v-9457" label-idx="0" cursor="move" transform="translate(1990, 1349.5)" style="opacity: 1;"><rect id="v-9459" fill="#ffffff" rx="3" ry="3" stroke="#ffffff" stroke-width="20px" pointer-events="none" width="158.62136840820312" height="61.421363830566406" transform="matrix(1,0,0,1,-79.3,-30.7)"></rect><text id="v-9458" font-size="24px" y="0.8em" xml:space="preserve" text-anchor="middle" pointer-events="none" fill="#707070" font-family="Open Sans" font-weight="normal" transform="matrix(1,0,0,1,0,-23.8)"><tspan id="v-9460"  dy="0em" x="0">Requests data</tspan><tspan id="v-9461"  dy="1.2em" x="0">from</tspan></text></g><g  id="v-9462" label-idx="1" cursor="move" transform="translate(1990, 1392.7)" style="opacity: 1;"><rect id="v-9464" fill="#ffffff" rx="3" ry="3" pointer-events="none" width="0" height="0" transform="matrix(1,0,0,1,0,0)"></rect><text id="v-9463" font-size="19px" y="0.8em" display="none" xml:space="preserve" text-anchor="middle" pointer-events="none" fill="#707070" font-family="Open Sans" font-weight="normal" transform="matrix(1,0,0,1,0,0)"><tspan id="v-9465"  dy="0em" x="0" style="fill-opacity: 0; stroke-opacity: 0;">-</tspan></text></g><g  id="v-9466" label-idx="2" cursor="move" transform="translate(1990, 1416.7)" style="opacity: 1;"><rect id="v-9468" fill="#ffffff" rx="3" ry="3" pointer-events="none"  display="none" width="0" height="0" transform="matrix(1,0,0,1,0,0)"></rect><text id="v-9467" font-size="19px" y="0.8em" display="none" xml:space="preserve" text-anchor="middle" pointer-events="none" fill="#707070" font-family="Open Sans" font-weight="normal"  transform="matrix(1,0,0,1,0,0)"><tspan id="v-9469"  dy="0em" x="0" style="fill-opacity: 0; stroke-opacity: 0;">-</tspan></text></g></g><g  display="none"></g><g  id="v-9474" display="none"><g  id="v-9454"><path  end="source" d="M 26 0 L 0 13 L 26 26 z"></path></g><g  id="v-9455"><path  end="target" d="M 26 0 L 0 13 L 26 26 z"></path></g></g><g  id="v-9473" display="none"><g  id="v-9453" transform="translate(1923.1243896484375, 1241.967041015625) "><g  event="remove"><circle r="11"></circle><path transform="scale(.8) translate(-16, -16)" d="M24.778,21.419 19.276,15.917 24.777,10.415 21.949,7.585 16.447,13.087 10.945,7.585 8.117,10.415 13.618,15.917 8.116,21.419 10.946,24.248 16.447,18.746 21.948,24.248z"></path><title>Remove link.</title></g><g  event="link:options"><circle r="11" transform="translate(25)"></circle><path fill="white" transform="scale(.55) translate(29, -16)" d="M31.229,17.736c0.064-0.571,0.104-1.148,0.104-1.736s-0.04-1.166-0.104-1.737l-4.377-1.557c-0.218-0.716-0.504-1.401-0.851-2.05l1.993-4.192c-0.725-0.91-1.549-1.734-2.458-2.459l-4.193,1.994c-0.647-0.347-1.334-0.632-2.049-0.849l-1.558-4.378C17.165,0.708,16.588,0.667,16,0.667s-1.166,0.041-1.737,0.105L12.707,5.15c-0.716,0.217-1.401,0.502-2.05,0.849L6.464,4.005C5.554,4.73,4.73,5.554,4.005,6.464l1.994,4.192c-0.347,0.648-0.632,1.334-0.849,2.05l-4.378,1.557C0.708,14.834,0.667,15.412,0.667,16s0.041,1.165,0.105,1.736l4.378,1.558c0.217,0.715,0.502,1.401,0.849,2.049l-1.994,4.193c0.725,0.909,1.549,1.733,2.459,2.458l4.192-1.993c0.648,0.347,1.334,0.633,2.05,0.851l1.557,4.377c0.571,0.064,1.148,0.104,1.737,0.104c0.588,0,1.165-0.04,1.736-0.104l1.558-4.377c0.715-0.218,1.399-0.504,2.049-0.851l4.193,1.993c0.909-0.725,1.733-1.549,2.458-2.458l-1.993-4.193c0.347-0.647,0.633-1.334,0.851-2.049L31.229,17.736zM16,20.871c-2.69,0-4.872-2.182-4.872-4.871c0-2.69,2.182-4.872,4.872-4.872c2.689,0,4.871,2.182,4.871,4.872C20.871,18.689,18.689,20.871,16,20.871z"></path><title>Link options.</title></g></g></g></g></g><defs id="v-4"></defs></svg>