<svg xmlns="http://www.w3.org/2000/svg" xmlns:xlink="http://www.w3.org/1999/xlink" version="1.1" viewBox="0 0 3208 3320" style="background: #ffffff"><g id="v-3" transform="matrix(1,0,0,1,0,0)"><g id="j_21" transform="translate(20,3275)"><g id="v-396"><text id="v-397" font-size="22px" y="0.8em" xml:space="preserve" font-weight="normal" text-anchor="start" fill="#aaaaaa" pointer-events="none" font-family="Open Sans" transform="matrix(1,0,0,1,0,0)"><tspan id="v-398" dy="0em" x="0">středa 30. listopadu 2022 11:52 Středoevropský standardní čas</tspan></text></g></g><g id="j_20" transform="translate(20,3229)"><g id="v-392"><text id="v-393" font-size="36px" y="0.8em" xml:space="preserve" font-weight="normal" text-anchor="start" fill="#000000" pointer-events="none" font-family="Open Sans" transform="matrix(1,0,0,1,0,0)"><tspan id="v-394" dy="0em" x="0">[Dynamic] DMS</tspan></text></g></g><g id="j_1" transform="translate(267,893)" style=""><g id="v-6"><rect id="v-7" width="1990" height="2213" rx="0" ry="0" fill="#ffffff" stroke="#0f5eaa" stroke-width="2" stroke-dasharray="20,20" pointer-events="none"></rect><text id="v-8" font-size="24px" y="2174" xml:space="preserve" font-weight="normal" fill="#0f5eaa" x="10" text-anchor="start" pointer-events="visible" font-family="Open Sans" transform="matrix(1,0,0,1,15,0)"><tspan id="v-11" dy="0em" x="0">DMS</tspan></text><text id="v-9" font-size="19px" y="2198" xml:space="preserve" font-weight="normal" fill="#0f5eaa" x="10" text-anchor="start" pointer-events="visible" font-family="Open Sans" transform="matrix(1,0,0,1,15,0)"><tspan id="v-12" dy="0em" x="0">[Software System]</tspan></text><image id="v-10" pointer-events="visible"></image></g></g><g id="j_2" transform="translate(1766,213)" style=""><g id="v-18" style="opacity: 1;"><rect x="0" y="160" width="400" height="240" rx="70" id="v-20" stroke="#073b6f" stroke-width="2" pointer-events="visiblePainted" fill="#08427b"></rect><circle cx="200" cy="88.88888888888889" r="88.88888888888889" id="v-19" stroke="#073b6f" stroke-width="2" pointer-events="visiblePainted" fill="#08427b"></circle><line x1="80" y1="266.6666666666667" x2="80" y2="400" id="v-26" stroke="#073b6f" stroke-width="2"></line><line x1="320" y1="266.6666666666667" x2="320" y2="400" id="v-27" stroke="#073b6f" stroke-width="2"></line><text id="v-21" font-size="34px" y="0.8em" xml:space="preserve" font-weight="bold" text-anchor="middle" pointer-events="visible" font-family="Open Sans" fill="#ffffff" transform="matrix(1,0,0,1,200,220)"><tspan id="v-28" dy="0em" x="0">Department Supplier</tspan></text><text id="v-22" font-size="19px" y="0.8em" xml:space="preserve" text-anchor="middle" font-family="Open Sans" fill="#ffffff" transform="matrix(1,0,0,1,200,262.5)"><tspan id="v-29" dy="0em" x="0">[Person]</tspan></text><text id="v-23" font-size="24px" y="0.8em" xml:space="preserve" text-anchor="middle" font-family="Open Sans" fill="#ffffff" transform="matrix(1,0,0,1,200,310)"><tspan id="v-30" dy="0em" x="0">Delivers drugs to departments</tspan></text><text id="v-24" font-weight="bold" text-anchor="middle" font-family="Open Sans" fill="#ffffff" font-size="24" transform="matrix(1,0,0,1,200,371.2)" display="none"></text><image id="v-25"></image></g></g><g id="j_3" transform="translate(991,2113)" style=""><g id="v-36" style="opacity: 1;"><rect id="v-37" rx="20" ry="20" stroke="#3c7fc0" stroke-width="2" pointer-events="visiblePainted" fill="#438dd5" width="450" height="300"></rect><text id="v-38" font-size="34" y="0.8em" xml:space="preserve" font-weight="bold" text-anchor="middle" pointer-events="visible" font-family="Open Sans" fill="#ffffff" transform="matrix(1,0,0,1,225,75)"><tspan id="v-43" dy="0em" x="0">Drug Monitoring Server</tspan></text><text id="v-39" font-size="19" y="0.8em" xml:space="preserve" text-anchor="middle" font-family="Open Sans" fill="#ffffff" transform="matrix(1,0,0,1,225,117.5)"><tspan id="v-44" dy="0em" x="0">[Container]</tspan></text><text id="v-40" font-size="24" y="0.8em" xml:space="preserve" text-anchor="middle" font-family="Open Sans" fill="#ffffff" transform="matrix(1,0,0,1,225,165)"><tspan id="v-45" dy="0em" x="0">Provides package history, handle</tspan><tspan id="v-46" dy="1.2em" x="0">status updating requests</tspan></text><text id="v-41" font-weight="bold" text-anchor="middle" font-family="Open Sans" fill="#ffffff" font-size="24" transform="matrix(1,0,0,1,225,270)" y="0.8em" display="none" xml:space="preserve"><tspan id="v-47" dy="0em" x="0" style="fill-opacity: 0; stroke-opacity: 0;">-</tspan></text><image id="v-42"></image></g></g><g id="j_4" transform="translate(1741,1513)" style=""><g id="v-51" style="opacity: 1;"><rect id="v-52" rx="20" ry="20" stroke="#3c7fc0" stroke-width="2" pointer-events="visiblePainted" fill="#438dd5" width="450" height="300"></rect><text id="v-53" font-size="34" y="0.8em" xml:space="preserve" font-weight="bold" text-anchor="middle" pointer-events="visible" font-family="Open Sans" fill="#ffffff" transform="matrix(1,0,0,1,225,90)"><tspan id="v-58" dy="0em" x="0">Security gate</tspan></text><text id="v-54" font-size="19" y="0.8em" xml:space="preserve" text-anchor="middle" font-family="Open Sans" fill="#ffffff" transform="matrix(1,0,0,1,225,132.5)"><tspan id="v-59" dy="0em" x="0">[Container]</tspan></text><text id="v-55" font-size="24" y="0.8em" xml:space="preserve" text-anchor="middle" font-family="Open Sans" fill="#ffffff" transform="matrix(1,0,0,1,225,180)"><tspan id="v-60" dy="0em" x="0">Security gate for user autorization</tspan></text><text id="v-56" font-weight="bold" text-anchor="middle" font-family="Open Sans" fill="#ffffff" font-size="24" transform="matrix(1,0,0,1,225,270)" y="0.8em" display="none" xml:space="preserve"><tspan id="v-61" dy="0em" x="0" style="fill-opacity: 0; stroke-opacity: 0;">-</tspan></text><image id="v-57"></image></g></g><g id="j_5" transform="translate(1787,2713)" style=""><g id="v-67" style="opacity: 1;"><rect id="v-68" rx="20" ry="20" stroke="#3c7fc0" stroke-width="2" pointer-events="visiblePainted" fill="#438dd5" width="450" height="300"></rect><text id="v-69" font-size="34" y="0.8em" xml:space="preserve" font-weight="bold" text-anchor="middle" pointer-events="visible" font-family="Open Sans" fill="#ffffff" transform="matrix(1,0,0,1,225,68.8)"><tspan id="v-74" dy="0em" x="0">Storage Database of</tspan><tspan id="v-75" dy="1.2em" x="0">Drugs</tspan></text><text id="v-70" font-size="19" y="0.8em" xml:space="preserve" text-anchor="middle" font-family="Open Sans" fill="#ffffff" transform="matrix(1,0,0,1,225,153.8)"><tspan id="v-76" dy="0em" x="0">[Container]</tspan></text><text id="v-71" font-size="24" y="0.8em" xml:space="preserve" text-anchor="middle" font-family="Open Sans" fill="#ffffff" transform="matrix(1,0,0,1,225,201.2)"><tspan id="v-77" dy="0em" x="0">Database of drugs located in store</tspan></text><text id="v-72" font-weight="bold" text-anchor="middle" font-family="Open Sans" fill="#ffffff" font-size="24" transform="matrix(1,0,0,1,225,270)" y="0.8em" display="none" xml:space="preserve"><tspan id="v-78" dy="0em" x="0" style="fill-opacity: 0; stroke-opacity: 0;">-</tspan></text><image id="v-73"></image></g></g><g id="j_6" transform="translate(1741,913)" style=""><g id="v-84" style="opacity: 1;"><rect id="v-85" rx="20" ry="20" stroke="#3c7fc0" stroke-width="2" pointer-events="visiblePainted" fill="#438dd5" width="450" height="300"></rect><text id="v-86" font-size="34" y="0.8em" xml:space="preserve" font-weight="bold" text-anchor="middle" pointer-events="visible" font-family="Open Sans" fill="#ffffff" transform="matrix(1,0,0,1,225,75)"><tspan id="v-91" dy="0em" x="0">Supplier Application</tspan></text><text id="v-87" font-size="19" y="0.8em" xml:space="preserve" text-anchor="middle" font-family="Open Sans" fill="#ffffff" transform="matrix(1,0,0,1,225,117.5)"><tspan id="v-92" dy="0em" x="0">[Container]</tspan></text><text id="v-88" font-size="24" y="0.8em" xml:space="preserve" text-anchor="middle" font-family="Open Sans" fill="#ffffff" transform="matrix(1,0,0,1,225,165)"><tspan id="v-93" dy="0em" x="0">enables access to drug located in</tspan><tspan id="v-94" dy="1.2em" x="0">storage and in departments</tspan></text><text id="v-89" font-weight="bold" text-anchor="middle" font-family="Open Sans" fill="#ffffff" font-size="24" transform="matrix(1,0,0,1,225,270)" y="0.8em" display="none" xml:space="preserve"><tspan id="v-95" dy="0em" x="0" style="fill-opacity: 0; stroke-opacity: 0;">-</tspan></text><image id="v-90"></image></g></g><g id="j_7" transform="translate(1741,2113)" style=""><g id="v-99" style="opacity: 1;"><rect id="v-100" rx="20" ry="20" stroke="#3c7fc0" stroke-width="2" pointer-events="visiblePainted" fill="#438dd5" width="450" height="300"></rect><text id="v-101" font-size="34" y="0.8em" xml:space="preserve" font-weight="bold" text-anchor="middle" pointer-events="visible" font-family="Open Sans" fill="#ffffff" transform="matrix(1,0,0,1,225,60)"><tspan id="v-106" dy="0em" x="0">Storage Server</tspan></text><text id="v-102" font-size="19" y="0.8em" xml:space="preserve" text-anchor="middle" font-family="Open Sans" fill="#ffffff" transform="matrix(1,0,0,1,225,102.5)"><tspan id="v-107" dy="0em" x="0">[Container]</tspan></text><text id="v-103" font-size="24" y="0.8em" xml:space="preserve" text-anchor="middle" font-family="Open Sans" fill="#ffffff" transform="matrix(1,0,0,1,225,150)"><tspan id="v-108" dy="0em" x="0">Enable drug ordering and their</tspan><tspan id="v-109" dy="1.2em" x="0">distribituion between hospital</tspan><tspan id="v-110" dy="1.2em" x="0">departments</tspan></text><text id="v-104" font-weight="bold" text-anchor="middle" font-family="Open Sans" fill="#ffffff" font-size="24" transform="matrix(1,0,0,1,225,270)" y="0.8em" display="none" xml:space="preserve"><tspan id="v-111" dy="0em" x="0" style="fill-opacity: 0; stroke-opacity: 0;">-</tspan></text><image id="v-105"></image></g></g><g id="j_8" transform="translate(1037,2713)" style=""><g id="v-117" style="opacity: 1;"><rect id="v-118" rx="20" ry="20" stroke="#3c7fc0" stroke-width="2" pointer-events="visiblePainted" fill="#438dd5" width="450" height="300"></rect><text id="v-119" font-size="34" y="0.8em" xml:space="preserve" font-weight="bold" text-anchor="middle" pointer-events="visible" font-family="Open Sans" fill="#ffffff" transform="matrix(1,0,0,1,225,68.8)"><tspan id="v-124" dy="0em" x="0">User Activity Record</tspan><tspan id="v-125" dy="1.2em" x="0">Database</tspan></text><text id="v-120" font-size="19" y="0.8em" xml:space="preserve" text-anchor="middle" font-family="Open Sans" fill="#ffffff" transform="matrix(1,0,0,1,225,153.8)"><tspan id="v-126" dy="0em" x="0">[Container]</tspan></text><text id="v-121" font-size="24" y="0.8em" xml:space="preserve" text-anchor="middle" font-family="Open Sans" fill="#ffffff" transform="matrix(1,0,0,1,225,201.2)"><tspan id="v-127" dy="0em" x="0">Database to store user activity</tspan></text><text id="v-122" font-weight="bold" text-anchor="middle" font-family="Open Sans" fill="#ffffff" font-size="24" transform="matrix(1,0,0,1,225,270)" y="0.8em" display="none" xml:space="preserve"><tspan id="v-128" dy="0em" x="0" style="fill-opacity: 0; stroke-opacity: 0;">-</tspan></text><image id="v-123"></image></g></g><g id="j_9" transform="translate(2491,2113)" style=""><g id="v-134" style="opacity: 1;"><rect id="v-135" rx="20" ry="20" stroke="#0f5eaa" stroke-width="2" pointer-events="visiblePainted" fill="#1168bd" width="450" height="300"></rect><text id="v-136" font-size="34" y="0.8em" xml:space="preserve" font-weight="bold" text-anchor="middle" pointer-events="visible" font-family="Open Sans" fill="#ffffff" transform="matrix(1,0,0,1,225,53.8)"><tspan id="v-141" dy="0em" x="0">Hospital Authorization</tspan><tspan id="v-142" dy="1.2em" x="0">System</tspan></text><text id="v-137" font-size="19" y="0.8em" xml:space="preserve" text-anchor="middle" font-family="Open Sans" fill="#ffffff" transform="matrix(1,0,0,1,225,138.8)"><tspan id="v-143" dy="0em" x="0">[Software System]</tspan></text><text id="v-138" font-size="24" y="0.8em" xml:space="preserve" text-anchor="middle" font-family="Open Sans" fill="#ffffff" transform="matrix(1,0,0,1,225,186.3)"><tspan id="v-144" dy="0em" x="0">Hospital system for handling login</tspan><tspan id="v-145" dy="1.2em" x="0">requests</tspan></text><text id="v-139" font-weight="bold" text-anchor="middle" font-family="Open Sans" fill="#ffffff" font-size="24" transform="matrix(1,0,0,1,225,270)" y="0.8em" display="none" xml:space="preserve"><tspan id="v-146" dy="0em" x="0" style="fill-opacity: 0; stroke-opacity: 0;">-</tspan></text><image id="v-140"></image></g></g><g id="j_10" transform="translate(287,2713)" style=""><g id="v-152" style="opacity: 1;"><rect id="v-153" rx="20" ry="20" stroke="#3c7fc0" stroke-width="2" pointer-events="visiblePainted" fill="#438dd5" width="450" height="300"></rect><text id="v-154" font-size="34" y="0.8em" xml:space="preserve" font-weight="bold" text-anchor="middle" pointer-events="visible" font-family="Open Sans" fill="#ffffff" transform="matrix(1,0,0,1,225,53.8)"><tspan id="v-159" dy="0em" x="0">Hospital Database of</tspan><tspan id="v-160" dy="1.2em" x="0">Drugs</tspan></text><text id="v-155" font-size="19" y="0.8em" xml:space="preserve" text-anchor="middle" font-family="Open Sans" fill="#ffffff" transform="matrix(1,0,0,1,225,138.8)"><tspan id="v-161" dy="0em" x="0">[Container]</tspan></text><text id="v-156" font-size="24" y="0.8em" xml:space="preserve" text-anchor="middle" font-family="Open Sans" fill="#ffffff" transform="matrix(1,0,0,1,225,186.3)"><tspan id="v-162" dy="0em" x="0">Database of drugs located in</tspan><tspan id="v-163" dy="1.2em" x="0">departments</tspan></text><text id="v-157" font-weight="bold" text-anchor="middle" font-family="Open Sans" fill="#ffffff" font-size="24" transform="matrix(1,0,0,1,225,270)" y="0.8em" display="none" xml:space="preserve"><tspan id="v-164" dy="0em" x="0" style="fill-opacity: 0; stroke-opacity: 0;">-</tspan></text><image id="v-158"></image></g></g><g id="j_11"><path stroke="#707070" id="v-187" stroke-width="2" stroke-dasharray="30 30" fill="none" d="M 1966 613 1966 893"></path><path fill="black" stroke="black" transform="translate(1966,613) scale(1,1) rotate(-270)"></path><path fill="#707070" stroke="#707070" id="v-189" d="M 20 0 L 0 10 L 20 20 z" transform="translate(1956,913) scale(1,1) rotate(-90)"></path><path id="v-188" fill="none" d="M 1966 613 1966 893" style=""></path><title></title><g><g id="v-172" label-idx="0" cursor="move" transform="translate(1966, 753)"><rect id="v-174" fill="#ffffff" rx="3" ry="3" stroke="#ffffff" stroke-width="20px" pointer-events="none" width="149.66517639160156" height="118.26180267333984" transform="matrix(1,0,0,1,-74.2,-59.1)"></rect><text id="v-173" font-size="24px" y="0.8em" xml:space="preserve" text-anchor="middle" pointer-events="none" fill="#707070" font-family="Open Sans" font-weight="normal" transform="matrix(1,0,0,1,0,-52.8)"><tspan id="v-175" dy="0em" x="0">1: Distributes</tspan><tspan id="v-176" dy="1.2em" x="0">drugs from</tspan><tspan id="v-177" dy="1.2em" x="0">storage to</tspan><tspan id="v-178" dy="1.2em" x="0">departments</tspan></text></g><g id="v-179" label-idx="1" cursor="move" transform="translate(1966, 822.6)"><rect id="v-181" fill="#ffffff" rx="3" ry="3" pointer-events="none" width="0" height="0" transform="matrix(1,0,0,1,0,0)"></rect><text id="v-180" font-size="19px" y="0.8em" display="none" xml:space="preserve" text-anchor="middle" pointer-events="none" fill="#707070" font-family="Open Sans" font-weight="normal" transform="matrix(1,0,0,1,0,0)"><tspan id="v-182" dy="0em" x="0" style="fill-opacity: 0; stroke-opacity: 0;">-</tspan></text></g><g id="v-183" label-idx="2" cursor="move" transform="translate(1966, 846.6)"><rect id="v-185" fill="#ffffff" rx="3" ry="3" pointer-events="none" display="none" width="0" height="0" transform="matrix(1,0,0,1,0,0)"></rect><text id="v-184" font-size="19px" y="0.8em" display="none" xml:space="preserve" text-anchor="middle" pointer-events="none" fill="#707070" font-family="Open Sans" font-weight="normal" transform="matrix(1,0,0,1,0,0)"><tspan id="v-186" dy="0em" x="0" style="fill-opacity: 0; stroke-opacity: 0;">-</tspan></text></g></g><g display="none"></g><g id="v-191" display="none"><g id="v-169"><path end="source" d="M 26 0 L 0 13 L 26 26 z"></path></g><g id="v-170"><path end="target" d="M 26 0 L 0 13 L 26 26 z"></path></g></g><g id="v-190" display="none"><g id="v-168" transform="translate(1966, 653) "><g event="remove"><circle r="11"></circle><path transform="scale(.8) translate(-16, -16)" d="M24.778,21.419 19.276,15.917 24.777,10.415 21.949,7.585 16.447,13.087 10.945,7.585 8.117,10.415 13.618,15.917 8.116,21.419 10.946,24.248 16.447,18.746 21.948,24.248z"></path><title>Remove link.</title></g><g event="link:options"><circle r="11" transform="translate(25)"></circle><path fill="white" transform="scale(.55) translate(29, -16)" d="M31.229,17.736c0.064-0.571,0.104-1.148,0.104-1.736s-0.04-1.166-0.104-1.737l-4.377-1.557c-0.218-0.716-0.504-1.401-0.851-2.05l1.993-4.192c-0.725-0.91-1.549-1.734-2.458-2.459l-4.193,1.994c-0.647-0.347-1.334-0.632-2.049-0.849l-1.558-4.378C17.165,0.708,16.588,0.667,16,0.667s-1.166,0.041-1.737,0.105L12.707,5.15c-0.716,0.217-1.401,0.502-2.05,0.849L6.464,4.005C5.554,4.73,4.73,5.554,4.005,6.464l1.994,4.192c-0.347,0.648-0.632,1.334-0.849,2.05l-4.378,1.557C0.708,14.834,0.667,15.412,0.667,16s0.041,1.165,0.105,1.736l4.378,1.558c0.217,0.715,0.502,1.401,0.849,2.049l-1.994,4.193c0.725,0.909,1.549,1.733,2.459,2.458l4.192-1.993c0.648,0.347,1.334,0.633,2.05,0.851l1.557,4.377c0.571,0.064,1.148,0.104,1.737,0.104c0.588,0,1.165-0.04,1.736-0.104l1.558-4.377c0.715-0.218,1.399-0.504,2.049-0.851l4.193,1.993c0.909-0.725,1.733-1.549,2.458-2.458l-1.993-4.193c0.347-0.647,0.633-1.334,0.851-2.049L31.229,17.736zM16,20.871c-2.69,0-4.872-2.182-4.872-4.871c0-2.69,2.182-4.872,4.872-4.872c2.689,0,4.871,2.182,4.871,4.872C20.871,18.689,18.689,20.871,16,20.871z"></path><title>Link options.</title></g></g></g></g><g id="j_12"><path stroke="#707070" id="v-212" stroke-width="2" stroke-dasharray="30 30" fill="none" d="M 1966 1213 1966 1493"></path><path fill="black" stroke="black" transform="translate(1966,1213) scale(1,1) rotate(-270)"></path><path fill="#707070" stroke="#707070" id="v-214" d="M 20 0 L 0 10 L 20 20 z" transform="translate(1956,1513) scale(1,1) rotate(-90)"></path><path id="v-213" fill="none" d="M 1966 1213 1966 1493" style=""></path><title></title><g><g id="v-199" label-idx="0" cursor="move" transform="translate(1966, 1353)"><rect id="v-201" fill="#ffffff" rx="3" ry="3" stroke="#ffffff" stroke-width="20px" pointer-events="none" width="198.74253845214844" height="60.66180229187012" transform="matrix(1,0,0,1,-98.7,-30.3)"></rect><text id="v-200" font-size="24px" y="0.8em" xml:space="preserve" text-anchor="middle" pointer-events="none" fill="#707070" font-family="Open Sans" font-weight="normal" transform="matrix(1,0,0,1,0,-24)"><tspan id="v-202" dy="0em" x="0">2: Sends verify</tspan><tspan id="v-203" dy="1.2em" x="0">request (supplier)</tspan></text></g><g id="v-204" label-idx="1" cursor="move" transform="translate(1966, 1396.2)"><rect id="v-206" fill="#ffffff" rx="3" ry="3" pointer-events="none" width="0" height="0" transform="matrix(1,0,0,1,0,0)"></rect><text id="v-205" font-size="19px" y="0.8em" display="none" xml:space="preserve" text-anchor="middle" pointer-events="none" fill="#707070" font-family="Open Sans" font-weight="normal" transform="matrix(1,0,0,1,0,0)"><tspan id="v-207" dy="0em" x="0" style="fill-opacity: 0; stroke-opacity: 0;">-</tspan></text></g><g id="v-208" label-idx="2" cursor="move" transform="translate(1966, 1420.2)"><rect id="v-210" fill="#ffffff" rx="3" ry="3" pointer-events="none" display="none" width="0" height="0" transform="matrix(1,0,0,1,0,0)"></rect><text id="v-209" font-size="19px" y="0.8em" display="none" xml:space="preserve" text-anchor="middle" pointer-events="none" fill="#707070" font-family="Open Sans" font-weight="normal" transform="matrix(1,0,0,1,0,0)"><tspan id="v-211" dy="0em" x="0" style="fill-opacity: 0; stroke-opacity: 0;">-</tspan></text></g></g><g display="none"></g><g id="v-216" display="none"><g id="v-196"><path end="source" d="M 26 0 L 0 13 L 26 26 z"></path></g><g id="v-197"><path end="target" d="M 26 0 L 0 13 L 26 26 z"></path></g></g><g id="v-215" display="none"><g id="v-195" transform="translate(1966, 1253) "><g event="remove"><circle r="11"></circle><path transform="scale(.8) translate(-16, -16)" d="M24.778,21.419 19.276,15.917 24.777,10.415 21.949,7.585 16.447,13.087 10.945,7.585 8.117,10.415 13.618,15.917 8.116,21.419 10.946,24.248 16.447,18.746 21.948,24.248z"></path><title>Remove link.</title></g><g event="link:options"><circle r="11" transform="translate(25)"></circle><path fill="white" transform="scale(.55) translate(29, -16)" d="M31.229,17.736c0.064-0.571,0.104-1.148,0.104-1.736s-0.04-1.166-0.104-1.737l-4.377-1.557c-0.218-0.716-0.504-1.401-0.851-2.05l1.993-4.192c-0.725-0.91-1.549-1.734-2.458-2.459l-4.193,1.994c-0.647-0.347-1.334-0.632-2.049-0.849l-1.558-4.378C17.165,0.708,16.588,0.667,16,0.667s-1.166,0.041-1.737,0.105L12.707,5.15c-0.716,0.217-1.401,0.502-2.05,0.849L6.464,4.005C5.554,4.73,4.73,5.554,4.005,6.464l1.994,4.192c-0.347,0.648-0.632,1.334-0.849,2.05l-4.378,1.557C0.708,14.834,0.667,15.412,0.667,16s0.041,1.165,0.105,1.736l4.378,1.558c0.217,0.715,0.502,1.401,0.849,2.049l-1.994,4.193c0.725,0.909,1.549,1.733,2.459,2.458l4.192-1.993c0.648,0.347,1.334,0.633,2.05,0.851l1.557,4.377c0.571,0.064,1.148,0.104,1.737,0.104c0.588,0,1.165-0.04,1.736-0.104l1.558-4.377c0.715-0.218,1.399-0.504,2.049-0.851l4.193,1.993c0.909-0.725,1.733-1.549,2.458-2.458l-1.993-4.193c0.347-0.647,0.633-1.334,0.851-2.049L31.229,17.736zM16,20.871c-2.69,0-4.872-2.182-4.872-4.871c0-2.69,2.182-4.872,4.872-4.872c2.689,0,4.871,2.182,4.871,4.872C20.871,18.689,18.689,20.871,16,20.871z"></path><title>Link options.</title></g></g></g></g><g id="j_13"><path stroke="#707070" id="v-236" stroke-width="2" stroke-dasharray="30 30" fill="none" d="M 2154 1813 2513 2101"></path><path fill="black" stroke="black" transform="translate(2154,1813) scale(1,1) rotate(38.659820556640625)"></path><path fill="#707070" stroke="#707070" id="v-238" d="M 20 0 L 0 10 L 20 20 z" transform="translate(2522.753144594102,2120.808568176895) scale(1,1) rotate(-141.34019470214844)"></path><path id="v-237" fill="none" d="M 2154 1813 2513 2101" style=""></path><title></title><g><g id="v-224" label-idx="0" cursor="move" transform="translate(2333.5, 1957)"><rect id="v-226" fill="#ffffff" rx="3" ry="3" stroke="#ffffff" stroke-width="20px" pointer-events="none" width="177.85720825195312" height="31.86180305480957" transform="matrix(1,0,0,1,-88.5,-15.9)"></rect><text id="v-225" font-size="24px" y="0.8em" xml:space="preserve" text-anchor="middle" pointer-events="none" fill="#707070" font-family="Open Sans" font-weight="normal" transform="matrix(1,0,0,1,0,-9.6)"><tspan id="v-227" dy="0em" x="0">3: verifying user</tspan></text></g><g id="v-228" label-idx="1" cursor="move" transform="translate(2333.5, 1988.2)"><rect id="v-230" fill="#ffffff" rx="3" ry="3" pointer-events="none" width="0" height="0" transform="matrix(1,0,0,1,0,0)"></rect><text id="v-229" font-size="19px" y="0.8em" display="none" xml:space="preserve" text-anchor="middle" pointer-events="none" fill="#707070" font-family="Open Sans" font-weight="normal" transform="matrix(1,0,0,1,0,0)"><tspan id="v-231" dy="0em" x="0" style="fill-opacity: 0; stroke-opacity: 0;">-</tspan></text></g><g id="v-232" label-idx="2" cursor="move" transform="translate(2333.5, 2012.2)"><rect id="v-234" fill="#ffffff" rx="3" ry="3" pointer-events="none" display="none" width="0" height="0" transform="matrix(1,0,0,1,0,0)"></rect><text id="v-233" font-size="19px" y="0.8em" display="none" xml:space="preserve" text-anchor="middle" pointer-events="none" fill="#707070" font-family="Open Sans" font-weight="normal" transform="matrix(1,0,0,1,0,0)"><tspan id="v-235" dy="0em" x="0" style="fill-opacity: 0; stroke-opacity: 0;">-</tspan></text></g></g><g display="none"></g><g id="v-240" display="none"><g id="v-221"><path end="source" d="M 26 0 L 0 13 L 26 26 z"></path></g><g id="v-222"><path end="target" d="M 26 0 L 0 13 L 26 26 z"></path></g></g><g id="v-239" display="none"><g id="v-220" transform="translate(2185.20068359375, 1838.0301513671875) "><g event="remove"><circle r="11"></circle><path transform="scale(.8) translate(-16, -16)" d="M24.778,21.419 19.276,15.917 24.777,10.415 21.949,7.585 16.447,13.087 10.945,7.585 8.117,10.415 13.618,15.917 8.116,21.419 10.946,24.248 16.447,18.746 21.948,24.248z"></path><title>Remove link.</title></g><g event="link:options"><circle r="11" transform="translate(25)"></circle><path fill="white" transform="scale(.55) translate(29, -16)" d="M31.229,17.736c0.064-0.571,0.104-1.148,0.104-1.736s-0.04-1.166-0.104-1.737l-4.377-1.557c-0.218-0.716-0.504-1.401-0.851-2.05l1.993-4.192c-0.725-0.91-1.549-1.734-2.458-2.459l-4.193,1.994c-0.647-0.347-1.334-0.632-2.049-0.849l-1.558-4.378C17.165,0.708,16.588,0.667,16,0.667s-1.166,0.041-1.737,0.105L12.707,5.15c-0.716,0.217-1.401,0.502-2.05,0.849L6.464,4.005C5.554,4.73,4.73,5.554,4.005,6.464l1.994,4.192c-0.347,0.648-0.632,1.334-0.849,2.05l-4.378,1.557C0.708,14.834,0.667,15.412,0.667,16s0.041,1.165,0.105,1.736l4.378,1.558c0.217,0.715,0.502,1.401,0.849,2.049l-1.994,4.193c0.725,0.909,1.549,1.733,2.459,2.458l4.192-1.993c0.648,0.347,1.334,0.633,2.05,0.851l1.557,4.377c0.571,0.064,1.148,0.104,1.737,0.104c0.588,0,1.165-0.04,1.736-0.104l1.558-4.377c0.715-0.218,1.399-0.504,2.049-0.851l4.193,1.993c0.909-0.725,1.733-1.549,2.458-2.458l-1.993-4.193c0.347-0.647,0.633-1.334,0.851-2.049L31.229,17.736zM16,20.871c-2.69,0-4.872-2.182-4.872-4.871c0-2.69,2.182-4.872,4.872-4.872c2.689,0,4.871,2.182,4.871,4.872C20.871,18.689,18.689,20.871,16,20.871z"></path><title>Link options.</title></g></g></g></g><g id="j_14"><path stroke="#707070" id="v-262" stroke-width="2" stroke-dasharray="30 30" fill="none" d="M 1966 1813 1966 2093"></path><path fill="black" stroke="black" transform="translate(1966,1813) scale(1,1) rotate(-270)"></path><path fill="#707070" stroke="#707070" id="v-264" d="M 20 0 L 0 10 L 20 20 z" transform="translate(1956,2113) scale(1,1) rotate(-90)"></path><path id="v-263" fill="none" d="M 1966 1813 1966 2093" style=""></path><title></title><g><g id="v-248" label-idx="0" cursor="move" transform="translate(1966, 1953)"><rect id="v-250" fill="#ffffff" rx="3" ry="3" stroke="#ffffff" stroke-width="20px" pointer-events="none" width="178.70260620117188" height="89.46180725097656" transform="matrix(1,0,0,1,-89.5,-44.7)"></rect><text id="v-249" font-size="24px" y="0.8em" xml:space="preserve" text-anchor="middle" pointer-events="none" fill="#707070" font-family="Open Sans" font-weight="normal" transform="matrix(1,0,0,1,0,-38.4)"><tspan id="v-251" dy="0em" x="0">4: fetching drug</tspan><tspan id="v-252" dy="1.2em" x="0">from storage</tspan><tspan id="v-253" dy="1.2em" x="0">request</tspan></text></g><g id="v-254" label-idx="1" cursor="move" transform="translate(1966, 2010.6)"><rect id="v-256" fill="#ffffff" rx="3" ry="3" pointer-events="none" width="0" height="0" transform="matrix(1,0,0,1,0,0)"></rect><text id="v-255" font-size="19px" y="0.8em" display="none" xml:space="preserve" text-anchor="middle" pointer-events="none" fill="#707070" font-family="Open Sans" font-weight="normal" transform="matrix(1,0,0,1,0,0)"><tspan id="v-257" dy="0em" x="0" style="fill-opacity: 0; stroke-opacity: 0;">-</tspan></text></g><g id="v-258" label-idx="2" cursor="move" transform="translate(1966, 2034.6)"><rect id="v-260" fill="#ffffff" rx="3" ry="3" pointer-events="none" display="none" width="0" height="0" transform="matrix(1,0,0,1,0,0)"></rect><text id="v-259" font-size="19px" y="0.8em" display="none" xml:space="preserve" text-anchor="middle" pointer-events="none" fill="#707070" font-family="Open Sans" font-weight="normal" transform="matrix(1,0,0,1,0,0)"><tspan id="v-261" dy="0em" x="0" style="fill-opacity: 0; stroke-opacity: 0;">-</tspan></text></g></g><g display="none"></g><g id="v-266" display="none"><g id="v-245"><path end="source" d="M 26 0 L 0 13 L 26 26 z"></path></g><g id="v-246"><path end="target" d="M 26 0 L 0 13 L 26 26 z"></path></g></g><g id="v-265" display="none"><g id="v-244" transform="translate(1966, 1853) "><g event="remove"><circle r="11"></circle><path transform="scale(.8) translate(-16, -16)" d="M24.778,21.419 19.276,15.917 24.777,10.415 21.949,7.585 16.447,13.087 10.945,7.585 8.117,10.415 13.618,15.917 8.116,21.419 10.946,24.248 16.447,18.746 21.948,24.248z"></path><title>Remove link.</title></g><g event="link:options"><circle r="11" transform="translate(25)"></circle><path fill="white" transform="scale(.55) translate(29, -16)" d="M31.229,17.736c0.064-0.571,0.104-1.148,0.104-1.736s-0.04-1.166-0.104-1.737l-4.377-1.557c-0.218-0.716-0.504-1.401-0.851-2.05l1.993-4.192c-0.725-0.91-1.549-1.734-2.458-2.459l-4.193,1.994c-0.647-0.347-1.334-0.632-2.049-0.849l-1.558-4.378C17.165,0.708,16.588,0.667,16,0.667s-1.166,0.041-1.737,0.105L12.707,5.15c-0.716,0.217-1.401,0.502-2.05,0.849L6.464,4.005C5.554,4.73,4.73,5.554,4.005,6.464l1.994,4.192c-0.347,0.648-0.632,1.334-0.849,2.05l-4.378,1.557C0.708,14.834,0.667,15.412,0.667,16s0.041,1.165,0.105,1.736l4.378,1.558c0.217,0.715,0.502,1.401,0.849,2.049l-1.994,4.193c0.725,0.909,1.549,1.733,2.459,2.458l4.192-1.993c0.648,0.347,1.334,0.633,2.05,0.851l1.557,4.377c0.571,0.064,1.148,0.104,1.737,0.104c0.588,0,1.165-0.04,1.736-0.104l1.558-4.377c0.715-0.218,1.399-0.504,2.049-0.851l4.193,1.993c0.909-0.725,1.733-1.549,2.458-2.458l-1.993-4.193c0.347-0.647,0.633-1.334,0.851-2.049L31.229,17.736zM16,20.871c-2.69,0-4.872-2.182-4.872-4.871c0-2.69,2.182-4.872,4.872-4.872c2.689,0,4.871,2.182,4.871,4.872C20.871,18.689,18.689,20.871,16,20.871z"></path><title>Link options.</title></g></g></g></g><g id="j_15"><path stroke="#707070" id="v-287" stroke-width="2" stroke-dasharray="30 30" fill="none" d="M 1978 2413 1999 2693"></path><path fill="black" stroke="black" transform="translate(1978,2413) scale(1,1) rotate(85.61590576171878)"></path><path fill="#707070" stroke="#707070" id="v-289" d="M 20 0 L 0 10 L 20 20 z" transform="translate(1991.0292793708493,2713.764460571473) scale(1,1) rotate(-94.38410186767578)"></path><path id="v-288" fill="none" d="M 1978 2413 1999 2693" style=""></path><title></title><g><g id="v-274" label-idx="0" cursor="move" transform="translate(1988.5, 2553)"><rect id="v-276" fill="#ffffff" rx="3" ry="3" stroke="#ffffff" stroke-width="20px" pointer-events="none" width="127.79625701904297" height="60.66180229187012" transform="matrix(1,0,0,1,-63,-30.3)"></rect><text id="v-275" font-size="24px" y="0.8em" xml:space="preserve" text-anchor="middle" pointer-events="none" fill="#707070" font-family="Open Sans" font-weight="normal" transform="matrix(1,0,0,1,0,-24)"><tspan id="v-277" dy="0em" x="0">5: updating</tspan><tspan id="v-278" dy="1.2em" x="0">databse</tspan></text></g><g id="v-279" label-idx="1" cursor="move" transform="translate(1988.5, 2596.2)"><rect id="v-281" fill="#ffffff" rx="3" ry="3" pointer-events="none" width="0" height="0" transform="matrix(1,0,0,1,0,0)"></rect><text id="v-280" font-size="19px" y="0.8em" display="none" xml:space="preserve" text-anchor="middle" pointer-events="none" fill="#707070" font-family="Open Sans" font-weight="normal" transform="matrix(1,0,0,1,0,0)"><tspan id="v-282" dy="0em" x="0" style="fill-opacity: 0; stroke-opacity: 0;">-</tspan></text></g><g id="v-283" label-idx="2" cursor="move" transform="translate(1988.5, 2620.2)"><rect id="v-285" fill="#ffffff" rx="3" ry="3" pointer-events="none" display="none" width="0" height="0" transform="matrix(1,0,0,1,0,0)"></rect><text id="v-284" font-size="19px" y="0.8em" display="none" xml:space="preserve" text-anchor="middle" pointer-events="none" fill="#707070" font-family="Open Sans" font-weight="normal" transform="matrix(1,0,0,1,0,0)"><tspan id="v-286" dy="0em" x="0" style="fill-opacity: 0; stroke-opacity: 0;">-</tspan></text></g></g><g display="none"></g><g id="v-291" display="none"><g id="v-271"><path end="source" d="M 26 0 L 0 13 L 26 26 z"></path></g><g id="v-272"><path end="target" d="M 26 0 L 0 13 L 26 26 z"></path></g></g><g id="v-290" display="none"><g id="v-270" transform="translate(1980.9915771484375, 2452.887939453125) "><g event="remove"><circle r="11"></circle><path transform="scale(.8) translate(-16, -16)" d="M24.778,21.419 19.276,15.917 24.777,10.415 21.949,7.585 16.447,13.087 10.945,7.585 8.117,10.415 13.618,15.917 8.116,21.419 10.946,24.248 16.447,18.746 21.948,24.248z"></path><title>Remove link.</title></g><g event="link:options"><circle r="11" transform="translate(25)"></circle><path fill="white" transform="scale(.55) translate(29, -16)" d="M31.229,17.736c0.064-0.571,0.104-1.148,0.104-1.736s-0.04-1.166-0.104-1.737l-4.377-1.557c-0.218-0.716-0.504-1.401-0.851-2.05l1.993-4.192c-0.725-0.91-1.549-1.734-2.458-2.459l-4.193,1.994c-0.647-0.347-1.334-0.632-2.049-0.849l-1.558-4.378C17.165,0.708,16.588,0.667,16,0.667s-1.166,0.041-1.737,0.105L12.707,5.15c-0.716,0.217-1.401,0.502-2.05,0.849L6.464,4.005C5.554,4.73,4.73,5.554,4.005,6.464l1.994,4.192c-0.347,0.648-0.632,1.334-0.849,2.05l-4.378,1.557C0.708,14.834,0.667,15.412,0.667,16s0.041,1.165,0.105,1.736l4.378,1.558c0.217,0.715,0.502,1.401,0.849,2.049l-1.994,4.193c0.725,0.909,1.549,1.733,2.459,2.458l4.192-1.993c0.648,0.347,1.334,0.633,2.05,0.851l1.557,4.377c0.571,0.064,1.148,0.104,1.737,0.104c0.588,0,1.165-0.04,1.736-0.104l1.558-4.377c0.715-0.218,1.399-0.504,2.049-0.851l4.193,1.993c0.909-0.725,1.733-1.549,2.458-2.458l-1.993-4.193c0.347-0.647,0.633-1.334,0.851-2.049L31.229,17.736zM16,20.871c-2.69,0-4.872-2.182-4.872-4.871c0-2.69,2.182-4.872,4.872-4.872c2.689,0,4.871,2.182,4.871,4.872C20.871,18.689,18.689,20.871,16,20.871z"></path><title>Link options.</title></g></g></g></g><g id="j_16"><path stroke="#707070" id="v-311" stroke-width="2" stroke-dasharray="30 30" fill="none" d="M 1790 2413 1453 2700"></path><path fill="black" stroke="black" transform="translate(1790,2413) scale(1,1) rotate(-220.44004821777344)"></path><path fill="#707070" stroke="#707070" id="v-313" d="M 20 0 L 0 10 L 20 20 z" transform="translate(1431.5134684370214,2705.3890970798284) scale(1,1) rotate(-40.44004821777344)"></path><path id="v-312" fill="none" d="M 1790 2413 1453 2700" style=""></path><title></title><g><g id="v-299" label-idx="0" cursor="move" transform="translate(1621.5, 2556.5)"><rect id="v-301" fill="#ffffff" rx="3" ry="3" stroke="#ffffff" stroke-width="20px" pointer-events="none" width="184.86419677734375" height="31.86180305480957" transform="matrix(1,0,0,1,-92.1,-15.9)"></rect><text id="v-300" font-size="24px" y="0.8em" xml:space="preserve" text-anchor="middle" pointer-events="none" fill="#707070" font-family="Open Sans" font-weight="normal" transform="matrix(1,0,0,1,0,-9.6)"><tspan id="v-302" dy="0em" x="0">6: record activity</tspan></text></g><g id="v-303" label-idx="1" cursor="move" transform="translate(1621.5, 2587.7)"><rect id="v-305" fill="#ffffff" rx="3" ry="3" pointer-events="none" width="0" height="0" transform="matrix(1,0,0,1,0,0)"></rect><text id="v-304" font-size="19px" y="0.8em" display="none" xml:space="preserve" text-anchor="middle" pointer-events="none" fill="#707070" font-family="Open Sans" font-weight="normal" transform="matrix(1,0,0,1,0,0)"><tspan id="v-306" dy="0em" x="0" style="fill-opacity: 0; stroke-opacity: 0;">-</tspan></text></g><g id="v-307" label-idx="2" cursor="move" transform="translate(1621.5, 2611.7)"><rect id="v-309" fill="#ffffff" rx="3" ry="3" pointer-events="none" display="none" width="0" height="0" transform="matrix(1,0,0,1,0,0)"></rect><text id="v-308" font-size="19px" y="0.8em" display="none" xml:space="preserve" text-anchor="middle" pointer-events="none" fill="#707070" font-family="Open Sans" font-weight="normal" transform="matrix(1,0,0,1,0,0)"><tspan id="v-310" dy="0em" x="0" style="fill-opacity: 0; stroke-opacity: 0;">-</tspan></text></g></g><g display="none"></g><g id="v-315" display="none"><g id="v-296"><path end="source" d="M 26 0 L 0 13 L 26 26 z"></path></g><g id="v-297"><path end="target" d="M 26 0 L 0 13 L 26 26 z"></path></g></g><g id="v-314" display="none"><g id="v-295" transform="translate(1759.5469970703125, 2438.934814453125) "><g event="remove"><circle r="11"></circle><path transform="scale(.8) translate(-16, -16)" d="M24.778,21.419 19.276,15.917 24.777,10.415 21.949,7.585 16.447,13.087 10.945,7.585 8.117,10.415 13.618,15.917 8.116,21.419 10.946,24.248 16.447,18.746 21.948,24.248z"></path><title>Remove link.</title></g><g event="link:options"><circle r="11" transform="translate(25)"></circle><path fill="white" transform="scale(.55) translate(29, -16)" d="M31.229,17.736c0.064-0.571,0.104-1.148,0.104-1.736s-0.04-1.166-0.104-1.737l-4.377-1.557c-0.218-0.716-0.504-1.401-0.851-2.05l1.993-4.192c-0.725-0.91-1.549-1.734-2.458-2.459l-4.193,1.994c-0.647-0.347-1.334-0.632-2.049-0.849l-1.558-4.378C17.165,0.708,16.588,0.667,16,0.667s-1.166,0.041-1.737,0.105L12.707,5.15c-0.716,0.217-1.401,0.502-2.05,0.849L6.464,4.005C5.554,4.73,4.73,5.554,4.005,6.464l1.994,4.192c-0.347,0.648-0.632,1.334-0.849,2.05l-4.378,1.557C0.708,14.834,0.667,15.412,0.667,16s0.041,1.165,0.105,1.736l4.378,1.558c0.217,0.715,0.502,1.401,0.849,2.049l-1.994,4.193c0.725,0.909,1.549,1.733,2.459,2.458l4.192-1.993c0.648,0.347,1.334,0.633,2.05,0.851l1.557,4.377c0.571,0.064,1.148,0.104,1.737,0.104c0.588,0,1.165-0.04,1.736-0.104l1.558-4.377c0.715-0.218,1.399-0.504,2.049-0.851l4.193,1.993c0.909-0.725,1.733-1.549,2.458-2.458l-1.993-4.193c0.347-0.647,0.633-1.334,0.851-2.049L31.229,17.736zM16,20.871c-2.69,0-4.872-2.182-4.872-4.871c0-2.69,2.182-4.872,4.872-4.872c2.689,0,4.871,2.182,4.871,4.872C20.871,18.689,18.689,20.871,16,20.871z"></path><title>Link options.</title></g></g></g></g><g id="j_17"><path stroke="#707070" id="v-337" stroke-width="2" stroke-dasharray="30 30" fill="none" d="M 1779 1813 1420 2101"></path><path fill="black" stroke="black" transform="translate(1779,1813) scale(1,1) rotate(-218.65980529785156)"></path><path fill="#707070" stroke="#707070" id="v-339" d="M 20 0 L 0 10 L 20 20 z" transform="translate(1397.7530772269386,2105.1911922792087) scale(1,1) rotate(-38.65980911254882)"></path><path id="v-338" fill="none" d="M 1779 1813 1420 2101" style=""></path><title></title><g><g id="v-323" label-idx="0" cursor="move" transform="translate(1599.5, 1957)"><rect id="v-325" fill="#ffffff" rx="3" ry="3" stroke="#ffffff" stroke-width="20px" pointer-events="none" width="137.36302185058594" height="89.46180725097656" transform="matrix(1,0,0,1,-67.8,-44.7)"></rect><text id="v-324" font-size="24px" y="0.8em" xml:space="preserve" text-anchor="middle" pointer-events="none" fill="#707070" font-family="Open Sans" font-weight="normal" transform="matrix(1,0,0,1,0,-38.4)"><tspan id="v-326" dy="0em" x="0">7: delivering</tspan><tspan id="v-327" dy="1.2em" x="0">drugs to</tspan><tspan id="v-328" dy="1.2em" x="0">department</tspan></text></g><g id="v-329" label-idx="1" cursor="move" transform="translate(1599.5, 2014.6)"><rect id="v-331" fill="#ffffff" rx="3" ry="3" pointer-events="none" width="0" height="0" transform="matrix(1,0,0,1,0,0)"></rect><text id="v-330" font-size="19px" y="0.8em" display="none" xml:space="preserve" text-anchor="middle" pointer-events="none" fill="#707070" font-family="Open Sans" font-weight="normal" transform="matrix(1,0,0,1,0,0)"><tspan id="v-332" dy="0em" x="0" style="fill-opacity: 0; stroke-opacity: 0;">-</tspan></text></g><g id="v-333" label-idx="2" cursor="move" transform="translate(1599.5, 2038.6)"><rect id="v-335" fill="#ffffff" rx="3" ry="3" pointer-events="none" display="none" width="0" height="0" transform="matrix(1,0,0,1,0,0)"></rect><text id="v-334" font-size="19px" y="0.8em" display="none" xml:space="preserve" text-anchor="middle" pointer-events="none" fill="#707070" font-family="Open Sans" font-weight="normal" transform="matrix(1,0,0,1,0,0)"><tspan id="v-336" dy="0em" x="0" style="fill-opacity: 0; stroke-opacity: 0;">-</tspan></text></g></g><g display="none"></g><g id="v-341" display="none"><g id="v-320"><path end="source" d="M 26 0 L 0 13 L 26 26 z"></path></g><g id="v-321"><path end="target" d="M 26 0 L 0 13 L 26 26 z"></path></g></g><g id="v-340" display="none"><g id="v-319" transform="translate(1747.7991943359375, 1838.0301513671875) "><g event="remove"><circle r="11"></circle><path transform="scale(.8) translate(-16, -16)" d="M24.778,21.419 19.276,15.917 24.777,10.415 21.949,7.585 16.447,13.087 10.945,7.585 8.117,10.415 13.618,15.917 8.116,21.419 10.946,24.248 16.447,18.746 21.948,24.248z"></path><title>Remove link.</title></g><g event="link:options"><circle r="11" transform="translate(25)"></circle><path fill="white" transform="scale(.55) translate(29, -16)" d="M31.229,17.736c0.064-0.571,0.104-1.148,0.104-1.736s-0.04-1.166-0.104-1.737l-4.377-1.557c-0.218-0.716-0.504-1.401-0.851-2.05l1.993-4.192c-0.725-0.91-1.549-1.734-2.458-2.459l-4.193,1.994c-0.647-0.347-1.334-0.632-2.049-0.849l-1.558-4.378C17.165,0.708,16.588,0.667,16,0.667s-1.166,0.041-1.737,0.105L12.707,5.15c-0.716,0.217-1.401,0.502-2.05,0.849L6.464,4.005C5.554,4.73,4.73,5.554,4.005,6.464l1.994,4.192c-0.347,0.648-0.632,1.334-0.849,2.05l-4.378,1.557C0.708,14.834,0.667,15.412,0.667,16s0.041,1.165,0.105,1.736l4.378,1.558c0.217,0.715,0.502,1.401,0.849,2.049l-1.994,4.193c0.725,0.909,1.549,1.733,2.459,2.458l4.192-1.993c0.648,0.347,1.334,0.633,2.05,0.851l1.557,4.377c0.571,0.064,1.148,0.104,1.737,0.104c0.588,0,1.165-0.04,1.736-0.104l1.558-4.377c0.715-0.218,1.399-0.504,2.049-0.851l4.193,1.993c0.909-0.725,1.733-1.549,2.458-2.458l-1.993-4.193c0.347-0.647,0.633-1.334,0.851-2.049L31.229,17.736zM16,20.871c-2.69,0-4.872-2.182-4.872-4.871c0-2.69,2.182-4.872,4.872-4.872c2.689,0,4.871,2.182,4.871,4.872C20.871,18.689,18.689,20.871,16,20.871z"></path><title>Link options.</title></g></g></g></g><g id="j_18"><path stroke="#707070" id="v-362" stroke-width="2" stroke-dasharray="30 30" fill="none" d="M 1040 2413 703 2700"></path><path fill="black" stroke="black" transform="translate(1040,2413) scale(1,1) rotate(-220.44004821777344)"></path><path fill="#707070" stroke="#707070" id="v-364" d="M 20 0 L 0 10 L 20 20 z" transform="translate(681.5134684370215,2705.3890970798284) scale(1,1) rotate(-40.44004821777344)"></path><path id="v-363" fill="none" d="M 1040 2413 703 2700" style=""></path><title></title><g><g id="v-349" label-idx="0" cursor="move" transform="translate(871.5, 2556.5)"><rect id="v-351" fill="#ffffff" rx="3" ry="3" stroke="#ffffff" stroke-width="20px" pointer-events="none" width="105.64179229736328" height="60.66180229187012" transform="matrix(1,0,0,1,-52.8,-30.3)"></rect><text id="v-350" font-size="24px" y="0.8em" xml:space="preserve" text-anchor="middle" pointer-events="none" fill="#707070" font-family="Open Sans" font-weight="normal" transform="matrix(1,0,0,1,0,-24)"><tspan id="v-352" dy="0em" x="0">8: update</tspan><tspan id="v-353" dy="1.2em" x="0">database</tspan></text></g><g id="v-354" label-idx="1" cursor="move" transform="translate(871.5, 2599.7)"><rect id="v-356" fill="#ffffff" rx="3" ry="3" pointer-events="none" width="0" height="0" transform="matrix(1,0,0,1,0,0)"></rect><text id="v-355" font-size="19px" y="0.8em" display="none" xml:space="preserve" text-anchor="middle" pointer-events="none" fill="#707070" font-family="Open Sans" font-weight="normal" transform="matrix(1,0,0,1,0,0)"><tspan id="v-357" dy="0em" x="0" style="fill-opacity: 0; stroke-opacity: 0;">-</tspan></text></g><g id="v-358" label-idx="2" cursor="move" transform="translate(871.5, 2623.7)"><rect id="v-360" fill="#ffffff" rx="3" ry="3" pointer-events="none" display="none" width="0" height="0" transform="matrix(1,0,0,1,0,0)"></rect><text id="v-359" font-size="19px" y="0.8em" display="none" xml:space="preserve" text-anchor="middle" pointer-events="none" fill="#707070" font-family="Open Sans" font-weight="normal" transform="matrix(1,0,0,1,0,0)"><tspan id="v-361" dy="0em" x="0" style="fill-opacity: 0; stroke-opacity: 0;">-</tspan></text></g></g><g display="none"></g><g id="v-366" display="none"><g id="v-346"><path end="source" d="M 26 0 L 0 13 L 26 26 z"></path></g><g id="v-347"><path end="target" d="M 26 0 L 0 13 L 26 26 z"></path></g></g><g id="v-365" display="none"><g id="v-345" transform="translate(1009.5469970703125, 2438.934814453125) "><g event="remove"><circle r="11"></circle><path transform="scale(.8) translate(-16, -16)" d="M24.778,21.419 19.276,15.917 24.777,10.415 21.949,7.585 16.447,13.087 10.945,7.585 8.117,10.415 13.618,15.917 8.116,21.419 10.946,24.248 16.447,18.746 21.948,24.248z"></path><title>Remove link.</title></g><g event="link:options"><circle r="11" transform="translate(25)"></circle><path fill="white" transform="scale(.55) translate(29, -16)" d="M31.229,17.736c0.064-0.571,0.104-1.148,0.104-1.736s-0.04-1.166-0.104-1.737l-4.377-1.557c-0.218-0.716-0.504-1.401-0.851-2.05l1.993-4.192c-0.725-0.91-1.549-1.734-2.458-2.459l-4.193,1.994c-0.647-0.347-1.334-0.632-2.049-0.849l-1.558-4.378C17.165,0.708,16.588,0.667,16,0.667s-1.166,0.041-1.737,0.105L12.707,5.15c-0.716,0.217-1.401,0.502-2.05,0.849L6.464,4.005C5.554,4.73,4.73,5.554,4.005,6.464l1.994,4.192c-0.347,0.648-0.632,1.334-0.849,2.05l-4.378,1.557C0.708,14.834,0.667,15.412,0.667,16s0.041,1.165,0.105,1.736l4.378,1.558c0.217,0.715,0.502,1.401,0.849,2.049l-1.994,4.193c0.725,0.909,1.549,1.733,2.459,2.458l4.192-1.993c0.648,0.347,1.334,0.633,2.05,0.851l1.557,4.377c0.571,0.064,1.148,0.104,1.737,0.104c0.588,0,1.165-0.04,1.736-0.104l1.558-4.377c0.715-0.218,1.399-0.504,2.049-0.851l4.193,1.993c0.909-0.725,1.733-1.549,2.458-2.458l-1.993-4.193c0.347-0.647,0.633-1.334,0.851-2.049L31.229,17.736zM16,20.871c-2.69,0-4.872-2.182-4.872-4.871c0-2.69,2.182-4.872,4.872-4.872c2.689,0,4.871,2.182,4.871,4.872C20.871,18.689,18.689,20.871,16,20.871z"></path><title>Link options.</title></g></g></g></g><g id="j_19"><path stroke="#707070" id="v-386" stroke-width="2" stroke-dasharray="30 30" fill="none" d="M 1228 2413 1249 2693"></path><path fill="black" stroke="black" transform="translate(1228,2413) scale(1,1) rotate(85.61590576171878)"></path><path fill="#707070" stroke="#707070" id="v-388" d="M 20 0 L 0 10 L 20 20 z" transform="translate(1241.0292793708493,2713.764460571473) scale(1,1) rotate(-94.38410186767578)"></path><path id="v-387" fill="none" d="M 1228 2413 1249 2693" style=""></path><title></title><g><g id="v-374" label-idx="0" cursor="move" transform="translate(1238.5, 2553)"><rect id="v-376" fill="#ffffff" rx="3" ry="3" stroke="#ffffff" stroke-width="20px" pointer-events="none" width="184.86419677734375" height="31.86180305480957" transform="matrix(1,0,0,1,-92.1,-15.9)"></rect><text id="v-375" font-size="24px" y="0.8em" xml:space="preserve" text-anchor="middle" pointer-events="none" fill="#707070" font-family="Open Sans" font-weight="normal" transform="matrix(1,0,0,1,0,-9.6)"><tspan id="v-377" dy="0em" x="0">9: record activity</tspan></text></g><g id="v-378" label-idx="1" cursor="move" transform="translate(1238.5, 2584.2)"><rect id="v-380" fill="#ffffff" rx="3" ry="3" pointer-events="none" width="0" height="0" transform="matrix(1,0,0,1,0,0)"></rect><text id="v-379" font-size="19px" y="0.8em" display="none" xml:space="preserve" text-anchor="middle" pointer-events="none" fill="#707070" font-family="Open Sans" font-weight="normal" transform="matrix(1,0,0,1,0,0)"><tspan id="v-381" dy="0em" x="0" style="fill-opacity: 0; stroke-opacity: 0;">-</tspan></text></g><g id="v-382" label-idx="2" cursor="move" transform="translate(1238.5, 2608.2)"><rect id="v-384" fill="#ffffff" rx="3" ry="3" pointer-events="none" display="none" width="0" height="0" transform="matrix(1,0,0,1,0,0)"></rect><text id="v-383" font-size="19px" y="0.8em" display="none" xml:space="preserve" text-anchor="middle" pointer-events="none" fill="#707070" font-family="Open Sans" font-weight="normal" transform="matrix(1,0,0,1,0,0)"><tspan id="v-385" dy="0em" x="0" style="fill-opacity: 0; stroke-opacity: 0;">-</tspan></text></g></g><g display="none"></g><g id="v-390" display="none"><g id="v-371"><path end="source" d="M 26 0 L 0 13 L 26 26 z"></path></g><g id="v-372"><path end="target" d="M 26 0 L 0 13 L 26 26 z"></path></g></g><g id="v-389" display="none"><g id="v-370" transform="translate(1230.9915771484375, 2452.887939453125) "><g event="remove"><circle r="11"></circle><path transform="scale(.8) translate(-16, -16)" d="M24.778,21.419 19.276,15.917 24.777,10.415 21.949,7.585 16.447,13.087 10.945,7.585 8.117,10.415 13.618,15.917 8.116,21.419 10.946,24.248 16.447,18.746 21.948,24.248z"></path><title>Remove link.</title></g><g event="link:options"><circle r="11" transform="translate(25)"></circle><path fill="white" transform="scale(.55) translate(29, -16)" d="M31.229,17.736c0.064-0.571,0.104-1.148,0.104-1.736s-0.04-1.166-0.104-1.737l-4.377-1.557c-0.218-0.716-0.504-1.401-0.851-2.05l1.993-4.192c-0.725-0.91-1.549-1.734-2.458-2.459l-4.193,1.994c-0.647-0.347-1.334-0.632-2.049-0.849l-1.558-4.378C17.165,0.708,16.588,0.667,16,0.667s-1.166,0.041-1.737,0.105L12.707,5.15c-0.716,0.217-1.401,0.502-2.05,0.849L6.464,4.005C5.554,4.73,4.73,5.554,4.005,6.464l1.994,4.192c-0.347,0.648-0.632,1.334-0.849,2.05l-4.378,1.557C0.708,14.834,0.667,15.412,0.667,16s0.041,1.165,0.105,1.736l4.378,1.558c0.217,0.715,0.502,1.401,0.849,2.049l-1.994,4.193c0.725,0.909,1.549,1.733,2.459,2.458l4.192-1.993c0.648,0.347,1.334,0.633,2.05,0.851l1.557,4.377c0.571,0.064,1.148,0.104,1.737,0.104c0.588,0,1.165-0.04,1.736-0.104l1.558-4.377c0.715-0.218,1.399-0.504,2.049-0.851l4.193,1.993c0.909-0.725,1.733-1.549,2.458-2.458l-1.993-4.193c0.347-0.647,0.633-1.334,0.851-2.049L31.229,17.736zM16,20.871c-2.69,0-4.872-2.182-4.872-4.871c0-2.69,2.182-4.872,4.872-4.872c2.689,0,4.871,2.182,4.871,4.872C20.871,18.689,18.689,20.871,16,20.871z"></path><title>Link options.</title></g></g></g></g></g><defs id="v-4"></defs></svg>