<svg xmlns="http://www.w3.org/2000/svg" xmlns:xlink="http://www.w3.org/1999/xlink" version="1.1" viewBox="0 0 5275 3716" style="background: #ffffff"><g id="v-3" transform="matrix(1,0,0,1,0,0)"><g id="j_34" transform="translate(20,3671)"><g id="v-651"><text id="v-652" font-size="22px" y="0.8em" xml:space="preserve" font-weight="normal" text-anchor="start" fill="#aaaaaa" pointer-events="none" font-family="Open Sans" transform="matrix(1,0,0,1,0,0)"><tspan id="v-653" dy="0em" x="0">středa 30. listopadu 2022 11:52 Středoevropský standardní čas</tspan></text></g></g><g id="j_33" transform="translate(20,3625)"><g id="v-647"><text id="v-648" font-size="36px" y="0.8em" xml:space="preserve" font-weight="normal" text-anchor="start" fill="#000000" pointer-events="none" font-family="Open Sans" transform="matrix(1,0,0,1,0,0)"><tspan id="v-649" dy="0em" x="0">[Component] DMS - Storage Server</tspan></text></g></g><g id="j_1" transform="translate(938,787)" style=""><g id="v-6"><rect id="v-7" width="1990" height="2213" rx="0" ry="0" fill="#ffffff" stroke="#3c7fc0" stroke-width="2" stroke-dasharray="20,20" pointer-events="none"></rect><text id="v-8" font-size="24px" y="2174" xml:space="preserve" font-weight="normal" fill="#3c7fc0" x="10" text-anchor="start" pointer-events="visible" font-family="Open Sans" transform="matrix(1,0,0,1,15,0)"><tspan id="v-11" dy="0em" x="0">Storage Server</tspan></text><text id="v-9" font-size="19px" y="2198" xml:space="preserve" font-weight="normal" fill="#3c7fc0" x="10" text-anchor="start" pointer-events="visible" font-family="Open Sans" transform="matrix(1,0,0,1,15,0)"><tspan id="v-12" dy="0em" x="0">[Container]</tspan></text><image id="v-10" pointer-events="visible"></image></g></g><g id="j_2" transform="translate(2458,807)" style=""><g id="v-16" style="opacity: 1;"><rect id="v-17" rx="20" ry="20" stroke="#78a8d8" stroke-width="2" pointer-events="visiblePainted" fill="#85bbf0" width="450" height="300"></rect><text id="v-18" font-size="34" y="0.8em" xml:space="preserve" font-weight="bold" text-anchor="middle" pointer-events="visible" font-family="Open Sans" fill="#000000" transform="matrix(1,0,0,1,225,90)"><tspan id="v-23" dy="0em" x="0">Drug Delete Order</tspan></text><text id="v-19" font-size="19" y="0.8em" xml:space="preserve" text-anchor="middle" font-family="Open Sans" fill="#000000" transform="matrix(1,0,0,1,225,132.5)"><tspan id="v-24" dy="0em" x="0">[Component]</tspan></text><text id="v-20" font-size="24" y="0.8em" xml:space="preserve" text-anchor="middle" font-family="Open Sans" fill="#000000" transform="matrix(1,0,0,1,225,180)"><tspan id="v-25" dy="0em" x="0">Deleting drug order</tspan></text><text id="v-21" font-weight="bold" text-anchor="middle" font-family="Open Sans" fill="#000000" font-size="24" transform="matrix(1,0,0,1,225,270)" display="none"></text><image id="v-22"></image></g></g><g id="j_3" transform="translate(1708,2007)" style=""><g id="v-31" style="opacity: 1;"><rect id="v-32" rx="20" ry="20" stroke="#78a8d8" stroke-width="2" pointer-events="visiblePainted" fill="#85bbf0" width="450" height="300"></rect><text id="v-33" font-size="34" y="0.8em" xml:space="preserve" font-weight="bold" text-anchor="middle" pointer-events="visible" font-family="Open Sans" fill="#000000" transform="matrix(1,0,0,1,225,90)"><tspan id="v-38" dy="0em" x="0">Drug Show Order List</tspan></text><text id="v-34" font-size="19" y="0.8em" xml:space="preserve" text-anchor="middle" font-family="Open Sans" fill="#000000" transform="matrix(1,0,0,1,225,132.5)"><tspan id="v-39" dy="0em" x="0">[Component]</tspan></text><text id="v-35" font-size="24" y="0.8em" xml:space="preserve" text-anchor="middle" font-family="Open Sans" fill="#000000" transform="matrix(1,0,0,1,225,180)"><tspan id="v-40" dy="0em" x="0">Showing list of drug orders</tspan></text><text id="v-36" font-weight="bold" text-anchor="middle" font-family="Open Sans" fill="#000000" font-size="24" transform="matrix(1,0,0,1,225,270)" display="none"></text><image id="v-37"></image></g></g><g id="j_4" transform="translate(958,1407)" style=""><g id="v-44" style="opacity: 1;"><rect id="v-45" rx="20" ry="20" stroke="#78a8d8" stroke-width="2" pointer-events="visiblePainted" fill="#85bbf0" width="450" height="300"></rect><text id="v-46" font-size="34" y="0.8em" xml:space="preserve" font-weight="bold" text-anchor="middle" pointer-events="visible" font-family="Open Sans" fill="#000000" transform="matrix(1,0,0,1,225,90)"><tspan id="v-51" dy="0em" x="0">Check Validity Controller</tspan></text><text id="v-47" font-size="19" y="0.8em" xml:space="preserve" text-anchor="middle" font-family="Open Sans" fill="#000000" transform="matrix(1,0,0,1,225,132.5)"><tspan id="v-52" dy="0em" x="0">[Component]</tspan></text><text id="v-48" font-size="24" y="0.8em" xml:space="preserve" text-anchor="middle" font-family="Open Sans" fill="#000000" transform="matrix(1,0,0,1,225,180)"><tspan id="v-53" dy="0em" x="0">Checking order validity</tspan></text><text id="v-49" font-weight="bold" text-anchor="middle" font-family="Open Sans" fill="#000000" font-size="24" transform="matrix(1,0,0,1,225,270)" display="none"></text><image id="v-50"></image></g></g><g id="j_5" transform="translate(958,2007)" style=""><g id="v-57" style="opacity: 1;"><rect id="v-58" rx="20" ry="20" stroke="#78a8d8" stroke-width="2" pointer-events="visiblePainted" fill="#85bbf0" width="450" height="300"></rect><text id="v-59" font-size="34" y="0.8em" xml:space="preserve" font-weight="bold" text-anchor="middle" pointer-events="visible" font-family="Open Sans" fill="#000000" transform="matrix(1,0,0,1,225,90)"><tspan id="v-64" dy="0em" x="0">Drug confirm order</tspan></text><text id="v-60" font-size="19" y="0.8em" xml:space="preserve" text-anchor="middle" font-family="Open Sans" fill="#000000" transform="matrix(1,0,0,1,225,132.5)"><tspan id="v-65" dy="0em" x="0">[Component]</tspan></text><text id="v-61" font-size="24" y="0.8em" xml:space="preserve" text-anchor="middle" font-family="Open Sans" fill="#000000" transform="matrix(1,0,0,1,225,180)"><tspan id="v-66" dy="0em" x="0">Confirming drug order</tspan></text><text id="v-62" font-weight="bold" text-anchor="middle" font-family="Open Sans" fill="#000000" font-size="24" transform="matrix(1,0,0,1,225,270)" display="none"></text><image id="v-63"></image></g></g><g id="j_6" transform="translate(3117,2607)" style=""><g id="v-72" style="opacity: 1;"><rect id="v-73" rx="20" ry="20" stroke="#3c7fc0" stroke-width="2" pointer-events="visiblePainted" fill="#438dd5" width="450" height="300"></rect><text id="v-74" font-size="34" y="0.8em" xml:space="preserve" font-weight="bold" text-anchor="middle" pointer-events="visible" font-family="Open Sans" fill="#ffffff" transform="matrix(1,0,0,1,225,68.8)"><tspan id="v-79" dy="0em" x="0">Storage Database of</tspan><tspan id="v-80" dy="1.2em" x="0">Drugs</tspan></text><text id="v-75" font-size="19" y="0.8em" xml:space="preserve" text-anchor="middle" font-family="Open Sans" fill="#ffffff" transform="matrix(1,0,0,1,225,153.8)"><tspan id="v-81" dy="0em" x="0">[Container]</tspan></text><text id="v-76" font-size="24" y="0.8em" xml:space="preserve" text-anchor="middle" font-family="Open Sans" fill="#ffffff" transform="matrix(1,0,0,1,225,201.2)"><tspan id="v-82" dy="0em" x="0">Database of drugs located in store</tspan></text><text id="v-77" font-weight="bold" text-anchor="middle" font-family="Open Sans" fill="#ffffff" font-size="24" transform="matrix(1,0,0,1,225,270)" y="0.8em" display="none" xml:space="preserve"><tspan id="v-83" dy="0em" x="0" style="fill-opacity: 0; stroke-opacity: 0;">-</tspan></text><image id="v-78"></image></g></g><g id="j_7" transform="translate(3867,2607)" style=""><g id="v-89" style="opacity: 1;"><rect id="v-90" rx="20" ry="20" stroke="#3c7fc0" stroke-width="2" pointer-events="visiblePainted" fill="#438dd5" width="450" height="300"></rect><text id="v-91" font-size="34" y="0.8em" xml:space="preserve" font-weight="bold" text-anchor="middle" pointer-events="visible" font-family="Open Sans" fill="#ffffff" transform="matrix(1,0,0,1,225,68.8)"><tspan id="v-96" dy="0em" x="0">User Activity Record</tspan><tspan id="v-97" dy="1.2em" x="0">Database</tspan></text><text id="v-92" font-size="19" y="0.8em" xml:space="preserve" text-anchor="middle" font-family="Open Sans" fill="#ffffff" transform="matrix(1,0,0,1,225,153.8)"><tspan id="v-98" dy="0em" x="0">[Container]</tspan></text><text id="v-93" font-size="24" y="0.8em" xml:space="preserve" text-anchor="middle" font-family="Open Sans" fill="#ffffff" transform="matrix(1,0,0,1,225,201.2)"><tspan id="v-99" dy="0em" x="0">Database to store user activity</tspan></text><text id="v-94" font-weight="bold" text-anchor="middle" font-family="Open Sans" fill="#ffffff" font-size="24" transform="matrix(1,0,0,1,225,270)" y="0.8em" display="none" xml:space="preserve"><tspan id="v-100" dy="0em" x="0" style="fill-opacity: 0; stroke-opacity: 0;">-</tspan></text><image id="v-95"></image></g></g><g id="j_8" transform="translate(2458,2007)" style=""><g id="v-106" style="opacity: 1;"><rect id="v-107" rx="20" ry="20" stroke="#78a8d8" stroke-width="2" pointer-events="visiblePainted" fill="#85bbf0" width="450" height="300"></rect><text id="v-108" font-size="34" y="0.8em" xml:space="preserve" font-weight="bold" text-anchor="middle" pointer-events="visible" font-family="Open Sans" fill="#000000" transform="matrix(1,0,0,1,225,38.8)"><tspan id="v-113" dy="0em" x="0">Updating Storage</tspan><tspan id="v-114" dy="1.2em" x="0">Database</tspan></text><text id="v-109" font-size="19" y="0.8em" xml:space="preserve" text-anchor="middle" font-family="Open Sans" fill="#000000" transform="matrix(1,0,0,1,225,123.8)"><tspan id="v-115" dy="0em" x="0">[Component]</tspan></text><text id="v-110" font-size="24" y="0.8em" xml:space="preserve" text-anchor="middle" font-family="Open Sans" fill="#000000" transform="matrix(1,0,0,1,225,171.3)"><tspan id="v-116" dy="0em" x="0">Adding new accepted drugs, remove</tspan><tspan id="v-117" dy="1.2em" x="0">drugs fetched by Department</tspan><tspan id="v-118" dy="1.2em" x="0">Supplier, create activity record</tspan></text><text id="v-111" font-weight="bold" text-anchor="middle" font-family="Open Sans" fill="#000000" font-size="24" transform="matrix(1,0,0,1,225,270)" display="none"></text><image id="v-112"></image></g></g><g id="j_9" transform="translate(4617,2607)" style=""><g id="v-124" style="opacity: 1;"><rect id="v-125" rx="20" ry="20" stroke="#3c7fc0" stroke-width="2" pointer-events="visiblePainted" fill="#438dd5" width="450" height="300"></rect><text id="v-126" font-size="34" y="0.8em" xml:space="preserve" font-weight="bold" text-anchor="middle" pointer-events="visible" font-family="Open Sans" fill="#ffffff" transform="matrix(1,0,0,1,225,68.8)"><tspan id="v-131" dy="0em" x="0">Auto Drug Storage</tspan><tspan id="v-132" dy="1.2em" x="0">Supplyment</tspan></text><text id="v-127" font-size="19" y="0.8em" xml:space="preserve" text-anchor="middle" font-family="Open Sans" fill="#ffffff" transform="matrix(1,0,0,1,225,153.8)"><tspan id="v-133" dy="0em" x="0">[Container]</tspan></text><text id="v-128" font-size="24" y="0.8em" xml:space="preserve" text-anchor="middle" font-family="Open Sans" fill="#ffffff" transform="matrix(1,0,0,1,225,201.2)"><tspan id="v-134" dy="0em" x="0">Ensures drugs availability in storage</tspan></text><text id="v-129" font-weight="bold" text-anchor="middle" font-family="Open Sans" fill="#ffffff" font-size="24" transform="matrix(1,0,0,1,225,270)" y="0.8em" display="none" xml:space="preserve"><tspan id="v-135" dy="0em" x="0" style="fill-opacity: 0; stroke-opacity: 0;">-</tspan></text><image id="v-130"></image></g></g><g id="j_10" transform="translate(1708,2607)" style=""><g id="v-141" style="opacity: 1;"><rect id="v-142" rx="20" ry="20" stroke="#78a8d8" stroke-width="2" pointer-events="visiblePainted" fill="#85bbf0" width="450" height="300"></rect><text id="v-143" font-size="34" y="0.8em" xml:space="preserve" font-weight="bold" text-anchor="middle" pointer-events="visible" font-family="Open Sans" fill="#000000" transform="matrix(1,0,0,1,225,53.8)"><tspan id="v-148" dy="0em" x="0">Drug Order List Database</tspan><tspan id="v-149" dy="1.2em" x="0">Unification</tspan></text><text id="v-144" font-size="19" y="0.8em" xml:space="preserve" text-anchor="middle" font-family="Open Sans" fill="#000000" transform="matrix(1,0,0,1,225,138.8)"><tspan id="v-150" dy="0em" x="0">[Component]</tspan></text><text id="v-145" font-size="24" y="0.8em" xml:space="preserve" text-anchor="middle" font-family="Open Sans" fill="#000000" transform="matrix(1,0,0,1,225,186.3)"><tspan id="v-151" dy="0em" x="0">Unificated access to drug order list</tspan><tspan id="v-152" dy="1.2em" x="0">database</tspan></text><text id="v-146" font-weight="bold" text-anchor="middle" font-family="Open Sans" fill="#000000" font-size="24" transform="matrix(1,0,0,1,225,270)" display="none"></text><image id="v-147"></image></g></g><g id="j_11" transform="translate(2458,207)" style=""><g id="v-156" style="opacity: 1;"><rect id="v-157" rx="20" ry="20" stroke="#3c7fc0" stroke-width="2" pointer-events="visiblePainted" fill="#438dd5" width="450" height="300"></rect><text id="v-158" font-size="34" y="0.8em" xml:space="preserve" font-weight="bold" text-anchor="middle" pointer-events="visible" font-family="Open Sans" fill="#ffffff" transform="matrix(1,0,0,1,225,90)"><tspan id="v-163" dy="0em" x="0">Security gate</tspan></text><text id="v-159" font-size="19" y="0.8em" xml:space="preserve" text-anchor="middle" font-family="Open Sans" fill="#ffffff" transform="matrix(1,0,0,1,225,132.5)"><tspan id="v-164" dy="0em" x="0">[Container]</tspan></text><text id="v-160" font-size="24" y="0.8em" xml:space="preserve" text-anchor="middle" font-family="Open Sans" fill="#ffffff" transform="matrix(1,0,0,1,225,180)"><tspan id="v-165" dy="0em" x="0">Security gate for user autorization</tspan></text><text id="v-161" font-weight="bold" text-anchor="middle" font-family="Open Sans" fill="#ffffff" font-size="24" transform="matrix(1,0,0,1,225,270)" y="0.8em" display="none" xml:space="preserve"><tspan id="v-166" dy="0em" x="0" style="fill-opacity: 0; stroke-opacity: 0;">-</tspan></text><image id="v-162"></image></g></g><g id="j_12" transform="translate(1708,3207)" style=""><g id="v-172" style="opacity: 1;"><rect id="v-173" rx="20" ry="20" stroke="#3c7fc0" stroke-width="2" pointer-events="visiblePainted" fill="#438dd5" width="450" height="300"></rect><text id="v-174" font-size="34" y="0.8em" xml:space="preserve" font-weight="bold" text-anchor="middle" pointer-events="visible" font-family="Open Sans" fill="#ffffff" transform="matrix(1,0,0,1,225,90)"><tspan id="v-179" dy="0em" x="0">Drug Order List Database</tspan></text><text id="v-175" font-size="19" y="0.8em" xml:space="preserve" text-anchor="middle" font-family="Open Sans" fill="#ffffff" transform="matrix(1,0,0,1,225,132.5)"><tspan id="v-180" dy="0em" x="0">[Container]</tspan></text><text id="v-176" font-size="24" y="0.8em" xml:space="preserve" text-anchor="middle" font-family="Open Sans" fill="#ffffff" transform="matrix(1,0,0,1,225,180)"><tspan id="v-181" dy="0em" x="0">Databse to store drug orders</tspan></text><text id="v-177" font-weight="bold" text-anchor="middle" font-family="Open Sans" fill="#ffffff" font-size="24" transform="matrix(1,0,0,1,225,270)" y="0.8em" display="none" xml:space="preserve"><tspan id="v-182" dy="0em" x="0" style="fill-opacity: 0; stroke-opacity: 0;">-</tspan></text><image id="v-178"></image></g></g><g id="j_13" transform="translate(208,2007)" style=""><g id="v-188" style="opacity: 1;"><rect id="v-189" rx="20" ry="20" stroke="#0f5eaa" stroke-width="2" pointer-events="visiblePainted" fill="#1168bd" width="450" height="300"></rect><text id="v-190" font-size="34" y="0.8em" xml:space="preserve" font-weight="bold" text-anchor="middle" pointer-events="visible" font-family="Open Sans" fill="#ffffff" transform="matrix(1,0,0,1,225,53.8)"><tspan id="v-195" dy="0em" x="0">State Institute for Drug</tspan><tspan id="v-196" dy="1.2em" x="0">Control</tspan></text><text id="v-191" font-size="19" y="0.8em" xml:space="preserve" text-anchor="middle" font-family="Open Sans" fill="#ffffff" transform="matrix(1,0,0,1,225,138.8)"><tspan id="v-197" dy="0em" x="0">[Software System]</tspan></text><text id="v-192" font-size="24" y="0.8em" xml:space="preserve" text-anchor="middle" font-family="Open Sans" fill="#ffffff" transform="matrix(1,0,0,1,225,186.3)"><tspan id="v-198" dy="0em" x="0">contains official drug type</tspan><tspan id="v-199" dy="1.2em" x="0">identification</tspan></text><text id="v-193" font-weight="bold" text-anchor="middle" font-family="Open Sans" fill="#ffffff" font-size="24" transform="matrix(1,0,0,1,225,270)" y="0.8em" display="none" xml:space="preserve"><tspan id="v-200" dy="0em" x="0" style="fill-opacity: 0; stroke-opacity: 0;">-</tspan></text><image id="v-194"></image></g></g><g id="j_14" transform="translate(1708,807)" style=""><g id="v-204" style="opacity: 1;"><rect id="v-205" rx="20" ry="20" stroke="#78a8d8" stroke-width="2" pointer-events="visiblePainted" fill="#85bbf0" width="450" height="300"></rect><text id="v-206" font-size="34" y="0.8em" xml:space="preserve" font-weight="bold" text-anchor="middle" pointer-events="visible" font-family="Open Sans" fill="#000000" transform="matrix(1,0,0,1,225,90)"><tspan id="v-211" dy="0em" x="0">Drug Create Order</tspan></text><text id="v-207" font-size="19" y="0.8em" xml:space="preserve" text-anchor="middle" font-family="Open Sans" fill="#000000" transform="matrix(1,0,0,1,225,132.5)"><tspan id="v-212" dy="0em" x="0">[Component]</tspan></text><text id="v-208" font-size="24" y="0.8em" xml:space="preserve" text-anchor="middle" font-family="Open Sans" fill="#000000" transform="matrix(1,0,0,1,225,180)"><tspan id="v-213" dy="0em" x="0">Creating drug order</tspan></text><text id="v-209" font-weight="bold" text-anchor="middle" font-family="Open Sans" fill="#000000" font-size="24" transform="matrix(1,0,0,1,225,270)" display="none"></text><image id="v-210"></image></g></g><g id="j_15" transform="translate(958,807)" style=""><g id="v-217" style="opacity: 1;"><rect id="v-218" rx="20" ry="20" stroke="#78a8d8" stroke-width="2" pointer-events="visiblePainted" fill="#85bbf0" width="450" height="300"></rect><text id="v-219" font-size="34" y="0.8em" xml:space="preserve" font-weight="bold" text-anchor="middle" pointer-events="visible" font-family="Open Sans" fill="#000000" transform="matrix(1,0,0,1,225,90)"><tspan id="v-224" dy="0em" x="0">Drug Update Order</tspan></text><text id="v-220" font-size="19" y="0.8em" xml:space="preserve" text-anchor="middle" font-family="Open Sans" fill="#000000" transform="matrix(1,0,0,1,225,132.5)"><tspan id="v-225" dy="0em" x="0">[Component]</tspan></text><text id="v-221" font-size="24" y="0.8em" xml:space="preserve" text-anchor="middle" font-family="Open Sans" fill="#000000" transform="matrix(1,0,0,1,225,180)"><tspan id="v-226" dy="0em" x="0">Updating drug order</tspan></text><text id="v-222" font-weight="bold" text-anchor="middle" font-family="Open Sans" fill="#000000" font-size="24" transform="matrix(1,0,0,1,225,270)" display="none"></text><image id="v-223"></image></g></g><g id="j_16"><path stroke="#707070" id="v-246" stroke-width="2" stroke-dasharray="30 30" fill="none" d="M 1933 2907 1933 3187" style="opacity: 1;"></path><path fill="black" stroke="black" transform="translate(1933,2907) scale(1,1) rotate(-270)"></path><path fill="#707070" stroke="#707070" id="v-248" d="M 20 0 L 0 10 L 20 20 z" transform="translate(1923,3207) scale(1,1) rotate(-90)" style="opacity: 1;"></path><path id="v-247" fill="none" d="M 1933 2907 1933 3187" style=""></path><title></title><g><g id="v-234" label-idx="0" cursor="move" transform="translate(1933, 3047)" style="opacity: 1;"><rect id="v-236" fill="#ffffff" rx="3" ry="3" stroke="#ffffff" stroke-width="20px" pointer-events="none" width="163.4594268798828" height="31.432331085205078" transform="matrix(1,0,0,1,-81.5,-15.7)"></rect><text id="v-235" font-size="24px" y="0.8em" xml:space="preserve" text-anchor="middle" pointer-events="none" fill="#707070" font-family="Open Sans" font-weight="normal" transform="matrix(1,0,0,1,0,-10.5)"><tspan id="v-237" dy="0em" x="0">read and write</tspan></text></g><g id="v-238" label-idx="1" cursor="move" transform="translate(1933, 3078.2)" style="opacity: 1;"><rect id="v-240" fill="#ffffff" rx="3" ry="3" pointer-events="none" width="0" height="0" transform="matrix(1,0,0,1,0,0)"></rect><text id="v-239" font-size="19px" y="0.8em" display="none" xml:space="preserve" text-anchor="middle" pointer-events="none" fill="#707070" font-family="Open Sans" font-weight="normal" transform="matrix(1,0,0,1,0,0)"><tspan id="v-241" dy="0em" x="0" style="fill-opacity: 0; stroke-opacity: 0;">-</tspan></text></g><g id="v-242" label-idx="2" cursor="move" transform="translate(1933, 3102.2)" style="opacity: 1;"><rect id="v-244" fill="#ffffff" rx="3" ry="3" pointer-events="none" display="none" width="0" height="0" transform="matrix(1,0,0,1,0,0)"></rect><text id="v-243" font-size="19px" y="0.8em" display="none" xml:space="preserve" text-anchor="middle" pointer-events="none" fill="#707070" font-family="Open Sans" font-weight="normal" transform="matrix(1,0,0,1,0,0)"><tspan id="v-245" dy="0em" x="0" style="fill-opacity: 0; stroke-opacity: 0;">-</tspan></text></g></g><g display="none"></g><g id="v-250" display="none"><g id="v-231"><path end="source" d="M 26 0 L 0 13 L 26 26 z"></path></g><g id="v-232"><path end="target" d="M 26 0 L 0 13 L 26 26 z"></path></g></g><g id="v-249" display="none"><g id="v-230" transform="translate(1933, 2947) "><g event="remove"><circle r="11"></circle><path transform="scale(.8) translate(-16, -16)" d="M24.778,21.419 19.276,15.917 24.777,10.415 21.949,7.585 16.447,13.087 10.945,7.585 8.117,10.415 13.618,15.917 8.116,21.419 10.946,24.248 16.447,18.746 21.948,24.248z"></path><title>Remove link.</title></g><g event="link:options"><circle r="11" transform="translate(25)"></circle><path fill="white" transform="scale(.55) translate(29, -16)" d="M31.229,17.736c0.064-0.571,0.104-1.148,0.104-1.736s-0.04-1.166-0.104-1.737l-4.377-1.557c-0.218-0.716-0.504-1.401-0.851-2.05l1.993-4.192c-0.725-0.91-1.549-1.734-2.458-2.459l-4.193,1.994c-0.647-0.347-1.334-0.632-2.049-0.849l-1.558-4.378C17.165,0.708,16.588,0.667,16,0.667s-1.166,0.041-1.737,0.105L12.707,5.15c-0.716,0.217-1.401,0.502-2.05,0.849L6.464,4.005C5.554,4.73,4.73,5.554,4.005,6.464l1.994,4.192c-0.347,0.648-0.632,1.334-0.849,2.05l-4.378,1.557C0.708,14.834,0.667,15.412,0.667,16s0.041,1.165,0.105,1.736l4.378,1.558c0.217,0.715,0.502,1.401,0.849,2.049l-1.994,4.193c0.725,0.909,1.549,1.733,2.459,2.458l4.192-1.993c0.648,0.347,1.334,0.633,2.05,0.851l1.557,4.377c0.571,0.064,1.148,0.104,1.737,0.104c0.588,0,1.165-0.04,1.736-0.104l1.558-4.377c0.715-0.218,1.399-0.504,2.049-0.851l4.193,1.993c0.909-0.725,1.733-1.549,2.458-2.458l-1.993-4.193c0.347-0.647,0.633-1.334,0.851-2.049L31.229,17.736zM16,20.871c-2.69,0-4.872-2.182-4.872-4.871c0-2.69,2.182-4.872,4.872-4.872c2.689,0,4.871,2.182,4.871,4.872C20.871,18.689,18.689,20.871,16,20.871z"></path><title>Link options.</title></g></g></g></g><g id="j_17"><path stroke="#707070" id="v-271" stroke-width="2" stroke-dasharray="30 30" fill="none" d="M 2458 426 1568 700 S 1558 703 1550 709 L 1421 796" style="opacity: 1;"></path><path fill="black" stroke="black" transform="translate(2458,426) scale(1,1) rotate(-197.10720825195312)"></path><path fill="#707070" stroke="#707070" id="v-273" d="M 20 0 L 0 10 L 20 20 z" transform="translate(1398.4034157713993,798.7127803206417) scale(1,1) rotate(-34.032127380371094)" style="opacity: 1;"></path><path id="v-272" fill="none" d="M 2458 426 1568 700 S 1558 703 1550 709 L 1421 796" style=""></path><title></title><g><g id="v-259" label-idx="0" cursor="move" transform="translate(1928.988037109375, 588.8643188476562)" style="opacity: 1;"><rect id="v-261" fill="#ffffff" rx="3" ry="3" stroke="#ffffff" stroke-width="20px" pointer-events="none" width="152.025146484375" height="31.432331085205078" transform="matrix(1,0,0,1,-73.9,-15.7)"></rect><text id="v-260" font-size="24px" y="0.8em" xml:space="preserve" text-anchor="middle" pointer-events="none" fill="#707070" font-family="Open Sans" font-weight="normal" transform="matrix(1,0,0,1,0,-10.5)"><tspan id="v-262" dy="0em" x="0">update order</tspan></text></g><g id="v-263" label-idx="1" cursor="move" transform="translate(1928.988037109375, 620.0643188476563)" style="opacity: 1;"><rect id="v-265" fill="#ffffff" rx="3" ry="3" pointer-events="none" width="0" height="0" transform="matrix(1,0,0,1,0,0)"></rect><text id="v-264" font-size="19px" y="0.8em" display="none" xml:space="preserve" text-anchor="middle" pointer-events="none" fill="#707070" font-family="Open Sans" font-weight="normal" transform="matrix(1,0,0,1,0,0)"><tspan id="v-266" dy="0em" x="0" style="fill-opacity: 0; stroke-opacity: 0;">-</tspan></text></g><g id="v-267" label-idx="2" cursor="move" transform="translate(1928.988037109375, 644.0643188476563)" style="opacity: 1;"><rect id="v-269" fill="#ffffff" rx="3" ry="3" pointer-events="none" display="none" width="0" height="0" transform="matrix(1,0,0,1,0,0)"></rect><text id="v-268" font-size="19px" y="0.8em" display="none" xml:space="preserve" text-anchor="middle" pointer-events="none" fill="#707070" font-family="Open Sans" font-weight="normal" transform="matrix(1,0,0,1,0,0)"><tspan id="v-270" dy="0em" x="0" style="fill-opacity: 0; stroke-opacity: 0;">-</tspan></text></g></g><g display="none"><g transform="translate(1558, 703)" id="v-654"><circle idx="0" r="10"></circle><path idx="0" d="M16,5.333c-7.732,0-14,4.701-14,10.5c0,1.982,0.741,3.833,2.016,5.414L2,25.667l5.613-1.441c2.339,1.317,5.237,2.107,8.387,2.107c7.732,0,14-4.701,14-10.5C30,10.034,23.732,5.333,16,5.333z" transform="translate(5, -33)"></path><path idx="0" transform="scale(.8) translate(9.5, -37)" d="M24.778,21.419 19.276,15.917 24.777,10.415 21.949,7.585 16.447,13.087 10.945,7.585 8.117,10.415 13.618,15.917 8.116,21.419 10.946,24.248 16.447,18.746 21.948,24.248z"><title>Remove vertex.</title></path></g></g><g id="v-275" display="none"><g id="v-256"><path end="source" d="M 26 0 L 0 13 L 26 26 z"></path></g><g id="v-257"><path end="target" d="M 26 0 L 0 13 L 26 26 z"></path></g></g><g id="v-274" display="none"><g id="v-254" transform="translate(2419.770751953125, 437.76947021484375) "><g event="remove"><circle r="11"></circle><path transform="scale(.8) translate(-16, -16)" d="M24.778,21.419 19.276,15.917 24.777,10.415 21.949,7.585 16.447,13.087 10.945,7.585 8.117,10.415 13.618,15.917 8.116,21.419 10.946,24.248 16.447,18.746 21.948,24.248z"></path><title>Remove link.</title></g><g event="link:options"><circle r="11" transform="translate(25)"></circle><path fill="white" transform="scale(.55) translate(29, -16)" d="M31.229,17.736c0.064-0.571,0.104-1.148,0.104-1.736s-0.04-1.166-0.104-1.737l-4.377-1.557c-0.218-0.716-0.504-1.401-0.851-2.05l1.993-4.192c-0.725-0.91-1.549-1.734-2.458-2.459l-4.193,1.994c-0.647-0.347-1.334-0.632-2.049-0.849l-1.558-4.378C17.165,0.708,16.588,0.667,16,0.667s-1.166,0.041-1.737,0.105L12.707,5.15c-0.716,0.217-1.401,0.502-2.05,0.849L6.464,4.005C5.554,4.73,4.73,5.554,4.005,6.464l1.994,4.192c-0.347,0.648-0.632,1.334-0.849,2.05l-4.378,1.557C0.708,14.834,0.667,15.412,0.667,16s0.041,1.165,0.105,1.736l4.378,1.558c0.217,0.715,0.502,1.401,0.849,2.049l-1.994,4.193c0.725,0.909,1.549,1.733,2.459,2.458l4.192-1.993c0.648,0.347,1.334,0.633,2.05,0.851l1.557,4.377c0.571,0.064,1.148,0.104,1.737,0.104c0.588,0,1.165-0.04,1.736-0.104l1.558-4.377c0.715-0.218,1.399-0.504,2.049-0.851l4.193,1.993c0.909-0.725,1.733-1.549,2.458-2.458l-1.993-4.193c0.347-0.647,0.633-1.334,0.851-2.049L31.229,17.736zM16,20.871c-2.69,0-4.872-2.182-4.872-4.871c0-2.69,2.182-4.872,4.872-4.872c2.689,0,4.871,2.182,4.871,4.872C20.871,18.689,18.689,20.871,16,20.871z"></path><title>Link options.</title></g></g></g></g><g id="j_18"><path stroke="#707070" id="v-295" stroke-width="2" stroke-dasharray="30 30" fill="none" d="M 2848 2307 3162 2594" style="opacity: 1;"></path><path fill="black" stroke="black" transform="translate(2848,2307) scale(1,1) rotate(42.3602600097656)"></path><path fill="#707070" stroke="#707070" id="v-297" d="M 20 0 L 0 10 L 20 20 z" transform="translate(3170.262171779593,2614.3893357809056) scale(1,1) rotate(-137.63975524902344)" style="opacity: 1;"></path><path id="v-296" fill="none" d="M 2848 2307 3162 2594" style=""></path><title></title><g><g id="v-283" label-idx="0" cursor="move" transform="translate(3005, 2450.5)" style="opacity: 1;"><rect id="v-285" fill="#ffffff" rx="3" ry="3" stroke="#ffffff" stroke-width="20px" pointer-events="none" width="188.9756622314453" height="31.432331085205078" transform="matrix(1,0,0,1,-94.2,-15.7)"></rect><text id="v-284" font-size="24px" y="0.8em" xml:space="preserve" text-anchor="middle" pointer-events="none" fill="#707070" font-family="Open Sans" font-weight="normal" transform="matrix(1,0,0,1,0,-10.5)"><tspan id="v-286" dy="0em" x="0">update database</tspan></text></g><g id="v-287" label-idx="1" cursor="move" transform="translate(3005, 2481.7)" style="opacity: 1;"><rect id="v-289" fill="#ffffff" rx="3" ry="3" pointer-events="none" width="0" height="0" transform="matrix(1,0,0,1,0,0)"></rect><text id="v-288" font-size="19px" y="0.8em" display="none" xml:space="preserve" text-anchor="middle" pointer-events="none" fill="#707070" font-family="Open Sans" font-weight="normal" transform="matrix(1,0,0,1,0,0)"><tspan id="v-290" dy="0em" x="0" style="fill-opacity: 0; stroke-opacity: 0;">-</tspan></text></g><g id="v-291" label-idx="2" cursor="move" transform="translate(3005, 2505.7)" style="opacity: 1;"><rect id="v-293" fill="#ffffff" rx="3" ry="3" pointer-events="none" display="none" width="0" height="0" transform="matrix(1,0,0,1,0,0)"></rect><text id="v-292" font-size="19px" y="0.8em" display="none" xml:space="preserve" text-anchor="middle" pointer-events="none" fill="#707070" font-family="Open Sans" font-weight="normal" transform="matrix(1,0,0,1,0,0)"><tspan id="v-294" dy="0em" x="0" style="fill-opacity: 0; stroke-opacity: 0;">-</tspan></text></g></g><g display="none"></g><g id="v-299" display="none"><g id="v-280"><path end="source" d="M 26 0 L 0 13 L 26 26 z"></path></g><g id="v-281"><path end="target" d="M 26 0 L 0 13 L 26 26 z"></path></g></g><g id="v-298" display="none"><g id="v-279" transform="translate(2877.525146484375, 2333.986328125) "><g event="remove"><circle r="11"></circle><path transform="scale(.8) translate(-16, -16)" d="M24.778,21.419 19.276,15.917 24.777,10.415 21.949,7.585 16.447,13.087 10.945,7.585 8.117,10.415 13.618,15.917 8.116,21.419 10.946,24.248 16.447,18.746 21.948,24.248z"></path><title>Remove link.</title></g><g event="link:options"><circle r="11" transform="translate(25)"></circle><path fill="white" transform="scale(.55) translate(29, -16)" d="M31.229,17.736c0.064-0.571,0.104-1.148,0.104-1.736s-0.04-1.166-0.104-1.737l-4.377-1.557c-0.218-0.716-0.504-1.401-0.851-2.05l1.993-4.192c-0.725-0.91-1.549-1.734-2.458-2.459l-4.193,1.994c-0.647-0.347-1.334-0.632-2.049-0.849l-1.558-4.378C17.165,0.708,16.588,0.667,16,0.667s-1.166,0.041-1.737,0.105L12.707,5.15c-0.716,0.217-1.401,0.502-2.05,0.849L6.464,4.005C5.554,4.73,4.73,5.554,4.005,6.464l1.994,4.192c-0.347,0.648-0.632,1.334-0.849,2.05l-4.378,1.557C0.708,14.834,0.667,15.412,0.667,16s0.041,1.165,0.105,1.736l4.378,1.558c0.217,0.715,0.502,1.401,0.849,2.049l-1.994,4.193c0.725,0.909,1.549,1.733,2.459,2.458l4.192-1.993c0.648,0.347,1.334,0.633,2.05,0.851l1.557,4.377c0.571,0.064,1.148,0.104,1.737,0.104c0.588,0,1.165-0.04,1.736-0.104l1.558-4.377c0.715-0.218,1.399-0.504,2.049-0.851l4.193,1.993c0.909-0.725,1.733-1.549,2.458-2.458l-1.993-4.193c0.347-0.647,0.633-1.334,0.851-2.049L31.229,17.736zM16,20.871c-2.69,0-4.872-2.182-4.872-4.871c0-2.69,2.182-4.872,4.872-4.872c2.689,0,4.871,2.182,4.871,4.872C20.871,18.689,18.689,20.871,16,20.871z"></path><title>Link options.</title></g></g></g></g><g id="j_19"><path stroke="#707070" id="v-320" stroke-width="2" stroke-dasharray="30 30" fill="none" d="M 1746 1107 1387 1395" style="opacity: 1;"></path><path fill="black" stroke="black" transform="translate(1746,1107) scale(1,1) rotate(-218.65980529785156)"></path><path fill="#707070" stroke="#707070" id="v-322" d="M 20 0 L 0 10 L 20 20 z" transform="translate(1364.7530772269386,1399.191314349521) scale(1,1) rotate(-38.65980911254882)" style="opacity: 1;"></path><path id="v-321" fill="none" d="M 1746 1107 1387 1395" style=""></path><title></title><g><g id="v-307" label-idx="0" cursor="move" transform="translate(1566.5, 1251)" style="opacity: 1;"><rect id="v-309" fill="#ffffff" rx="3" ry="3" stroke="#ffffff" stroke-width="20px" pointer-events="none" width="173.05442810058594" height="60.232330322265625" transform="matrix(1,0,0,1,-85.6,-30.1)"></rect><text id="v-308" font-size="24px" y="0.8em" xml:space="preserve" text-anchor="middle" pointer-events="none" fill="#707070" font-family="Open Sans" font-weight="normal" transform="matrix(1,0,0,1,0,-24.9)"><tspan id="v-310" dy="0em" x="0">check creating</tspan><tspan id="v-311" dy="1.2em" x="0">request validity</tspan></text></g><g id="v-312" label-idx="1" cursor="move" transform="translate(1566.5, 1294.2)" style="opacity: 1;"><rect id="v-314" fill="#ffffff" rx="3" ry="3" pointer-events="none" width="0" height="0" transform="matrix(1,0,0,1,0,0)"></rect><text id="v-313" font-size="19px" y="0.8em" display="none" xml:space="preserve" text-anchor="middle" pointer-events="none" fill="#707070" font-family="Open Sans" font-weight="normal" transform="matrix(1,0,0,1,0,0)"><tspan id="v-315" dy="0em" x="0" style="fill-opacity: 0; stroke-opacity: 0;">-</tspan></text></g><g id="v-316" label-idx="2" cursor="move" transform="translate(1566.5, 1318.2)" style="opacity: 1;"><rect id="v-318" fill="#ffffff" rx="3" ry="3" pointer-events="none" display="none" width="0" height="0" transform="matrix(1,0,0,1,0,0)"></rect><text id="v-317" font-size="19px" y="0.8em" display="none" xml:space="preserve" text-anchor="middle" pointer-events="none" fill="#707070" font-family="Open Sans" font-weight="normal" transform="matrix(1,0,0,1,0,0)"><tspan id="v-319" dy="0em" x="0" style="fill-opacity: 0; stroke-opacity: 0;">-</tspan></text></g></g><g display="none"></g><g id="v-324" display="none"><g id="v-304"><path end="source" d="M 26 0 L 0 13 L 26 26 z"></path></g><g id="v-305"><path end="target" d="M 26 0 L 0 13 L 26 26 z"></path></g></g><g id="v-323" display="none"><g id="v-303" transform="translate(1714.7991943359375, 1132.0301513671875) "><g event="remove"><circle r="11"></circle><path transform="scale(.8) translate(-16, -16)" d="M24.778,21.419 19.276,15.917 24.777,10.415 21.949,7.585 16.447,13.087 10.945,7.585 8.117,10.415 13.618,15.917 8.116,21.419 10.946,24.248 16.447,18.746 21.948,24.248z"></path><title>Remove link.</title></g><g event="link:options"><circle r="11" transform="translate(25)"></circle><path fill="white" transform="scale(.55) translate(29, -16)" d="M31.229,17.736c0.064-0.571,0.104-1.148,0.104-1.736s-0.04-1.166-0.104-1.737l-4.377-1.557c-0.218-0.716-0.504-1.401-0.851-2.05l1.993-4.192c-0.725-0.91-1.549-1.734-2.458-2.459l-4.193,1.994c-0.647-0.347-1.334-0.632-2.049-0.849l-1.558-4.378C17.165,0.708,16.588,0.667,16,0.667s-1.166,0.041-1.737,0.105L12.707,5.15c-0.716,0.217-1.401,0.502-2.05,0.849L6.464,4.005C5.554,4.73,4.73,5.554,4.005,6.464l1.994,4.192c-0.347,0.648-0.632,1.334-0.849,2.05l-4.378,1.557C0.708,14.834,0.667,15.412,0.667,16s0.041,1.165,0.105,1.736l4.378,1.558c0.217,0.715,0.502,1.401,0.849,2.049l-1.994,4.193c0.725,0.909,1.549,1.733,2.459,2.458l4.192-1.993c0.648,0.347,1.334,0.633,2.05,0.851l1.557,4.377c0.571,0.064,1.148,0.104,1.737,0.104c0.588,0,1.165-0.04,1.736-0.104l1.558-4.377c0.715-0.218,1.399-0.504,2.049-0.851l4.193,1.993c0.909-0.725,1.733-1.549,2.458-2.458l-1.993-4.193c0.347-0.647,0.633-1.334,0.851-2.049L31.229,17.736zM16,20.871c-2.69,0-4.872-2.182-4.872-4.871c0-2.69,2.182-4.872,4.872-4.872c2.689,0,4.871,2.182,4.871,4.872C20.871,18.689,18.689,20.871,16,20.871z"></path><title>Link options.</title></g></g></g></g><g id="j_20"><path stroke="#707070" id="v-344" stroke-width="2" stroke-dasharray="30 30" fill="none" d="M 2683 507 2683 787" style="opacity: 1;"></path><path fill="black" stroke="black" transform="translate(2683,507) scale(1,1) rotate(-270)"></path><path fill="#707070" stroke="#707070" id="v-346" d="M 20 0 L 0 10 L 20 20 z" transform="translate(2673,807) scale(1,1) rotate(-90)" style="opacity: 1;"></path><path id="v-345" fill="none" d="M 2683 507 2683 787" style=""></path><title></title><g><g id="v-332" label-idx="0" cursor="move" transform="translate(2683, 647)" style="opacity: 1;"><rect id="v-334" fill="#ffffff" rx="3" ry="3" stroke="#ffffff" stroke-width="20px" pointer-events="none" width="142.3013458251953" height="31.432331085205078" transform="matrix(1,0,0,1,-69.1,-15.7)"></rect><text id="v-333" font-size="24px" y="0.8em" xml:space="preserve" text-anchor="middle" pointer-events="none" fill="#707070" font-family="Open Sans" font-weight="normal" transform="matrix(1,0,0,1,0,-10.5)"><tspan id="v-335" dy="0em" x="0">delete order</tspan></text></g><g id="v-336" label-idx="1" cursor="move" transform="translate(2683, 678.2)" style="opacity: 1;"><rect id="v-338" fill="#ffffff" rx="3" ry="3" pointer-events="none" width="0" height="0" transform="matrix(1,0,0,1,0,0)"></rect><text id="v-337" font-size="19px" y="0.8em" display="none" xml:space="preserve" text-anchor="middle" pointer-events="none" fill="#707070" font-family="Open Sans" font-weight="normal" transform="matrix(1,0,0,1,0,0)"><tspan id="v-339" dy="0em" x="0" style="fill-opacity: 0; stroke-opacity: 0;">-</tspan></text></g><g id="v-340" label-idx="2" cursor="move" transform="translate(2683, 702.2)" style="opacity: 1;"><rect id="v-342" fill="#ffffff" rx="3" ry="3" pointer-events="none" display="none" width="0" height="0" transform="matrix(1,0,0,1,0,0)"></rect><text id="v-341" font-size="19px" y="0.8em" display="none" xml:space="preserve" text-anchor="middle" pointer-events="none" fill="#707070" font-family="Open Sans" font-weight="normal" transform="matrix(1,0,0,1,0,0)"><tspan id="v-343" dy="0em" x="0" style="fill-opacity: 0; stroke-opacity: 0;">-</tspan></text></g></g><g display="none"></g><g id="v-348" display="none"><g id="v-329"><path end="source" d="M 26 0 L 0 13 L 26 26 z"></path></g><g id="v-330"><path end="target" d="M 26 0 L 0 13 L 26 26 z"></path></g></g><g id="v-347" display="none"><g id="v-328" transform="translate(2683, 547) "><g event="remove"><circle r="11"></circle><path transform="scale(.8) translate(-16, -16)" d="M24.778,21.419 19.276,15.917 24.777,10.415 21.949,7.585 16.447,13.087 10.945,7.585 8.117,10.415 13.618,15.917 8.116,21.419 10.946,24.248 16.447,18.746 21.948,24.248z"></path><title>Remove link.</title></g><g event="link:options"><circle r="11" transform="translate(25)"></circle><path fill="white" transform="scale(.55) translate(29, -16)" d="M31.229,17.736c0.064-0.571,0.104-1.148,0.104-1.736s-0.04-1.166-0.104-1.737l-4.377-1.557c-0.218-0.716-0.504-1.401-0.851-2.05l1.993-4.192c-0.725-0.91-1.549-1.734-2.458-2.459l-4.193,1.994c-0.647-0.347-1.334-0.632-2.049-0.849l-1.558-4.378C17.165,0.708,16.588,0.667,16,0.667s-1.166,0.041-1.737,0.105L12.707,5.15c-0.716,0.217-1.401,0.502-2.05,0.849L6.464,4.005C5.554,4.73,4.73,5.554,4.005,6.464l1.994,4.192c-0.347,0.648-0.632,1.334-0.849,2.05l-4.378,1.557C0.708,14.834,0.667,15.412,0.667,16s0.041,1.165,0.105,1.736l4.378,1.558c0.217,0.715,0.502,1.401,0.849,2.049l-1.994,4.193c0.725,0.909,1.549,1.733,2.459,2.458l4.192-1.993c0.648,0.347,1.334,0.633,2.05,0.851l1.557,4.377c0.571,0.064,1.148,0.104,1.737,0.104c0.588,0,1.165-0.04,1.736-0.104l1.558-4.377c0.715-0.218,1.399-0.504,2.049-0.851l4.193,1.993c0.909-0.725,1.733-1.549,2.458-2.458l-1.993-4.193c0.347-0.647,0.633-1.334,0.851-2.049L31.229,17.736zM16,20.871c-2.69,0-4.872-2.182-4.872-4.871c0-2.69,2.182-4.872,4.872-4.872c2.689,0,4.871,2.182,4.871,4.872C20.871,18.689,18.689,20.871,16,20.871z"></path><title>Link options.</title></g></g></g></g><g id="j_21"><path stroke="#707070" id="v-368" stroke-width="2" stroke-dasharray="30 30" fill="none" d="M 2908 2253 3849 2653" style="opacity: 1;"></path><path fill="black" stroke="black" transform="translate(2908,2253) scale(1,1) rotate(23.04699707031253)"></path><path fill="#707070" stroke="#707070" id="v-370" d="M 20 0 L 0 10 L 20 20 z" transform="translate(3863.085075711209,2670.2019059740865) scale(1,1) rotate(-156.9530029296875)" style="opacity: 1;"></path><path id="v-369" fill="none" d="M 2908 2253 3849 2653" style=""></path><title></title><g><g id="v-356" label-idx="0" cursor="move" transform="translate(3378.5, 2453)" style="opacity: 1;"><rect id="v-358" fill="#ffffff" rx="3" ry="3" stroke="#ffffff" stroke-width="20px" pointer-events="none" width="188.9756622314453" height="31.432331085205078" transform="matrix(1,0,0,1,-94.2,-15.7)"></rect><text id="v-357" font-size="24px" y="0.8em" xml:space="preserve" text-anchor="middle" pointer-events="none" fill="#707070" font-family="Open Sans" font-weight="normal" transform="matrix(1,0,0,1,0,-10.5)"><tspan id="v-359" dy="0em" x="0">update database</tspan></text></g><g id="v-360" label-idx="1" cursor="move" transform="translate(3378.5, 2484.2)" style="opacity: 1;"><rect id="v-362" fill="#ffffff" rx="3" ry="3" pointer-events="none" width="0" height="0" transform="matrix(1,0,0,1,0,0)"></rect><text id="v-361" font-size="19px" y="0.8em" display="none" xml:space="preserve" text-anchor="middle" pointer-events="none" fill="#707070" font-family="Open Sans" font-weight="normal" transform="matrix(1,0,0,1,0,0)"><tspan id="v-363" dy="0em" x="0" style="fill-opacity: 0; stroke-opacity: 0;">-</tspan></text></g><g id="v-364" label-idx="2" cursor="move" transform="translate(3378.5, 2508.2)" style="opacity: 1;"><rect id="v-366" fill="#ffffff" rx="3" ry="3" pointer-events="none" display="none" width="0" height="0" transform="matrix(1,0,0,1,0,0)"></rect><text id="v-365" font-size="19px" y="0.8em" display="none" xml:space="preserve" text-anchor="middle" pointer-events="none" fill="#707070" font-family="Open Sans" font-weight="normal" transform="matrix(1,0,0,1,0,0)"><tspan id="v-367" dy="0em" x="0" style="fill-opacity: 0; stroke-opacity: 0;">-</tspan></text></g></g><g display="none"></g><g id="v-372" display="none"><g id="v-353"><path end="source" d="M 26 0 L 0 13 L 26 26 z"></path></g><g id="v-354"><path end="target" d="M 26 0 L 0 13 L 26 26 z"></path></g></g><g id="v-371" display="none"><g id="v-352" transform="translate(2944.81201171875, 2268.648193359375) "><g event="remove"><circle r="11"></circle><path transform="scale(.8) translate(-16, -16)" d="M24.778,21.419 19.276,15.917 24.777,10.415 21.949,7.585 16.447,13.087 10.945,7.585 8.117,10.415 13.618,15.917 8.116,21.419 10.946,24.248 16.447,18.746 21.948,24.248z"></path><title>Remove link.</title></g><g event="link:options"><circle r="11" transform="translate(25)"></circle><path fill="white" transform="scale(.55) translate(29, -16)" d="M31.229,17.736c0.064-0.571,0.104-1.148,0.104-1.736s-0.04-1.166-0.104-1.737l-4.377-1.557c-0.218-0.716-0.504-1.401-0.851-2.05l1.993-4.192c-0.725-0.91-1.549-1.734-2.458-2.459l-4.193,1.994c-0.647-0.347-1.334-0.632-2.049-0.849l-1.558-4.378C17.165,0.708,16.588,0.667,16,0.667s-1.166,0.041-1.737,0.105L12.707,5.15c-0.716,0.217-1.401,0.502-2.05,0.849L6.464,4.005C5.554,4.73,4.73,5.554,4.005,6.464l1.994,4.192c-0.347,0.648-0.632,1.334-0.849,2.05l-4.378,1.557C0.708,14.834,0.667,15.412,0.667,16s0.041,1.165,0.105,1.736l4.378,1.558c0.217,0.715,0.502,1.401,0.849,2.049l-1.994,4.193c0.725,0.909,1.549,1.733,2.459,2.458l4.192-1.993c0.648,0.347,1.334,0.633,2.05,0.851l1.557,4.377c0.571,0.064,1.148,0.104,1.737,0.104c0.588,0,1.165-0.04,1.736-0.104l1.558-4.377c0.715-0.218,1.399-0.504,2.049-0.851l4.193,1.993c0.909-0.725,1.733-1.549,2.458-2.458l-1.993-4.193c0.347-0.647,0.633-1.334,0.851-2.049L31.229,17.736zM16,20.871c-2.69,0-4.872-2.182-4.872-4.871c0-2.69,2.182-4.872,4.872-4.872c2.689,0,4.871,2.182,4.871,4.872C20.871,18.689,18.689,20.871,16,20.871z"></path><title>Link options.</title></g></g></g></g><g id="j_22"><path stroke="#707070" id="v-393" stroke-width="2" stroke-dasharray="30 30" fill="none" d="M 2458 1047 1427 1460" style="opacity: 1;"></path><path fill="black" stroke="black" transform="translate(2458,1047) scale(1,1) rotate(-201.80140686035156)"></path><path fill="#707070" stroke="#707070" id="v-395" d="M 20 0 L 0 10 L 20 20 z" transform="translate(1404.2861164365434,1457.7152725041483) scale(1,1) rotate(-21.801408767700195)" style="opacity: 1;"></path><path id="v-394" fill="none" d="M 2458 1047 1427 1460" style=""></path><title></title><g><g id="v-380" label-idx="0" cursor="move" transform="translate(1942.5, 1253.5)" style="opacity: 1;"><rect id="v-382" fill="#ffffff" rx="3" ry="3" stroke="#ffffff" stroke-width="20px" pointer-events="none" width="173.05442810058594" height="60.232330322265625" transform="matrix(1,0,0,1,-85.6,-30.1)"></rect><text id="v-381" font-size="24px" y="0.8em" xml:space="preserve" text-anchor="middle" pointer-events="none" fill="#707070" font-family="Open Sans" font-weight="normal" transform="matrix(1,0,0,1,0,-24.9)"><tspan id="v-383" dy="0em" x="0">check delete</tspan><tspan id="v-384" dy="1.2em" x="0">request validity</tspan></text></g><g id="v-385" label-idx="1" cursor="move" transform="translate(1942.5, 1296.7)" style="opacity: 1;"><rect id="v-387" fill="#ffffff" rx="3" ry="3" pointer-events="none" width="0" height="0" transform="matrix(1,0,0,1,0,0)"></rect><text id="v-386" font-size="19px" y="0.8em" display="none" xml:space="preserve" text-anchor="middle" pointer-events="none" fill="#707070" font-family="Open Sans" font-weight="normal" transform="matrix(1,0,0,1,0,0)"><tspan id="v-388" dy="0em" x="0" style="fill-opacity: 0; stroke-opacity: 0;">-</tspan></text></g><g id="v-389" label-idx="2" cursor="move" transform="translate(1942.5, 1320.7)" style="opacity: 1;"><rect id="v-391" fill="#ffffff" rx="3" ry="3" pointer-events="none" display="none" width="0" height="0" transform="matrix(1,0,0,1,0,0)"></rect><text id="v-390" font-size="19px" y="0.8em" display="none" xml:space="preserve" text-anchor="middle" pointer-events="none" fill="#707070" font-family="Open Sans" font-weight="normal" transform="matrix(1,0,0,1,0,0)"><tspan id="v-392" dy="0em" x="0" style="fill-opacity: 0; stroke-opacity: 0;">-</tspan></text></g></g><g display="none"></g><g id="v-397" display="none"><g id="v-377"><path end="source" d="M 26 0 L 0 13 L 26 26 z"></path></g><g id="v-378"><path end="target" d="M 26 0 L 0 13 L 26 26 z"></path></g></g><g id="v-396" display="none"><g id="v-376" transform="translate(2420.8681640625, 1061.8741455078125) "><g event="remove"><circle r="11"></circle><path transform="scale(.8) translate(-16, -16)" d="M24.778,21.419 19.276,15.917 24.777,10.415 21.949,7.585 16.447,13.087 10.945,7.585 8.117,10.415 13.618,15.917 8.116,21.419 10.946,24.248 16.447,18.746 21.948,24.248z"></path><title>Remove link.</title></g><g event="link:options"><circle r="11" transform="translate(25)"></circle><path fill="white" transform="scale(.55) translate(29, -16)" d="M31.229,17.736c0.064-0.571,0.104-1.148,0.104-1.736s-0.04-1.166-0.104-1.737l-4.377-1.557c-0.218-0.716-0.504-1.401-0.851-2.05l1.993-4.192c-0.725-0.91-1.549-1.734-2.458-2.459l-4.193,1.994c-0.647-0.347-1.334-0.632-2.049-0.849l-1.558-4.378C17.165,0.708,16.588,0.667,16,0.667s-1.166,0.041-1.737,0.105L12.707,5.15c-0.716,0.217-1.401,0.502-2.05,0.849L6.464,4.005C5.554,4.73,4.73,5.554,4.005,6.464l1.994,4.192c-0.347,0.648-0.632,1.334-0.849,2.05l-4.378,1.557C0.708,14.834,0.667,15.412,0.667,16s0.041,1.165,0.105,1.736l4.378,1.558c0.217,0.715,0.502,1.401,0.849,2.049l-1.994,4.193c0.725,0.909,1.549,1.733,2.459,2.458l4.192-1.993c0.648,0.347,1.334,0.633,2.05,0.851l1.557,4.377c0.571,0.064,1.148,0.104,1.737,0.104c0.588,0,1.165-0.04,1.736-0.104l1.558-4.377c0.715-0.218,1.399-0.504,2.049-0.851l4.193,1.993c0.909-0.725,1.733-1.549,2.458-2.458l-1.993-4.193c0.347-0.647,0.633-1.334,0.851-2.049L31.229,17.736zM16,20.871c-2.69,0-4.872-2.182-4.872-4.871c0-2.69,2.182-4.872,4.872-4.872c2.689,0,4.871,2.182,4.871,4.872C20.871,18.689,18.689,20.871,16,20.871z"></path><title>Link options.</title></g></g></g></g><g id="j_23"><path stroke="#707070" id="v-418" stroke-width="2" stroke-dasharray="30 30" fill="none" d="M 1183 1107 1183 1387" style="opacity: 1;"></path><path fill="black" stroke="black" transform="translate(1183,1107) scale(1,1) rotate(-270)"></path><path fill="#707070" stroke="#707070" id="v-420" d="M 20 0 L 0 10 L 20 20 z" transform="translate(1173,1407) scale(1,1) rotate(-90)" style="opacity: 1;"></path><path id="v-419" fill="none" d="M 1183 1107 1183 1387" style=""></path><title></title><g><g id="v-405" label-idx="0" cursor="move" transform="translate(1183, 1247)" style="opacity: 1;"><rect id="v-407" fill="#ffffff" rx="3" ry="3" stroke="#ffffff" stroke-width="20px" pointer-events="none" width="173.05442810058594" height="60.232330322265625" transform="matrix(1,0,0,1,-85.6,-30.1)"></rect><text id="v-406" font-size="24px" y="0.8em" xml:space="preserve" text-anchor="middle" pointer-events="none" fill="#707070" font-family="Open Sans" font-weight="normal" transform="matrix(1,0,0,1,0,-24.9)"><tspan id="v-408" dy="0em" x="0">check updated</tspan><tspan id="v-409" dy="1.2em" x="0">request validity</tspan></text></g><g id="v-410" label-idx="1" cursor="move" transform="translate(1183, 1290.2)" style="opacity: 1;"><rect id="v-412" fill="#ffffff" rx="3" ry="3" pointer-events="none" width="0" height="0" transform="matrix(1,0,0,1,0,0)"></rect><text id="v-411" font-size="19px" y="0.8em" display="none" xml:space="preserve" text-anchor="middle" pointer-events="none" fill="#707070" font-family="Open Sans" font-weight="normal" transform="matrix(1,0,0,1,0,0)"><tspan id="v-413" dy="0em" x="0" style="fill-opacity: 0; stroke-opacity: 0;">-</tspan></text></g><g id="v-414" label-idx="2" cursor="move" transform="translate(1183, 1314.2)" style="opacity: 1;"><rect id="v-416" fill="#ffffff" rx="3" ry="3" pointer-events="none" display="none" width="0" height="0" transform="matrix(1,0,0,1,0,0)"></rect><text id="v-415" font-size="19px" y="0.8em" display="none" xml:space="preserve" text-anchor="middle" pointer-events="none" fill="#707070" font-family="Open Sans" font-weight="normal" transform="matrix(1,0,0,1,0,0)"><tspan id="v-417" dy="0em" x="0" style="fill-opacity: 0; stroke-opacity: 0;">-</tspan></text></g></g><g display="none"></g><g id="v-422" display="none"><g id="v-402"><path end="source" d="M 26 0 L 0 13 L 26 26 z"></path></g><g id="v-403"><path end="target" d="M 26 0 L 0 13 L 26 26 z"></path></g></g><g id="v-421" display="none"><g id="v-401" transform="translate(1183, 1147) "><g event="remove"><circle r="11"></circle><path transform="scale(.8) translate(-16, -16)" d="M24.778,21.419 19.276,15.917 24.777,10.415 21.949,7.585 16.447,13.087 10.945,7.585 8.117,10.415 13.618,15.917 8.116,21.419 10.946,24.248 16.447,18.746 21.948,24.248z"></path><title>Remove link.</title></g><g event="link:options"><circle r="11" transform="translate(25)"></circle><path fill="white" transform="scale(.55) translate(29, -16)" d="M31.229,17.736c0.064-0.571,0.104-1.148,0.104-1.736s-0.04-1.166-0.104-1.737l-4.377-1.557c-0.218-0.716-0.504-1.401-0.851-2.05l1.993-4.192c-0.725-0.91-1.549-1.734-2.458-2.459l-4.193,1.994c-0.647-0.347-1.334-0.632-2.049-0.849l-1.558-4.378C17.165,0.708,16.588,0.667,16,0.667s-1.166,0.041-1.737,0.105L12.707,5.15c-0.716,0.217-1.401,0.502-2.05,0.849L6.464,4.005C5.554,4.73,4.73,5.554,4.005,6.464l1.994,4.192c-0.347,0.648-0.632,1.334-0.849,2.05l-4.378,1.557C0.708,14.834,0.667,15.412,0.667,16s0.041,1.165,0.105,1.736l4.378,1.558c0.217,0.715,0.502,1.401,0.849,2.049l-1.994,4.193c0.725,0.909,1.549,1.733,2.459,2.458l4.192-1.993c0.648,0.347,1.334,0.633,2.05,0.851l1.557,4.377c0.571,0.064,1.148,0.104,1.737,0.104c0.588,0,1.165-0.04,1.736-0.104l1.558-4.377c0.715-0.218,1.399-0.504,2.049-0.851l4.193,1.993c0.909-0.725,1.733-1.549,2.458-2.458l-1.993-4.193c0.347-0.647,0.633-1.334,0.851-2.049L31.229,17.736zM16,20.871c-2.69,0-4.872-2.182-4.872-4.871c0-2.69,2.182-4.872,4.872-4.872c2.689,0,4.871,2.182,4.871,4.872C20.871,18.689,18.689,20.871,16,20.871z"></path><title>Link options.</title></g></g></g></g><g id="j_24"><path stroke="#707070" id="v-443" stroke-width="2" stroke-dasharray="30 30" fill="none" d="M 996 1707 637 1995" style="opacity: 1;"></path><path fill="black" stroke="black" transform="translate(996,1707) scale(1,1) rotate(-218.65980529785156)"></path><path fill="#707070" stroke="#707070" id="v-445" d="M 20 0 L 0 10 L 20 20 z" transform="translate(614.7530772269386,1999.191314349521) scale(1,1) rotate(-38.65980911254882)" style="opacity: 1;"></path><path id="v-444" fill="none" d="M 996 1707 637 1995" style=""></path><title></title><g><g id="v-430" label-idx="0" cursor="move" transform="translate(816.5, 1851)" style="opacity: 1;"><rect id="v-432" fill="#ffffff" rx="3" ry="3" stroke="#ffffff" stroke-width="20px" pointer-events="none" width="136.20932006835938" height="60.232330322265625" transform="matrix(1,0,0,1,-66.8,-30.1)"></rect><text id="v-431" font-size="24px" y="0.8em" xml:space="preserve" text-anchor="middle" pointer-events="none" fill="#707070" font-family="Open Sans" font-weight="normal" transform="matrix(1,0,0,1,0,-24.9)"><tspan id="v-433" dy="0em" x="0">check drugs</tspan><tspan id="v-434" dy="1.2em" x="0">existence</tspan></text></g><g id="v-435" label-idx="1" cursor="move" transform="translate(816.5, 1894.2)" style="opacity: 1;"><rect id="v-437" fill="#ffffff" rx="3" ry="3" pointer-events="none" width="0" height="0" transform="matrix(1,0,0,1,0,0)"></rect><text id="v-436" font-size="19px" y="0.8em" display="none" xml:space="preserve" text-anchor="middle" pointer-events="none" fill="#707070" font-family="Open Sans" font-weight="normal" transform="matrix(1,0,0,1,0,0)"><tspan id="v-438" dy="0em" x="0" style="fill-opacity: 0; stroke-opacity: 0;">-</tspan></text></g><g id="v-439" label-idx="2" cursor="move" transform="translate(816.5, 1918.2)" style="opacity: 1;"><rect id="v-441" fill="#ffffff" rx="3" ry="3" pointer-events="none" display="none" width="0" height="0" transform="matrix(1,0,0,1,0,0)"></rect><text id="v-440" font-size="19px" y="0.8em" display="none" xml:space="preserve" text-anchor="middle" pointer-events="none" fill="#707070" font-family="Open Sans" font-weight="normal" transform="matrix(1,0,0,1,0,0)"><tspan id="v-442" dy="0em" x="0" style="fill-opacity: 0; stroke-opacity: 0;">-</tspan></text></g></g><g display="none"></g><g id="v-447" display="none"><g id="v-427"><path end="source" d="M 26 0 L 0 13 L 26 26 z"></path></g><g id="v-428"><path end="target" d="M 26 0 L 0 13 L 26 26 z"></path></g></g><g id="v-446" display="none"><g id="v-426" transform="translate(964.7991943359375, 1732.0301513671875) "><g event="remove"><circle r="11"></circle><path transform="scale(.8) translate(-16, -16)" d="M24.778,21.419 19.276,15.917 24.777,10.415 21.949,7.585 16.447,13.087 10.945,7.585 8.117,10.415 13.618,15.917 8.116,21.419 10.946,24.248 16.447,18.746 21.948,24.248z"></path><title>Remove link.</title></g><g event="link:options"><circle r="11" transform="translate(25)"></circle><path fill="white" transform="scale(.55) translate(29, -16)" d="M31.229,17.736c0.064-0.571,0.104-1.148,0.104-1.736s-0.04-1.166-0.104-1.737l-4.377-1.557c-0.218-0.716-0.504-1.401-0.851-2.05l1.993-4.192c-0.725-0.91-1.549-1.734-2.458-2.459l-4.193,1.994c-0.647-0.347-1.334-0.632-2.049-0.849l-1.558-4.378C17.165,0.708,16.588,0.667,16,0.667s-1.166,0.041-1.737,0.105L12.707,5.15c-0.716,0.217-1.401,0.502-2.05,0.849L6.464,4.005C5.554,4.73,4.73,5.554,4.005,6.464l1.994,4.192c-0.347,0.648-0.632,1.334-0.849,2.05l-4.378,1.557C0.708,14.834,0.667,15.412,0.667,16s0.041,1.165,0.105,1.736l4.378,1.558c0.217,0.715,0.502,1.401,0.849,2.049l-1.994,4.193c0.725,0.909,1.549,1.733,2.459,2.458l4.192-1.993c0.648,0.347,1.334,0.633,2.05,0.851l1.557,4.377c0.571,0.064,1.148,0.104,1.737,0.104c0.588,0,1.165-0.04,1.736-0.104l1.558-4.377c0.715-0.218,1.399-0.504,2.049-0.851l4.193,1.993c0.909-0.725,1.733-1.549,2.458-2.458l-1.993-4.193c0.347-0.647,0.633-1.334,0.851-2.049L31.229,17.736zM16,20.871c-2.69,0-4.872-2.182-4.872-4.871c0-2.69,2.182-4.872,4.872-4.872c2.689,0,4.871,2.182,4.871,4.872C20.871,18.689,18.689,20.871,16,20.871z"></path><title>Link options.</title></g></g></g></g><g id="j_25"><path stroke="#707070" id="v-469" stroke-width="2" stroke-dasharray="30 30" fill="none" d="M 1183 1707 1183 1987" style="opacity: 1;"></path><path fill="black" stroke="black" transform="translate(1183,1707) scale(1,1) rotate(-270)"></path><path fill="#707070" stroke="#707070" id="v-471" d="M 20 0 L 0 10 L 20 20 z" transform="translate(1173,2007) scale(1,1) rotate(-90)" style="opacity: 1;"></path><path id="v-470" fill="none" d="M 1183 1707 1183 1987" style=""></path><title></title><g><g id="v-455" label-idx="0" cursor="move" transform="translate(1183, 1847)" style="opacity: 1;"><rect id="v-457" fill="#ffffff" rx="3" ry="3" stroke="#ffffff" stroke-width="20px" pointer-events="none" width="143.90113830566406" height="89.03233337402344" transform="matrix(1,0,0,1,-72,-44.5)"></rect><text id="v-456" font-size="24px" y="0.8em" xml:space="preserve" text-anchor="middle" pointer-events="none" fill="#707070" font-family="Open Sans" font-weight="normal" transform="matrix(1,0,0,1,0,-39.3)"><tspan id="v-458" dy="0em" x="0">send order</tspan><tspan id="v-459" dy="1.2em" x="0">confirmation</tspan><tspan id="v-460" dy="1.2em" x="0">request</tspan></text></g><g id="v-461" label-idx="1" cursor="move" transform="translate(1183, 1904.6)" style="opacity: 1;"><rect id="v-463" fill="#ffffff" rx="3" ry="3" pointer-events="none" width="0" height="0" transform="matrix(1,0,0,1,0,0)"></rect><text id="v-462" font-size="19px" y="0.8em" display="none" xml:space="preserve" text-anchor="middle" pointer-events="none" fill="#707070" font-family="Open Sans" font-weight="normal" transform="matrix(1,0,0,1,0,0)"><tspan id="v-464" dy="0em" x="0" style="fill-opacity: 0; stroke-opacity: 0;">-</tspan></text></g><g id="v-465" label-idx="2" cursor="move" transform="translate(1183, 1928.6)" style="opacity: 1;"><rect id="v-467" fill="#ffffff" rx="3" ry="3" pointer-events="none" display="none" width="0" height="0" transform="matrix(1,0,0,1,0,0)"></rect><text id="v-466" font-size="19px" y="0.8em" display="none" xml:space="preserve" text-anchor="middle" pointer-events="none" fill="#707070" font-family="Open Sans" font-weight="normal" transform="matrix(1,0,0,1,0,0)"><tspan id="v-468" dy="0em" x="0" style="fill-opacity: 0; stroke-opacity: 0;">-</tspan></text></g></g><g display="none"></g><g id="v-473" display="none"><g id="v-452"><path end="source" d="M 26 0 L 0 13 L 26 26 z"></path></g><g id="v-453"><path end="target" d="M 26 0 L 0 13 L 26 26 z"></path></g></g><g id="v-472" display="none"><g id="v-451" transform="translate(1183, 1747) "><g event="remove"><circle r="11"></circle><path transform="scale(.8) translate(-16, -16)" d="M24.778,21.419 19.276,15.917 24.777,10.415 21.949,7.585 16.447,13.087 10.945,7.585 8.117,10.415 13.618,15.917 8.116,21.419 10.946,24.248 16.447,18.746 21.948,24.248z"></path><title>Remove link.</title></g><g event="link:options"><circle r="11" transform="translate(25)"></circle><path fill="white" transform="scale(.55) translate(29, -16)" d="M31.229,17.736c0.064-0.571,0.104-1.148,0.104-1.736s-0.04-1.166-0.104-1.737l-4.377-1.557c-0.218-0.716-0.504-1.401-0.851-2.05l1.993-4.192c-0.725-0.91-1.549-1.734-2.458-2.459l-4.193,1.994c-0.647-0.347-1.334-0.632-2.049-0.849l-1.558-4.378C17.165,0.708,16.588,0.667,16,0.667s-1.166,0.041-1.737,0.105L12.707,5.15c-0.716,0.217-1.401,0.502-2.05,0.849L6.464,4.005C5.554,4.73,4.73,5.554,4.005,6.464l1.994,4.192c-0.347,0.648-0.632,1.334-0.849,2.05l-4.378,1.557C0.708,14.834,0.667,15.412,0.667,16s0.041,1.165,0.105,1.736l4.378,1.558c0.217,0.715,0.502,1.401,0.849,2.049l-1.994,4.193c0.725,0.909,1.549,1.733,2.459,2.458l4.192-1.993c0.648,0.347,1.334,0.633,2.05,0.851l1.557,4.377c0.571,0.064,1.148,0.104,1.737,0.104c0.588,0,1.165-0.04,1.736-0.104l1.558-4.377c0.715-0.218,1.399-0.504,2.049-0.851l4.193,1.993c0.909-0.725,1.733-1.549,2.458-2.458l-1.993-4.193c0.347-0.647,0.633-1.334,0.851-2.049L31.229,17.736zM16,20.871c-2.69,0-4.872-2.182-4.872-4.871c0-2.69,2.182-4.872,4.872-4.872c2.689,0,4.871,2.182,4.871,4.872C20.871,18.689,18.689,20.871,16,20.871z"></path><title>Link options.</title></g></g></g></g><g id="j_26"><path stroke="#707070" id="v-496" stroke-width="2" stroke-dasharray="30 30" fill="none" d="M 2908 443 3583 699 S 3592 703 3592 713 L 3592 1697 S 3592 1707 3583 1711 L 2926 2037" style="opacity: 1;"></path><path fill="black" stroke="black" transform="translate(2908,443) scale(1,1) rotate(20.812652587890625)"></path><path fill="#707070" stroke="#707070" id="v-498" d="M 20 0 L 0 10 L 20 20 z" transform="translate(2903.559355140107,2037.0400602732054) scale(1,1) rotate(-26.363660812377923)" style="opacity: 1;"></path><path id="v-497" fill="none" d="M 2908 443 3583 699 S 3592 703 3592 713 L 3592 1697 S 3592 1707 3583 1711 L 2926 2037" style=""></path><title></title><g><g id="v-483" label-idx="0" cursor="move" transform="translate(3592, 1210.7598876953125)" style="opacity: 1;"><rect id="v-485" fill="#ffffff" rx="3" ry="3" stroke="#ffffff" stroke-width="20px" pointer-events="none" width="171.54315185546875" height="60.232330322265625" transform="matrix(1,0,0,1,-85.5,-30.1)"></rect><text id="v-484" font-size="24px" y="0.8em" xml:space="preserve" text-anchor="middle" pointer-events="none" fill="#707070" font-family="Open Sans" font-weight="normal" transform="matrix(1,0,0,1,0,-24.9)"><tspan id="v-486" dy="0em" x="0">change storage</tspan><tspan id="v-487" dy="1.2em" x="0">database</tspan></text></g><g id="v-488" label-idx="1" cursor="move" transform="translate(3592, 1253.9598876953125)" style="opacity: 1;"><rect id="v-490" fill="#ffffff" rx="3" ry="3" pointer-events="none" width="0" height="0" transform="matrix(1,0,0,1,0,0)"></rect><text id="v-489" font-size="19px" y="0.8em" display="none" xml:space="preserve" text-anchor="middle" pointer-events="none" fill="#707070" font-family="Open Sans" font-weight="normal" transform="matrix(1,0,0,1,0,0)"><tspan id="v-491" dy="0em" x="0" style="fill-opacity: 0; stroke-opacity: 0;">-</tspan></text></g><g id="v-492" label-idx="2" cursor="move" transform="translate(3592, 1277.9598876953125)" style="opacity: 1;"><rect id="v-494" fill="#ffffff" rx="3" ry="3" pointer-events="none" display="none" width="0" height="0" transform="matrix(1,0,0,1,0,0)"></rect><text id="v-493" font-size="19px" y="0.8em" display="none" xml:space="preserve" text-anchor="middle" pointer-events="none" fill="#707070" font-family="Open Sans" font-weight="normal" transform="matrix(1,0,0,1,0,0)"><tspan id="v-495" dy="0em" x="0" style="fill-opacity: 0; stroke-opacity: 0;">-</tspan></text></g></g><g display="none"><g transform="translate(3592, 703)" id="v-655"><circle idx="0" r="10"></circle><path idx="0" d="M16,5.333c-7.732,0-14,4.701-14,10.5c0,1.982,0.741,3.833,2.016,5.414L2,25.667l5.613-1.441c2.339,1.317,5.237,2.107,8.387,2.107c7.732,0,14-4.701,14-10.5C30,10.034,23.732,5.333,16,5.333z" transform="translate(5, -33)"></path><path idx="0" transform="scale(.8) translate(9.5, -37)" d="M24.778,21.419 19.276,15.917 24.777,10.415 21.949,7.585 16.447,13.087 10.945,7.585 8.117,10.415 13.618,15.917 8.116,21.419 10.946,24.248 16.447,18.746 21.948,24.248z"><title>Remove vertex.</title></path></g><g transform="translate(3592, 1707)" id="v-656"><circle idx="1" r="10"></circle><path idx="1" d="M16,5.333c-7.732,0-14,4.701-14,10.5c0,1.982,0.741,3.833,2.016,5.414L2,25.667l5.613-1.441c2.339,1.317,5.237,2.107,8.387,2.107c7.732,0,14-4.701,14-10.5C30,10.034,23.732,5.333,16,5.333z" transform="translate(5, -33)"></path><path idx="1" transform="scale(.8) translate(9.5, -37)" d="M24.778,21.419 19.276,15.917 24.777,10.415 21.949,7.585 16.447,13.087 10.945,7.585 8.117,10.415 13.618,15.917 8.116,21.419 10.946,24.248 16.447,18.746 21.948,24.248z"><title>Remove vertex.</title></path></g></g><g id="v-500" display="none"><g id="v-480"><path end="source" d="M 26 0 L 0 13 L 26 26 z"></path></g><g id="v-481"><path end="target" d="M 26 0 L 0 13 L 26 26 z"></path></g></g><g id="v-499" display="none"><g id="v-477" transform="translate(2945.400634765625, 457.18450927734375) "><g event="remove"><circle r="11"></circle><path transform="scale(.8) translate(-16, -16)" d="M24.778,21.419 19.276,15.917 24.777,10.415 21.949,7.585 16.447,13.087 10.945,7.585 8.117,10.415 13.618,15.917 8.116,21.419 10.946,24.248 16.447,18.746 21.948,24.248z"></path><title>Remove link.</title></g><g event="link:options"><circle r="11" transform="translate(25)"></circle><path fill="white" transform="scale(.55) translate(29, -16)" d="M31.229,17.736c0.064-0.571,0.104-1.148,0.104-1.736s-0.04-1.166-0.104-1.737l-4.377-1.557c-0.218-0.716-0.504-1.401-0.851-2.05l1.993-4.192c-0.725-0.91-1.549-1.734-2.458-2.459l-4.193,1.994c-0.647-0.347-1.334-0.632-2.049-0.849l-1.558-4.378C17.165,0.708,16.588,0.667,16,0.667s-1.166,0.041-1.737,0.105L12.707,5.15c-0.716,0.217-1.401,0.502-2.05,0.849L6.464,4.005C5.554,4.73,4.73,5.554,4.005,6.464l1.994,4.192c-0.347,0.648-0.632,1.334-0.849,2.05l-4.378,1.557C0.708,14.834,0.667,15.412,0.667,16s0.041,1.165,0.105,1.736l4.378,1.558c0.217,0.715,0.502,1.401,0.849,2.049l-1.994,4.193c0.725,0.909,1.549,1.733,2.459,2.458l4.192-1.993c0.648,0.347,1.334,0.633,2.05,0.851l1.557,4.377c0.571,0.064,1.148,0.104,1.737,0.104c0.588,0,1.165-0.04,1.736-0.104l1.558-4.377c0.715-0.218,1.399-0.504,2.049-0.851l4.193,1.993c0.909-0.725,1.733-1.549,2.458-2.458l-1.993-4.193c0.347-0.647,0.633-1.334,0.851-2.049L31.229,17.736zM16,20.871c-2.69,0-4.872-2.182-4.872-4.871c0-2.69,2.182-4.872,4.872-4.872c2.689,0,4.871,2.182,4.871,4.872C20.871,18.689,18.689,20.871,16,20.871z"></path><title>Link options.</title></g></g></g></g><g id="j_27"><path stroke="#707070" id="v-520" stroke-width="2" stroke-dasharray="30 30" fill="none" d="M 1933 2307 1933 2587" style="opacity: 1;"></path><path fill="black" stroke="black" transform="translate(1933,2307) scale(1,1) rotate(-270)"></path><path fill="#707070" stroke="#707070" id="v-522" d="M 20 0 L 0 10 L 20 20 z" transform="translate(1923,2607) scale(1,1) rotate(-90)" style="opacity: 1;"></path><path id="v-521" fill="none" d="M 1933 2307 1933 2587" style=""></path><title></title><g><g id="v-508" label-idx="0" cursor="move" transform="translate(1933, 2447)" style="opacity: 1;"><rect id="v-510" fill="#ffffff" rx="3" ry="3" stroke="#ffffff" stroke-width="20px" pointer-events="none" width="183.12051391601562" height="31.432331085205078" transform="matrix(1,0,0,1,-90.4,-15.7)"></rect><text id="v-509" font-size="24px" y="0.8em" xml:space="preserve" text-anchor="middle" pointer-events="none" fill="#707070" font-family="Open Sans" font-weight="normal" transform="matrix(1,0,0,1,0,-10.5)"><tspan id="v-511" dy="0em" x="0">request to show</tspan></text></g><g id="v-512" label-idx="1" cursor="move" transform="translate(1933, 2478.2)" style="opacity: 1;"><rect id="v-514" fill="#ffffff" rx="3" ry="3" pointer-events="none" width="0" height="0" transform="matrix(1,0,0,1,0,0)"></rect><text id="v-513" font-size="19px" y="0.8em" display="none" xml:space="preserve" text-anchor="middle" pointer-events="none" fill="#707070" font-family="Open Sans" font-weight="normal" transform="matrix(1,0,0,1,0,0)"><tspan id="v-515" dy="0em" x="0" style="fill-opacity: 0; stroke-opacity: 0;">-</tspan></text></g><g id="v-516" label-idx="2" cursor="move" transform="translate(1933, 2502.2)" style="opacity: 1;"><rect id="v-518" fill="#ffffff" rx="3" ry="3" pointer-events="none" display="none" width="0" height="0" transform="matrix(1,0,0,1,0,0)"></rect><text id="v-517" font-size="19px" y="0.8em" display="none" xml:space="preserve" text-anchor="middle" pointer-events="none" fill="#707070" font-family="Open Sans" font-weight="normal" transform="matrix(1,0,0,1,0,0)"><tspan id="v-519" dy="0em" x="0" style="fill-opacity: 0; stroke-opacity: 0;">-</tspan></text></g></g><g display="none"></g><g id="v-524" display="none"><g id="v-505"><path end="source" d="M 26 0 L 0 13 L 26 26 z"></path></g><g id="v-506"><path end="target" d="M 26 0 L 0 13 L 26 26 z"></path></g></g><g id="v-523" display="none"><g id="v-504" transform="translate(1933, 2347) "><g event="remove"><circle r="11"></circle><path transform="scale(.8) translate(-16, -16)" d="M24.778,21.419 19.276,15.917 24.777,10.415 21.949,7.585 16.447,13.087 10.945,7.585 8.117,10.415 13.618,15.917 8.116,21.419 10.946,24.248 16.447,18.746 21.948,24.248z"></path><title>Remove link.</title></g><g event="link:options"><circle r="11" transform="translate(25)"></circle><path fill="white" transform="scale(.55) translate(29, -16)" d="M31.229,17.736c0.064-0.571,0.104-1.148,0.104-1.736s-0.04-1.166-0.104-1.737l-4.377-1.557c-0.218-0.716-0.504-1.401-0.851-2.05l1.993-4.192c-0.725-0.91-1.549-1.734-2.458-2.459l-4.193,1.994c-0.647-0.347-1.334-0.632-2.049-0.849l-1.558-4.378C17.165,0.708,16.588,0.667,16,0.667s-1.166,0.041-1.737,0.105L12.707,5.15c-0.716,0.217-1.401,0.502-2.05,0.849L6.464,4.005C5.554,4.73,4.73,5.554,4.005,6.464l1.994,4.192c-0.347,0.648-0.632,1.334-0.849,2.05l-4.378,1.557C0.708,14.834,0.667,15.412,0.667,16s0.041,1.165,0.105,1.736l4.378,1.558c0.217,0.715,0.502,1.401,0.849,2.049l-1.994,4.193c0.725,0.909,1.549,1.733,2.459,2.458l4.192-1.993c0.648,0.347,1.334,0.633,2.05,0.851l1.557,4.377c0.571,0.064,1.148,0.104,1.737,0.104c0.588,0,1.165-0.04,1.736-0.104l1.558-4.377c0.715-0.218,1.399-0.504,2.049-0.851l4.193,1.993c0.909-0.725,1.733-1.549,2.458-2.458l-1.993-4.193c0.347-0.647,0.633-1.334,0.851-2.049L31.229,17.736zM16,20.871c-2.69,0-4.872-2.182-4.872-4.871c0-2.69,2.182-4.872,4.872-4.872c2.689,0,4.871,2.182,4.871,4.872C20.871,18.689,18.689,20.871,16,20.871z"></path><title>Link options.</title></g></g></g></g><g id="j_28"><path stroke="#707070" id="v-545" stroke-width="2" stroke-dasharray="30 30" fill="none" d="M 1371 2307 1730 2595" style="opacity: 1;"></path><path fill="black" stroke="black" transform="translate(1371,2307) scale(1,1) rotate(38.659820556640625)"></path><path fill="#707070" stroke="#707070" id="v-547" d="M 20 0 L 0 10 L 20 20 z" transform="translate(1739.7530225237897,2614.808568176895) scale(1,1) rotate(-141.34019470214844)" style="opacity: 1;"></path><path id="v-546" fill="none" d="M 1371 2307 1730 2595" style=""></path><title></title><g><g id="v-532" label-idx="0" cursor="move" transform="translate(1550.5, 2451)" style="opacity: 1;"><rect id="v-534" fill="#ffffff" rx="3" ry="3" stroke="#ffffff" stroke-width="20px" pointer-events="none" width="190.4310302734375" height="60.232330322265625" transform="matrix(1,0,0,1,-94.1,-30.1)"></rect><text id="v-533" font-size="24px" y="0.8em" xml:space="preserve" text-anchor="middle" pointer-events="none" fill="#707070" font-family="Open Sans" font-weight="normal" transform="matrix(1,0,0,1,0,-24.9)"><tspan id="v-535" dy="0em" x="0">request add new</tspan><tspan id="v-536" dy="1.2em" x="0">order</tspan></text></g><g id="v-537" label-idx="1" cursor="move" transform="translate(1550.5, 2494.2)" style="opacity: 1;"><rect id="v-539" fill="#ffffff" rx="3" ry="3" pointer-events="none" width="0" height="0" transform="matrix(1,0,0,1,0,0)"></rect><text id="v-538" font-size="19px" y="0.8em" display="none" xml:space="preserve" text-anchor="middle" pointer-events="none" fill="#707070" font-family="Open Sans" font-weight="normal" transform="matrix(1,0,0,1,0,0)"><tspan id="v-540" dy="0em" x="0" style="fill-opacity: 0; stroke-opacity: 0;">-</tspan></text></g><g id="v-541" label-idx="2" cursor="move" transform="translate(1550.5, 2518.2)" style="opacity: 1;"><rect id="v-543" fill="#ffffff" rx="3" ry="3" pointer-events="none" display="none" width="0" height="0" transform="matrix(1,0,0,1,0,0)"></rect><text id="v-542" font-size="19px" y="0.8em" display="none" xml:space="preserve" text-anchor="middle" pointer-events="none" fill="#707070" font-family="Open Sans" font-weight="normal" transform="matrix(1,0,0,1,0,0)"><tspan id="v-544" dy="0em" x="0" style="fill-opacity: 0; stroke-opacity: 0;">-</tspan></text></g></g><g display="none"></g><g id="v-549" display="none"><g id="v-529"><path end="source" d="M 26 0 L 0 13 L 26 26 z"></path></g><g id="v-530"><path end="target" d="M 26 0 L 0 13 L 26 26 z"></path></g></g><g id="v-548" display="none"><g id="v-528" transform="translate(1402.2008056640625, 2332.0302734375) "><g event="remove"><circle r="11"></circle><path transform="scale(.8) translate(-16, -16)" d="M24.778,21.419 19.276,15.917 24.777,10.415 21.949,7.585 16.447,13.087 10.945,7.585 8.117,10.415 13.618,15.917 8.116,21.419 10.946,24.248 16.447,18.746 21.948,24.248z"></path><title>Remove link.</title></g><g event="link:options"><circle r="11" transform="translate(25)"></circle><path fill="white" transform="scale(.55) translate(29, -16)" d="M31.229,17.736c0.064-0.571,0.104-1.148,0.104-1.736s-0.04-1.166-0.104-1.737l-4.377-1.557c-0.218-0.716-0.504-1.401-0.851-2.05l1.993-4.192c-0.725-0.91-1.549-1.734-2.458-2.459l-4.193,1.994c-0.647-0.347-1.334-0.632-2.049-0.849l-1.558-4.378C17.165,0.708,16.588,0.667,16,0.667s-1.166,0.041-1.737,0.105L12.707,5.15c-0.716,0.217-1.401,0.502-2.05,0.849L6.464,4.005C5.554,4.73,4.73,5.554,4.005,6.464l1.994,4.192c-0.347,0.648-0.632,1.334-0.849,2.05l-4.378,1.557C0.708,14.834,0.667,15.412,0.667,16s0.041,1.165,0.105,1.736l4.378,1.558c0.217,0.715,0.502,1.401,0.849,2.049l-1.994,4.193c0.725,0.909,1.549,1.733,2.459,2.458l4.192-1.993c0.648,0.347,1.334,0.633,2.05,0.851l1.557,4.377c0.571,0.064,1.148,0.104,1.737,0.104c0.588,0,1.165-0.04,1.736-0.104l1.558-4.377c0.715-0.218,1.399-0.504,2.049-0.851l4.193,1.993c0.909-0.725,1.733-1.549,2.458-2.458l-1.993-4.193c0.347-0.647,0.633-1.334,0.851-2.049L31.229,17.736zM16,20.871c-2.69,0-4.872-2.182-4.872-4.871c0-2.69,2.182-4.872,4.872-4.872c2.689,0,4.871,2.182,4.871,4.872C20.871,18.689,18.689,20.871,16,20.871z"></path><title>Link options.</title></g></g></g></g><g id="j_29"><path stroke="#707070" id="v-569" stroke-width="2" stroke-dasharray="30 30" fill="none" d="M 2846 507 3051 696 S 3058 703 3058 713 L 3058 1097 S 3058 1107 3051 1114 L 2109 1993" style="opacity: 1;"></path><path fill="black" stroke="black" transform="translate(2846,507) scale(1,1) rotate(42.7542724609375)"></path><path fill="#707070" stroke="#707070" id="v-571" d="M 20 0 L 0 10 L 20 20 z" transform="translate(2087.175763241619,1999.6905002148133) scale(1,1) rotate(-43.03353500366211)" style="opacity: 1;"></path><path id="v-570" fill="none" d="M 2846 507 3051 696 S 3058 703 3058 713 L 3058 1097 S 3058 1107 3051 1114 L 2109 1993" style=""></path><title></title><g><g id="v-557" label-idx="0" cursor="move" transform="translate(2836.05615234375, 1314.56884765625)" style="opacity: 1;"><rect id="v-559" fill="#ffffff" rx="3" ry="3" stroke="#ffffff" stroke-width="20px" pointer-events="none" width="141.57493591308594" height="31.432331085205078" transform="matrix(1,0,0,1,-69.5,-15.7)"></rect><text id="v-558" font-size="24px" y="0.8em" xml:space="preserve" text-anchor="middle" pointer-events="none" fill="#707070" font-family="Open Sans" font-weight="normal" transform="matrix(1,0,0,1,0,-10.5)"><tspan id="v-560" dy="0em" x="0">show orders</tspan></text></g><g id="v-561" label-idx="1" cursor="move" transform="translate(2836.05615234375, 1345.76884765625)" style="opacity: 1;"><rect id="v-563" fill="#ffffff" rx="3" ry="3" pointer-events="none" width="0" height="0" transform="matrix(1,0,0,1,0,0)"></rect><text id="v-562" font-size="19px" y="0.8em" display="none" xml:space="preserve" text-anchor="middle" pointer-events="none" fill="#707070" font-family="Open Sans" font-weight="normal" transform="matrix(1,0,0,1,0,0)"><tspan id="v-564" dy="0em" x="0" style="fill-opacity: 0; stroke-opacity: 0;">-</tspan></text></g><g id="v-565" label-idx="2" cursor="move" transform="translate(2836.05615234375, 1369.76884765625)" style="opacity: 1;"><rect id="v-567" fill="#ffffff" rx="3" ry="3" pointer-events="none" display="none" width="0" height="0" transform="matrix(1,0,0,1,0,0)"></rect><text id="v-566" font-size="19px" y="0.8em" display="none" xml:space="preserve" text-anchor="middle" pointer-events="none" fill="#707070" font-family="Open Sans" font-weight="normal" transform="matrix(1,0,0,1,0,0)"><tspan id="v-568" dy="0em" x="0" style="fill-opacity: 0; stroke-opacity: 0;">-</tspan></text></g></g><g display="none"><g transform="translate(3058, 703)" id="v-657"><circle idx="0" r="10"></circle><path idx="0" d="M16,5.333c-7.732,0-14,4.701-14,10.5c0,1.982,0.741,3.833,2.016,5.414L2,25.667l5.613-1.441c2.339,1.317,5.237,2.107,8.387,2.107c7.732,0,14-4.701,14-10.5C30,10.034,23.732,5.333,16,5.333z" transform="translate(5, -33)"></path><path idx="0" transform="scale(.8) translate(9.5, -37)" d="M24.778,21.419 19.276,15.917 24.777,10.415 21.949,7.585 16.447,13.087 10.945,7.585 8.117,10.415 13.618,15.917 8.116,21.419 10.946,24.248 16.447,18.746 21.948,24.248z"><title>Remove vertex.</title></path></g><g transform="translate(3058, 1107)" id="v-658"><circle idx="1" r="10"></circle><path idx="1" d="M16,5.333c-7.732,0-14,4.701-14,10.5c0,1.982,0.741,3.833,2.016,5.414L2,25.667l5.613-1.441c2.339,1.317,5.237,2.107,8.387,2.107c7.732,0,14-4.701,14-10.5C30,10.034,23.732,5.333,16,5.333z" transform="translate(5, -33)"></path><path idx="1" transform="scale(.8) translate(9.5, -37)" d="M24.778,21.419 19.276,15.917 24.777,10.415 21.949,7.585 16.447,13.087 10.945,7.585 8.117,10.415 13.618,15.917 8.116,21.419 10.946,24.248 16.447,18.746 21.948,24.248z"><title>Remove vertex.</title></path></g></g><g id="v-573" display="none"><g id="v-554"><path end="source" d="M 26 0 L 0 13 L 26 26 z"></path></g><g id="v-555"><path end="target" d="M 26 0 L 0 13 L 26 26 z"></path></g></g><g id="v-572" display="none"><g id="v-551" transform="translate(2875.40869140625, 534.11328125) "><g event="remove"><circle r="11"></circle><path transform="scale(.8) translate(-16, -16)" d="M24.778,21.419 19.276,15.917 24.777,10.415 21.949,7.585 16.447,13.087 10.945,7.585 8.117,10.415 13.618,15.917 8.116,21.419 10.946,24.248 16.447,18.746 21.948,24.248z"></path><title>Remove link.</title></g><g event="link:options"><circle r="11" transform="translate(25)"></circle><path fill="white" transform="scale(.55) translate(29, -16)" d="M31.229,17.736c0.064-0.571,0.104-1.148,0.104-1.736s-0.04-1.166-0.104-1.737l-4.377-1.557c-0.218-0.716-0.504-1.401-0.851-2.05l1.993-4.192c-0.725-0.91-1.549-1.734-2.458-2.459l-4.193,1.994c-0.647-0.347-1.334-0.632-2.049-0.849l-1.558-4.378C17.165,0.708,16.588,0.667,16,0.667s-1.166,0.041-1.737,0.105L12.707,5.15c-0.716,0.217-1.401,0.502-2.05,0.849L6.464,4.005C5.554,4.73,4.73,5.554,4.005,6.464l1.994,4.192c-0.347,0.648-0.632,1.334-0.849,2.05l-4.378,1.557C0.708,14.834,0.667,15.412,0.667,16s0.041,1.165,0.105,1.736l4.378,1.558c0.217,0.715,0.502,1.401,0.849,2.049l-1.994,4.193c0.725,0.909,1.549,1.733,2.459,2.458l4.192-1.993c0.648,0.347,1.334,0.633,2.05,0.851l1.557,4.377c0.571,0.064,1.148,0.104,1.737,0.104c0.588,0,1.165-0.04,1.736-0.104l1.558-4.377c0.715-0.218,1.399-0.504,2.049-0.851l4.193,1.993c0.909-0.725,1.733-1.549,2.458-2.458l-1.993-4.193c0.347-0.647,0.633-1.334,0.851-2.049L31.229,17.736zM16,20.871c-2.69,0-4.872-2.182-4.872-4.871c0-2.69,2.182-4.872,4.872-4.872c2.689,0,4.871,2.182,4.871,4.872C20.871,18.689,18.689,20.871,16,20.871z"></path><title>Link options.</title></g></g></g></g><g id="j_30"><path stroke="#707070" id="v-594" stroke-width="2" stroke-dasharray="30 30" fill="none" d="M 2496 2307 2137 2595" style="opacity: 1;"></path><path fill="black" stroke="black" transform="translate(2496,2307) scale(1,1) rotate(-218.65980529785156)"></path><path fill="#707070" stroke="#707070" id="v-596" d="M 20 0 L 0 10 L 20 20 z" transform="translate(2114.752955156626,2599.1911922792087) scale(1,1) rotate(-38.65980911254882)" style="opacity: 1;"></path><path id="v-595" fill="none" d="M 2496 2307 2137 2595" style=""></path><title></title><g><g id="v-581" label-idx="0" cursor="move" transform="translate(2316.5, 2451)" style="opacity: 1;"><rect id="v-583" fill="#ffffff" rx="3" ry="3" stroke="#ffffff" stroke-width="20px" pointer-events="none" width="162.56915283203125" height="60.232330322265625" transform="matrix(1,0,0,1,-81,-30.1)"></rect><text id="v-582" font-size="24px" y="0.8em" xml:space="preserve" text-anchor="middle" pointer-events="none" fill="#707070" font-family="Open Sans" font-weight="normal" transform="matrix(1,0,0,1,0,-24.9)"><tspan id="v-584" dy="0em" x="0">request delete</tspan><tspan id="v-585" dy="1.2em" x="0">order</tspan></text></g><g id="v-586" label-idx="1" cursor="move" transform="translate(2316.5, 2494.2)" style="opacity: 1;"><rect id="v-588" fill="#ffffff" rx="3" ry="3" pointer-events="none" width="0" height="0" transform="matrix(1,0,0,1,0,0)"></rect><text id="v-587" font-size="19px" y="0.8em" display="none" xml:space="preserve" text-anchor="middle" pointer-events="none" fill="#707070" font-family="Open Sans" font-weight="normal" transform="matrix(1,0,0,1,0,0)"><tspan id="v-589" dy="0em" x="0" style="fill-opacity: 0; stroke-opacity: 0;">-</tspan></text></g><g id="v-590" label-idx="2" cursor="move" transform="translate(2316.5, 2518.2)" style="opacity: 1;"><rect id="v-592" fill="#ffffff" rx="3" ry="3" pointer-events="none" display="none" width="0" height="0" transform="matrix(1,0,0,1,0,0)"></rect><text id="v-591" font-size="19px" y="0.8em" display="none" xml:space="preserve" text-anchor="middle" pointer-events="none" fill="#707070" font-family="Open Sans" font-weight="normal" transform="matrix(1,0,0,1,0,0)"><tspan id="v-593" dy="0em" x="0" style="fill-opacity: 0; stroke-opacity: 0;">-</tspan></text></g></g><g display="none"></g><g id="v-598" display="none"><g id="v-578"><path end="source" d="M 26 0 L 0 13 L 26 26 z"></path></g><g id="v-579"><path end="target" d="M 26 0 L 0 13 L 26 26 z"></path></g></g><g id="v-597" display="none"><g id="v-577" transform="translate(2464.79931640625, 2332.0302734375) "><g event="remove"><circle r="11"></circle><path transform="scale(.8) translate(-16, -16)" d="M24.778,21.419 19.276,15.917 24.777,10.415 21.949,7.585 16.447,13.087 10.945,7.585 8.117,10.415 13.618,15.917 8.116,21.419 10.946,24.248 16.447,18.746 21.948,24.248z"></path><title>Remove link.</title></g><g event="link:options"><circle r="11" transform="translate(25)"></circle><path fill="white" transform="scale(.55) translate(29, -16)" d="M31.229,17.736c0.064-0.571,0.104-1.148,0.104-1.736s-0.04-1.166-0.104-1.737l-4.377-1.557c-0.218-0.716-0.504-1.401-0.851-2.05l1.993-4.192c-0.725-0.91-1.549-1.734-2.458-2.459l-4.193,1.994c-0.647-0.347-1.334-0.632-2.049-0.849l-1.558-4.378C17.165,0.708,16.588,0.667,16,0.667s-1.166,0.041-1.737,0.105L12.707,5.15c-0.716,0.217-1.401,0.502-2.05,0.849L6.464,4.005C5.554,4.73,4.73,5.554,4.005,6.464l1.994,4.192c-0.347,0.648-0.632,1.334-0.849,2.05l-4.378,1.557C0.708,14.834,0.667,15.412,0.667,16s0.041,1.165,0.105,1.736l4.378,1.558c0.217,0.715,0.502,1.401,0.849,2.049l-1.994,4.193c0.725,0.909,1.549,1.733,2.459,2.458l4.192-1.993c0.648,0.347,1.334,0.633,2.05,0.851l1.557,4.377c0.571,0.064,1.148,0.104,1.737,0.104c0.588,0,1.165-0.04,1.736-0.104l1.558-4.377c0.715-0.218,1.399-0.504,2.049-0.851l4.193,1.993c0.909-0.725,1.733-1.549,2.458-2.458l-1.993-4.193c0.347-0.647,0.633-1.334,0.851-2.049L31.229,17.736zM16,20.871c-2.69,0-4.872-2.182-4.872-4.871c0-2.69,2.182-4.872,4.872-4.872c2.689,0,4.871,2.182,4.871,4.872C20.871,18.689,18.689,20.871,16,20.871z"></path><title>Link options.</title></g></g></g></g><g id="j_31"><path stroke="#707070" id="v-618" stroke-width="2" stroke-dasharray="30 30" fill="none" d="M 2496 507 2137 795" style="opacity: 1;"></path><path fill="black" stroke="black" transform="translate(2496,507) scale(1,1) rotate(-218.65980529785156)"></path><path fill="#707070" stroke="#707070" id="v-620" d="M 20 0 L 0 10 L 20 20 z" transform="translate(2114.752955156626,799.1913143495211) scale(1,1) rotate(-38.65980911254882)" style="opacity: 1;"></path><path id="v-619" fill="none" d="M 2496 507 2137 795" style=""></path><title></title><g><g id="v-606" label-idx="0" cursor="move" transform="translate(2316.5, 651)" style="opacity: 1;"><rect id="v-608" fill="#ffffff" rx="3" ry="3" stroke="#ffffff" stroke-width="20px" pointer-events="none" width="142.72308349609375" height="31.432331085205078" transform="matrix(1,0,0,1,-69.3,-15.7)"></rect><text id="v-607" font-size="24px" y="0.8em" xml:space="preserve" text-anchor="middle" pointer-events="none" fill="#707070" font-family="Open Sans" font-weight="normal" transform="matrix(1,0,0,1,0,-10.5)"><tspan id="v-609" dy="0em" x="0">create order</tspan></text></g><g id="v-610" label-idx="1" cursor="move" transform="translate(2316.5, 682.2)" style="opacity: 1;"><rect id="v-612" fill="#ffffff" rx="3" ry="3" pointer-events="none" width="0" height="0" transform="matrix(1,0,0,1,0,0)"></rect><text id="v-611" font-size="19px" y="0.8em" display="none" xml:space="preserve" text-anchor="middle" pointer-events="none" fill="#707070" font-family="Open Sans" font-weight="normal" transform="matrix(1,0,0,1,0,0)"><tspan id="v-613" dy="0em" x="0" style="fill-opacity: 0; stroke-opacity: 0;">-</tspan></text></g><g id="v-614" label-idx="2" cursor="move" transform="translate(2316.5, 706.2)" style="opacity: 1;"><rect id="v-616" fill="#ffffff" rx="3" ry="3" pointer-events="none" display="none" width="0" height="0" transform="matrix(1,0,0,1,0,0)"></rect><text id="v-615" font-size="19px" y="0.8em" display="none" xml:space="preserve" text-anchor="middle" pointer-events="none" fill="#707070" font-family="Open Sans" font-weight="normal" transform="matrix(1,0,0,1,0,0)"><tspan id="v-617" dy="0em" x="0" style="fill-opacity: 0; stroke-opacity: 0;">-</tspan></text></g></g><g display="none"></g><g id="v-622" display="none"><g id="v-603"><path end="source" d="M 26 0 L 0 13 L 26 26 z"></path></g><g id="v-604"><path end="target" d="M 26 0 L 0 13 L 26 26 z"></path></g></g><g id="v-621" display="none"><g id="v-602" transform="translate(2464.79931640625, 532.0301513671875) "><g event="remove"><circle r="11"></circle><path transform="scale(.8) translate(-16, -16)" d="M24.778,21.419 19.276,15.917 24.777,10.415 21.949,7.585 16.447,13.087 10.945,7.585 8.117,10.415 13.618,15.917 8.116,21.419 10.946,24.248 16.447,18.746 21.948,24.248z"></path><title>Remove link.</title></g><g event="link:options"><circle r="11" transform="translate(25)"></circle><path fill="white" transform="scale(.55) translate(29, -16)" d="M31.229,17.736c0.064-0.571,0.104-1.148,0.104-1.736s-0.04-1.166-0.104-1.737l-4.377-1.557c-0.218-0.716-0.504-1.401-0.851-2.05l1.993-4.192c-0.725-0.91-1.549-1.734-2.458-2.459l-4.193,1.994c-0.647-0.347-1.334-0.632-2.049-0.849l-1.558-4.378C17.165,0.708,16.588,0.667,16,0.667s-1.166,0.041-1.737,0.105L12.707,5.15c-0.716,0.217-1.401,0.502-2.05,0.849L6.464,4.005C5.554,4.73,4.73,5.554,4.005,6.464l1.994,4.192c-0.347,0.648-0.632,1.334-0.849,2.05l-4.378,1.557C0.708,14.834,0.667,15.412,0.667,16s0.041,1.165,0.105,1.736l4.378,1.558c0.217,0.715,0.502,1.401,0.849,2.049l-1.994,4.193c0.725,0.909,1.549,1.733,2.459,2.458l4.192-1.993c0.648,0.347,1.334,0.633,2.05,0.851l1.557,4.377c0.571,0.064,1.148,0.104,1.737,0.104c0.588,0,1.165-0.04,1.736-0.104l1.558-4.377c0.715-0.218,1.399-0.504,2.049-0.851l4.193,1.993c0.909-0.725,1.733-1.549,2.458-2.458l-1.993-4.193c0.347-0.647,0.633-1.334,0.851-2.049L31.229,17.736zM16,20.871c-2.69,0-4.872-2.182-4.872-4.871c0-2.69,2.182-4.872,4.872-4.872c2.689,0,4.871,2.182,4.871,4.872C20.871,18.689,18.689,20.871,16,20.871z"></path><title>Link options.</title></g></g></g></g><g id="j_32"><path stroke="#707070" id="v-641" stroke-width="2" stroke-dasharray="30 30" fill="none" d="M 2908 2214 4457 2605 S 4467 2607 4476 2611 L 4598 2660" style="opacity: 1;"></path><path fill="black" stroke="black" transform="translate(2908,2214) scale(1,1) rotate(14.148590087890668)"></path><path fill="#707070" stroke="#707070" id="v-643" d="M 20 0 L 0 10 L 20 20 z" transform="translate(4613.286192772322,2676.284806229568) scale(1,1) rotate(-158.19859313964844)" style="opacity: 1;"></path><path id="v-642" fill="none" d="M 2908 2214 4457 2605 S 4467 2607 4476 2611 L 4598 2660" style=""></path><title></title><g><g id="v-629" label-idx="0" cursor="move" transform="translate(3755.91259765625, 2428.03076171875)" style="opacity: 1;"><rect id="v-631" fill="#ffffff" rx="3" ry="3" stroke="#ffffff" stroke-width="20px" pointer-events="none" width="85.32896423339844" height="31.432331085205078" transform="matrix(1,0,0,1,-41.4,-15.7)"></rect><text id="v-630" font-size="24px" y="0.8em" xml:space="preserve" text-anchor="middle" pointer-events="none" fill="#707070" font-family="Open Sans" font-weight="normal" transform="matrix(1,0,0,1,0,-10.5)"><tspan id="v-632" dy="0em" x="0">notifies</tspan></text></g><g id="v-633" label-idx="1" cursor="move" transform="translate(3755.91259765625, 2459.23076171875)" style="opacity: 1;"><rect id="v-635" fill="#ffffff" rx="3" ry="3" pointer-events="none" width="0" height="0" transform="matrix(1,0,0,1,0,0)"></rect><text id="v-634" font-size="19px" y="0.8em" display="none" xml:space="preserve" text-anchor="middle" pointer-events="none" fill="#707070" font-family="Open Sans" font-weight="normal" transform="matrix(1,0,0,1,0,0)"><tspan id="v-636" dy="0em" x="0" style="fill-opacity: 0; stroke-opacity: 0;">-</tspan></text></g><g id="v-637" label-idx="2" cursor="move" transform="translate(3755.91259765625, 2483.23076171875)" style="opacity: 1;"><rect id="v-639" fill="#ffffff" rx="3" ry="3" pointer-events="none" display="none" width="0" height="0" transform="matrix(1,0,0,1,0,0)"></rect><text id="v-638" font-size="19px" y="0.8em" display="none" xml:space="preserve" text-anchor="middle" pointer-events="none" fill="#707070" font-family="Open Sans" font-weight="normal" transform="matrix(1,0,0,1,0,0)"><tspan id="v-640" dy="0em" x="0" style="fill-opacity: 0; stroke-opacity: 0;">-</tspan></text></g></g><g display="none"><g transform="translate(4467, 2607)" id="v-659"><circle idx="0" r="10"></circle><path idx="0" d="M16,5.333c-7.732,0-14,4.701-14,10.5c0,1.982,0.741,3.833,2.016,5.414L2,25.667l5.613-1.441c2.339,1.317,5.237,2.107,8.387,2.107c7.732,0,14-4.701,14-10.5C30,10.034,23.732,5.333,16,5.333z" transform="translate(5, -33)"></path><path idx="0" transform="scale(.8) translate(9.5, -37)" d="M24.778,21.419 19.276,15.917 24.777,10.415 21.949,7.585 16.447,13.087 10.945,7.585 8.117,10.415 13.618,15.917 8.116,21.419 10.946,24.248 16.447,18.746 21.948,24.248z"><title>Remove vertex.</title></path></g></g><g id="v-645" display="none"><g id="v-626"><path end="source" d="M 26 0 L 0 13 L 26 26 z"></path></g><g id="v-627"><path end="target" d="M 26 0 L 0 13 L 26 26 z"></path></g></g><g id="v-644" display="none"><g id="v-624" transform="translate(2946.783447265625, 2223.789794921875) "><g event="remove"><circle r="11"></circle><path transform="scale(.8) translate(-16, -16)" d="M24.778,21.419 19.276,15.917 24.777,10.415 21.949,7.585 16.447,13.087 10.945,7.585 8.117,10.415 13.618,15.917 8.116,21.419 10.946,24.248 16.447,18.746 21.948,24.248z"></path><title>Remove link.</title></g><g event="link:options"><circle r="11" transform="translate(25)"></circle><path fill="white" transform="scale(.55) translate(29, -16)" d="M31.229,17.736c0.064-0.571,0.104-1.148,0.104-1.736s-0.04-1.166-0.104-1.737l-4.377-1.557c-0.218-0.716-0.504-1.401-0.851-2.05l1.993-4.192c-0.725-0.91-1.549-1.734-2.458-2.459l-4.193,1.994c-0.647-0.347-1.334-0.632-2.049-0.849l-1.558-4.378C17.165,0.708,16.588,0.667,16,0.667s-1.166,0.041-1.737,0.105L12.707,5.15c-0.716,0.217-1.401,0.502-2.05,0.849L6.464,4.005C5.554,4.73,4.73,5.554,4.005,6.464l1.994,4.192c-0.347,0.648-0.632,1.334-0.849,2.05l-4.378,1.557C0.708,14.834,0.667,15.412,0.667,16s0.041,1.165,0.105,1.736l4.378,1.558c0.217,0.715,0.502,1.401,0.849,2.049l-1.994,4.193c0.725,0.909,1.549,1.733,2.459,2.458l4.192-1.993c0.648,0.347,1.334,0.633,2.05,0.851l1.557,4.377c0.571,0.064,1.148,0.104,1.737,0.104c0.588,0,1.165-0.04,1.736-0.104l1.558-4.377c0.715-0.218,1.399-0.504,2.049-0.851l4.193,1.993c0.909-0.725,1.733-1.549,2.458-2.458l-1.993-4.193c0.347-0.647,0.633-1.334,0.851-2.049L31.229,17.736zM16,20.871c-2.69,0-4.872-2.182-4.872-4.871c0-2.69,2.182-4.872,4.872-4.872c2.689,0,4.871,2.182,4.871,4.872C20.871,18.689,18.689,20.871,16,20.871z"></path><title>Link options.</title></g></g></g></g></g><defs id="v-4"></defs></svg>